<svg id="Layer_1" data-name="Layer 1" xmlns="http://www.w3.org/2000/svg" xmlns:xlink="http://www.w3.org/1999/xlink" width="180mm" height="180mm" viewBox="0 0 510.2362 510.2362"><defs><style>.cls-1,.cls-4{fill:none;}.cls-2{fill:#231f20;}.cls-3,.cls-4,.cls-5,.cls-6,.cls-7{stroke:#010101;stroke-linecap:round;stroke-width:5px;}.cls-3,.cls-4,.cls-5,.cls-7{stroke-linejoin:round;}.cls-3{fill:url(#New_Gradient_Swatch);}.cls-5{fill:url(#New_Gradient_Swatch-2);}.cls-6,.cls-7,.cls-8{fill:#010101;}.cls-6,.cls-8{fill-opacity:0.6902;}.cls-9{isolation:isolate;}.cls-10{clip-path:url(#clip-path);}.cls-11{fill:#fff;}</style><linearGradient id="New_Gradient_Swatch" x1="464.5422" y1="155.597" x2="77.0911" y2="155.597" gradientUnits="userSpaceOnUse"><stop offset="0" stop-color="#f26d6f"/><stop offset="1" stop-color="#ee3432"/></linearGradient><linearGradient id="New_Gradient_Swatch-2" x1="144.0383" y1="183.9252" x2="438.8305" y2="183.9252" xlink:href="#New_Gradient_Swatch"/><clipPath id="clip-path"><polygon class="cls-1" points="338.094 154.066 388.359 133.441 393.421 167.329 343.156 187.954 338.094 154.066"/></clipPath></defs><title>logo</title><path class="cls-2" d="M131.2294,309.3033q6.5363,0,6.5366,12.7685,0,12.085-8.0947,28.7676a121.2961,121.2961,0,0,1-20.4072,29.9082l-2.0522,7.0684a44.8478,44.8478,0,0,0,19.1533-3.8008l.9121,2.0527a49.1944,49.1944,0,0,1-10.0327,4.56,71.895,71.895,0,0,1-11.5528,2.9648L88.6669,456.4478l-9.1206,2.3565,18.1651-64.4522-3.2681-7.6768a28.1075,28.1075,0,0,0,5.1685.836l11.9326-42.2578q5.7751-20.14,10.1845-28.0459Q126.1359,309.3032,131.2294,309.3033Zm-6.9165,15.58L111.24,373.7544a111.1224,111.1224,0,0,0,15.3911-28.3876q6.1171-16.2261,6.1181-27.4756a9.1925,9.1925,0,0,0-.6459-3.7237q-.6468-1.4429-1.71-1.4443-1.6728,0-2.9263,2.5459A61.2374,61.2374,0,0,0,124.3129,324.8834Z"/><path class="cls-2" d="M149.8505,412.3648l1.6724-6.6885q-6.1567,9.1216-10.9829,13.1875t-9.3867,4.0664a7.664,7.664,0,0,1-6.1563-3.0781,11.701,11.701,0,0,1-2.5083-7.6387,22.92,22.92,0,0,1,2.2422-9.3867,33.8916,33.8916,0,0,1,6.1186-9.1592q8.8155-9.65,19.7613-9.6523,4.1791,0,6.2324,1.5967l8.2842-1.5967-8.5884,30.8584a3.6388,3.6388,0,0,0,.0762,2.47,1.5077,1.5077,0,0,0,1.4438.95q2.5833,0,11.2486-8.8926l1.52,1.5957q-10.4891,11.9341-16.189,11.9336a4.8183,4.8183,0,0,1-4.6743-2.9267Q148.5571,417.0782,149.8505,412.3648Zm5.1685-19.7607,1.2158-4.5606a12.4374,12.4374,0,0,0-5.624-1.3682q-8.5137,0-14.7451,9.8809a37.4945,37.4945,0,0,0-3.8384,8.1328,24.632,24.632,0,0,0-1.482,7.6758q0,6.233,4.0284,6.2324,4.3323,0,11.2485-9.0058Q152.7378,400.5841,155.019,392.6041Z"/><path class="cls-2" d="M201.8378,412.3648l5.9287-17.3291q2.5825-7.4472-1.2163-7.4482-3.7243,0-11.9707,11.4013A100.025,100.025,0,0,0,182.0766,421.41h-6.5361l29.87-109.751,9.1968-2.3554L186.789,406.5884q14.2889-22.5732,21.89-22.5732a6.0157,6.0157,0,0,1,6.042,3.7627q1.6341,3.7617-.4179,9.918l-5.7764,17.1777a4.0063,4.0063,0,0,0-.1138,2.47,1.3551,1.3551,0,0,0,1.4063.95q2.5825,0,11.4765-8.8926l1.5962,1.5957a96.0547,96.0547,0,0,1-10.1469,9.3868,11.0244,11.0244,0,0,1-6.3462,2.5468,4.8105,4.8105,0,0,1-4.6743-3.0029Q200.3171,416.9258,201.8378,412.3648Z"/><path class="cls-2" d="M262.413,393.9722l-5.7763,1.9q-1.14-7.828-4.0284-7.8291-2.433,0-8.9677,10.2608A100.5765,100.5765,0,0,0,232.5439,421.41h-6.5366l9.6528-35.7226,7.9043-1.6719-5.0923,18.6973q5.9283-10.26,9.6519-14.4786t6.9931-4.2187Q260.9692,384.0152,262.413,393.9722Z"/><path class="cls-2" d="M271.2294,411.8336l-11.5527,44.6142-7.6006,2.3565,19.6094-72.585,6.6885-2.2041-4.0284,15.4287a45.1265,45.1265,0,0,1,9.2725-11.21q5.017-4.2187,9.3486-4.2187a9.1433,9.1433,0,0,1,7.2207,3.1162,11.9908,11.9908,0,0,1,2.7364,8.209,22.2209,22.2209,0,0,1-2.1661,8.9687,33.9275,33.9275,0,0,1-5.9667,9.044q-8.59,9.5771-18.3165,9.5771a12.996,12.996,0,0,1-5.2451-.9121l2.28-4.2568a6.3179,6.3179,0,0,0,5.32,2.3564q5.3966,0,10.5645-7.6767a31.3188,31.3188,0,0,0,5.4726-17.8614,8.3013,8.3013,0,0,0-1.3681-4.9023,3.95,3.95,0,0,0-3.2676-1.9375q-4.2584,0-10.4893,7.9424A46.3991,46.3991,0,0,0,271.2294,411.8336Z"/><path class="cls-2" d="M315.54,404.3843l3.2685-11.78q-3.0409,2.6616-6.08,5.3964l-1.2159-2.3564q1.9746-1.8237,8.8164-8.6641l13.2246-47.3515q5.09-17.9356,8.5508-24.1309,3.4571-6.1948,8.4746-6.1943,2.6587,0,4.5215,3.6094a19.9094,19.9094,0,0,1,1.8623,9.1591q0,12.01-7.2207,27.7412a146.25,146.25,0,0,1-20.3691,31.6944l-6.3838,25.5371a35.4057,35.4057,0,0,0-1.4824,8.3232q.0381,2.5474,1.7861,2.5459,2.8872,0,11.249-8.5888l1.52,1.5966a91.3755,91.3755,0,0,1-10.1084,9.2725q-3.7251,2.7363-6.3848,2.7363Q310.4482,422.93,315.54,404.3843Zm15.8857-31.2373a112.523,112.523,0,0,0,14.82-27.9316q5.3966-14.9355,5.3965-27.4756,0-5.017-2.66-5.0166-2.6617,0-5.6241,12.16Z"/><path class="cls-2" d="M368.8954,412.3648l1.6729-6.6885q-6.1568,9.1216-10.9834,13.1875t-9.3867,4.0664a7.6654,7.6654,0,0,1-6.1563-3.0781,11.7012,11.7012,0,0,1-2.5078-7.6387,22.92,22.92,0,0,1,2.2422-9.3867,33.8993,33.8993,0,0,1,6.1182-9.1592q8.8154-9.65,19.7617-9.6523,4.1791,0,6.2324,1.5967l8.2842-1.5967-8.5889,30.8584a3.6418,3.6418,0,0,0,.0762,2.47,1.5084,1.5084,0,0,0,1.4443.95q2.5826,0,11.2481-8.8926l1.52,1.5957q-10.4883,11.9341-16.1885,11.9336a4.8189,4.8189,0,0,1-4.6748-2.9267Q367.602,417.0782,368.8954,412.3648Zm5.169-19.7607,1.2158-4.5606a12.439,12.439,0,0,0-5.624-1.3682q-8.5137,0-14.7451,9.8809a37.4958,37.4958,0,0,0-3.8389,8.1328,24.6437,24.6437,0,0,0-1.4814,7.6758q0,6.233,4.0283,6.2324,4.3315,0,11.248-9.0058Q371.7827,400.5841,374.0644,392.6041Z"/><path class="cls-2" d="M418.6035,412.3648l5.8515-17.2529q2.7363-7.8267-.76-7.8282t-11.5908,11.5909A108.1784,108.1784,0,0,0,399.7538,421.41h-6.5361l9.6524-35.6465,7.9043-1.748-6.08,22.2695q7.9042-12.3882,12.6172-17.3291,4.7109-4.9394,8.4365-4.94a5.6938,5.6938,0,0,1,5.7754,3.7627q1.52,3.7617-.5323,9.9941l-5.6992,17.1016a6.2083,6.2083,0,0,0-.3427,3.1543q.2665,1.33,1.2539,1.33,2.1268,0,11.8574-9.9571l1.5195,1.5957a90.5027,90.5027,0,0,1-10.0322,9.1973q-3.7251,2.7363-6.46,2.7363a4.7938,4.7938,0,0,1-4.7129-3.0029Q417.0068,416.9258,418.6035,412.3648Z"/><g id="layer1"><g id="g3462"><path id="path3415" class="cls-3" d="M305.7836,46.7857a98.6511,98.6511,0,0,0-41.6927,9.6088l-.0407-.0407-1.9137,1.0179c-1.51.75-3.0285,1.5289-4.5194,2.3615-.4174.2332-.8464.4525-1.2622.6922L87.467,149.2259V200.69l56.5946,60.1775,102.6845-56.961,35.1782,37.2954c.2563.2749.5129.5441.7736.8143l.7736.8143.0407-.0407c25.0232,25.0715,69.0359,29.2416,106.3489,7.736,43.3063-24.96,61.253-75.0819,40.064-111.8455a65.7714,65.7714,0,0,0-10.7489-13.884l.0408-.0407L359.1616,66.5734C345.3976,53.5947,326.256,46.7444,305.7836,46.7857Z"/><path id="path3409" class="cls-4" d="M144.0384,209.9461l-56.56-60.7375"/><path class="cls-5" d="M432.7688,144.236c-17.3046-37.9814-66.48-51.75-110.762-31.4938l.14-.2-1.59.8694c-.3336.1585-.67.3-1.0026.4628l-.0947.1372L144.0383,209.946l.017,50.906L265.427,192.2905l-1.2932,1.8734a68.2649,68.2649,0,0,0,6.03,29.431c17.6241,38.6828,68.3116,52.2763,113.2137,30.362S450.3929,182.9188,432.7688,144.236Z"/><path id="path3413" class="cls-6" d="M308.1268,102.0356l-20.9,10.9885L251.7178,76.2787l20.9-10.9886Z"/><path id="path3417" class="cls-7" d="M87.6541,200.4419l31.463-16.948"/><path id="path3419" class="cls-6" d="M89.7785,153.6348l51.95,55.9295v46.8913l-51.95-55.42Z"/><path id="path3442" class="cls-8" d="M264.1723,194.2572l-17.4262,9.65,35.1782,37.2954a65.8665,65.8665,0,0,1-8.9167-12.0518A67.3106,67.3106,0,0,1,264.1723,194.2572Z"/></g></g><g id="path2881"><g class="cls-9"><g class="cls-10"><polyline class="cls-11" points="356.99 182.277 340.985 173.416 349.748 151.838 356.943 148.149 350.035 164.852 362.088 158.663 359.298 146.934 364.975 144.022 367.763 155.743 379.815 149.555 367.332 142.814 374.525 139.117 390.53 147.978 381.759 169.56 374.565 173.249 381.473 156.546 369.42 162.735 372.209 174.464 366.533 177.376 363.752 165.652 351.698 171.832 364.176 178.583 356.99 182.277"/></g></g></g></svg>