<svg id="vehicles" xmlns="http://www.w3.org/2000/svg" width="422.92151" height="90.39753" viewBox="0 0 422.92151 90.39753"><defs><style>.cls-1,.cls-2{fill:none;stroke-miterlimit:10;}.cls-1{stroke:#fff200;}.cls-2{font-size:42px;stroke:#fff;font-family:MyriadPro-Regular, Myriad Pro;}</style></defs><title>bus</title><g id="bus"><path class="cls-1 vehicle-shape" d="M.8329,56.68664a7.6194,7.6194,0,0,0,1.158-3.93477c.1833-1.85438.69-3.62925,1.05115-5.43973.293-1.46889.36324-2.9617.75959-4.43267.77953-2.893,1.29165-5.85691,1.98685-8.77422A4.44113,4.44113,0,0,1,9.79572,30.9446c.65473-.03256,1.31192-.02054,1.968-.02056q39.14169-.00125,78.28337-.00072h1.98364a7.45476,7.45476,0,0,0-2.71983-2.38519A53.91745,53.91745,0,0,0,78.48545,23.289,226.93908,226.93908,0,0,0,49.703,14.63686c-7.66186-1.83167-15.33313-3.68166-22.67-6.62905-2.41311-.9694-4.92781-1.87548-6.27279-4.40315-.234-.43973-.65368-.39956-1.05669-.419a8.97222,8.97222,0,0,1-2.24889-.13079c-.79439-1.898-.42488-2.52114,1.57931-2.482,2.4603.048,4.925.09067,7.38182.15892a77.88666,77.88666,0,0,0,7.88354.12759c.20639.76634-.186,1.413.2522,2.06923-1.1751.48534-2.31467.06875-3.473.388a2.98337,2.98337,0,0,0,1.62555,1.64681,46.84693,46.84693,0,0,0,8.97282,3.45894c9.78266,2.96949,19.89514,4.5972,29.74664,7.28532,8.65486,2.36161,17.2937,4.79141,25.36917,8.81076,2.83346,1.41028,5.58436,2.99488,7.29636,5.82938a1.2874,1.2874,0,0,0,1.29467.5707c2.97787.00067,5.95578.00525,8.93357-.01151a1.64257,1.64257,0,0,0,1.00982-.21541c1.22412-1.12487,2.71449-.857,4.16266-.94651,2.4464-.15124,4.87954.34729,7.32425.08578a1.72122,1.72122,0,0,1,1.11334.41518,1.07915,1.07915,0,0,0,1.27371.08376c1.34843-.882,2.80879-.641,4.24382-.37071a4.9905,4.9905,0,0,0,1.30662-.00742c2.42006-.14744,4.90206-.869,7.16665.73622.64135.45462,1.477.22932,2.2252.22952q41.33727.01057,82.67452.00594c4.6435,0,9.287-.008,13.93048.00646a3.19915,3.19915,0,0,0,2.52345-.74709,2.36621,2.36621,0,0,1,1.8546-.46313c2.67474-.001,5.34969.02118,8.02416-.00478a3.81028,3.81028,0,0,1,2.82282.8411c1.04987-1.05487,2.39342-.81109,3.68537-.82663q3.33062-.04006,6.66173-.03546c1.00526.0002,2.03245-.07371,2.73883.90951.25352.35289.72706.30289,1.12957.31118.555.01142,1.11031.00859,1.66549.0086q65.867.00045,131.73405-.04c4.29558-.00643,7.71871,1.41189,10.17285,4.85236a27.66137,27.66137,0,0,1,3.16252,6.80692c1.02937,2.84918,1.39235,5.86553,2.29773,8.74763a49.47059,49.47059,0,0,1,2.30531,13.98447c.03386,1.87087.52195,3.68388.55851,5.56315.03952,2.0281-.29345,4.02369-.28635,6.04238.00551,1.57379-.83861,2.88175-1.43986,4.26023a1.20355,1.20355,0,0,1-1.12951.63869c-.60276.04655-1.20921.06258-1.81408.06277-10.7507.00349-21.5018.046-32.25176-.04122a3.1439,3.1439,0,0,0-3.3451,2.08973,10.27172,10.27172,0,0,1-11.84239,5.65175,9.39284,9.39284,0,0,1-6.87064-5.44945c-.73658-1.75681-1.77515-2.2986-3.66886-2.29246q-32.25181.10461-64.50407.01042a3.73124,3.73124,0,0,0-3.70465,2.15378c-2.43124,4.18238-6.06417,6.38951-11.05605,5.70009-3.59282-.49618-5.92413-2.835-7.7282-5.73989-1.38468-2.22956-1.43679-2.31792-3.907-1.59a5.40456,5.40456,0,0,1-1.49937.13037c-2.57393.00388-5.15705.122-7.71956-.05355-3.196-.21893-6.37337.19573-9.56072.04358-26.96118-1.287-53.93967-.305-80.90849-.60518a7.41012,7.41012,0,0,0-2.42377.17486c-.19336,2.44884-1.95356,3.99187-3.66716,5.54161-2.59842,2.34995-5.72876,2.59216-8.92822,1.86651-3.31786-.75249-5.41942-3.12588-7.009-5.99088-.86644-1.56163-2.60129-2.17975-4.73671-1.43152a8.17537,8.17537,0,0,1-2.8105.41688c-2.42247-.008-4.85061.08564-7.26619-.04774-4.54945-.25122-9.09108.20482-13.63739.03452a3.9256,3.9256,0,0,1-2.69537-.74912c-.5391-.4801-1.2264-.349-1.87017-.43736-2.84457-.39026-5.56548.65187-8.39.64174-14.83882-.05321-29.67794-.02574-44.517-.02384-2.28915.00029-2.41729.11771-3.236,2.32015a7.9256,7.9256,0,0,1-2.73942,3.36522C49.20681,92.02534,41.14321,89.21347,38.917,83.793a2.89524,2.89524,0,0,0-3.2499-1.984c-3.27639.11929-6.56777-.10757-9.83929.066-6.20509.32931-12.34424-.713-18.53454-.71621A6.70493,6.70493,0,0,1,1.55346,78.03a1.92075,1.92075,0,0,0-.72056-.75028Zm62.36494-40.8799a3.81762,3.81762,0,0,0-1.93045-.45608l1.91364.47989,5.43234,1.53366c6.577,2.01054,13.15629,4.01936,19.32089,7.14A19.71711,19.71711,0,0,1,95.07848,29.899c.86588,1.13641,3.73137,1.41176,5.08729.51164.02074-.52059-.37605-.802-.73372-1.04511a42.5437,42.5437,0,0,0-5.99167-3.45923,110.42187,110.42187,0,0,0-10.8596-4.36045c-4.598-1.56843-9.20836-3.10479-13.946-4.21531A29.01932,29.01932,0,0,0,63.19784,15.80674ZM385.26652,67.01687V81.3311h21.1122V39.35252H385.17957c0,9.17368.08695,18.54846.08695,27.66435M322.40031,81.3437c0-9.196-.138-32.95747-.138-41.98875H300.98523V66.63362H284.54786v-30.281h123.5164l-.00007-.12719H270.44447l-.00054.12324h12.92854c-.38358,10.16926-.12473,20.25408-.15918,30.41681H270.4645l.00041.22253h30.58877V81.3437h21.34663M86.59264,39.29251V66.64263H62.43818a4.56785,4.56785,0,0,1-.224-2.06979q-.01213-12.567-.00889-25.13393a4.23212,4.23212,0,0,0-.66786-3.05674H114.2743l-.00045-.16237H6.63541l-.00023.15989H60.79786V66.65831H37.35433V39.37787H16.02147V66.691H2.11749l-.00058.30882H16.12444V81.32149h21.3451V67.039H86.70981V81.36829h21.24094V66.97706h7.27385l.00107-.31015h-7.35358V39.29251ZM194.86233,66.9378H242.1075l0-.20944H217.02665a15.61591,15.61591,0,0,1-.08662-4.3539c.04248-7.2165.03192-14.43343.00689-21.6501-.00394-1.13351-.20168-2.26518-.26011-3.40026-.02185-.42413-.13379-.67011-.60747-.708-.6979.44433-.41868,1.17058-.42,1.77612-.01839,8.78118-.0086,17.56243-.02127,26.34363-.00091.63333.1763,1.314-.27851,1.89807H194.78279V39.34745H173.50507V66.644H157.51494c-.4855-1.34025.06309-2.51288.06785-3.69738.03368-8.37689.02235-16.754.02588-25.131.00028-.66212-.11186-1.22206-1.30487-1.09919V66.74209H142.98639l.00084.255H173.5701V81.33765h21.29223Zm213.607-29.70757c1.68547,4.93847,3.13268,9.824,4.4355,14.75341a86.35677,86.35677,0,0,1,2.41041,15.13192,19.49758,19.49758,0,0,0,4.39535-.07039,19.403,19.403,0,0,0-.19937-6.453,97.76076,97.76076,0,0,0-5.2513-19.50249,13.31881,13.31881,0,0,0-3.13952-4.90714A11.84829,11.84829,0,0,0,408.46932,37.23023ZM262.12148,30.86589V81.24523a1.76448,1.76448,0,0,0,1.66582-.08322V30.89079a6.02153,6.02153,0,0,0-.82519-.133A6.23866,6.23866,0,0,0,262.12148,30.86589ZM125.37475,81.24161V30.8938a2.37515,2.37515,0,0,0-1.68663.15549v50.122A1.75575,1.75575,0,0,0,125.37475,81.24161Zm.76837-50.33274V81.24618a1.8,1.8,0,0,0,1.67613-.07626V30.96185A1.83679,1.83679,0,0,0,126.14311,30.90887Zm3.6286-.00318V81.2591c.66872.19465,1.20048.31659,1.67866-.13445V30.98246A1.80624,1.80624,0,0,0,129.77172,30.90569Zm4.84783.00639V81.25974c.67189.19508,1.20383.314,1.67455-.13838V30.98244A1.77956,1.77956,0,0,0,134.61955,30.91208Zm116.5958.01442V81.25472c.67385.18378,1.20716.31135,1.67272-.14056v-50.126A1.7925,1.7925,0,0,0,251.21535,30.9265Zm4.08272,50.318V30.905a2.4414,2.4414,0,0,0-1.69358.14472V81.15769A1.80551,1.80551,0,0,0,255.29807,81.24445Zm1.97245-50.32353V81.25814a2.33662,2.33662,0,0,0,1.67516-.15944V30.986A1.8055,1.8055,0,0,0,257.27052,30.92092ZM366.46107,79.30633c-.31988,3.48561,2.57074,5.96353,5.96755,6.09087a6.18113,6.18113,0,0,0,5.98851-6.07864,5.85832,5.85832,0,0,0-5.86611-5.90648C368.6977,73.535,366.46869,75.57471,366.46107,79.30633ZM137.04356,30.94093V81.23715c.57849.21177,1.00761.28284,1.374-.12821v-50.111A1.25514,1.25514,0,0,0,137.04356,30.94093Zm2.38654.042V81.15959a1.10993,1.10993,0,0,0,1.39724-.002V30.93793A1.29552,1.29552,0,0,0,139.4301,30.98292Zm104.81465-.04311V81.18936a1.20665,1.20665,0,0,0,1.00863.17516,1.34753,1.34753,0,0,0,.3719-.23725V31.0085A1.24449,1.24449,0,0,0,244.24475,30.93981Zm2.43057.01728V81.19588a1.22688,1.22688,0,0,0,1.01783.16509,1.17842,1.17842,0,0,0,.35007-.2386v-50.167A1.32185,1.32185,0,0,0,246.67532,30.95709Zm3.77143,50.24333V30.97692a1.19921,1.19921,0,0,0-1.00506-.18049,1.42417,1.42417,0,0,0-.381.23646V81.19182A1.31486,1.31486,0,0,0,250.44675,81.20042Zm9.215-50.19933V81.16863a1.09754,1.09754,0,0,0,1.38245-.01283V30.94709A1.25078,1.25078,0,0,0,259.66177,31.0011Zm4.88177-.05434v50.291c.58435.20939,1.014.27849,1.36625-.13049V30.99369A1.25057,1.25057,0,0,0,264.54355,30.94676Zm-142.9501-.013V81.23467c.572.22725.99873.29092,1.38306-.12158V31.00335A1.23521,1.23521,0,0,0,121.59345,30.93376ZM118.1017,81.21124V30.92393c-.57453-.22192-1.00223-.29031-1.38206.11823V81.20838A1.32767,1.32767,0,0,0,118.1017,81.21124Zm1.069-50.27748V81.23467c.572.22725.99873.29092,1.38306-.12158V31.00335A1.23521,1.23521,0,0,0,119.17073,30.93376Zm147.79494.01005V81.19374a1.23114,1.23114,0,0,0,1.01805.16574c.13336-.03166.24321-.1624.35164-.23959V30.986A1.26087,1.26087,0,0,0,266.96567,30.94381ZM133.54935,81.22727v-50.304c-.57246-.22459-.9995-.28656-1.38275.12517V81.16A1.23618,1.23618,0,0,0,133.54935,81.22727ZM29.64456,3.32357H22.04715a8.77311,8.77311,0,0,0,3.87146,2.6456A82.12308,82.12308,0,0,0,37.82137,9.804c4.49491,1.15212,9.02188,2.17919,13.53488,3.26071a1.79388,1.79388,0,0,0-.94526-.49744A96.77328,96.77328,0,0,1,33.19464,6.81189,6.038,6.038,0,0,1,29.64456,3.32357ZM412.60065,73.78951a78.854,78.854,0,0,0,8.056-.05562,10.68829,10.68829,0,0,0-.07334-3.81772H412.665A12.08032,12.08032,0,0,0,412.60065,73.78951ZM241.80945,35.97287v-.05h-98.855v.05ZM50.35076,81.61024c-1.86769.21333-3.79727-.5053-5.53518.60983-.66547-.3036-1.20155-.83439-1.96556-.67025.91064,3.03172,4.1389,4.04613,6.25257,3.762,2.57129-.34558,4.44642-1.99258,4.46281-3.80135-.9614-.13327-.77343,1.067-1.47519,1.25932C51.0916,83.04351,50.80212,82.25166,50.35076,81.61024Zm228.00994.76839c-.58232-.28859-1.01683-.96878-1.80887-.81971a5.84917,5.84917,0,0,0,6.96675,3.18324c1.67527-.54688,3.05873-1.83678,3.01459-3.101-.47722.6069-.83885,1.34645-1.78449,1.05742-.31957-.24452-.18513-.78582-.82858-1.09241C282.23658,81.977,280.17558,80.91435,278.3607,82.37863ZM158.3774,81.60832c-1.76048.29874-3.72032-.624-5.48158.787-.47682-.41128-.95477-.9379-1.72523-.8035,1.48379,2.4649,3.98037,3.84665,6.14932,3.41917,2.042-.40245,3.663-1.75354,3.94815-3.29074C159.51646,83.08348,159.51646,83.08348,158.3774,81.60832ZM311.21372,40.05468h-9.35343v26.819c3.01161,2.17764,6.02129,4.28791,9.35343,6.25616Zm84.18969-.00028H386.05v26.815c3.0084,2.18533,6.022,4.28967,9.35343,6.26131ZM312.19954,73.18265c3.368-2.11265,6.40266-4.19884,9.289-6.3034V40.02271h-9.289Zm84.19287-.0458c3.398-2.026,6.387-4.18138,9.283-6.25357v-26.858h-9.283Zm-85.03854,1.953a1.93126,1.93126,0,0,0-.91713-1.73429c-1.63486-1.25458-3.39761-2.3055-5.13108-3.39853a11.57118,11.57118,0,0,0-3.42706-1.98377V80.60506h9.46381C311.34241,78.685,311.31764,76.88683,311.35387,75.08989Zm84.18943,0a1.93122,1.93122,0,0,0-.91713-1.73429c-1.63486-1.25454-3.39759-2.3055-5.131-3.39855a11.57549,11.57549,0,0,0-3.42709-1.9838V80.60506h9.46385C395.53187,78.685,395.5071,76.88683,395.54329,75.08989ZM321.55386,68.137a.75913.75913,0,0,0-.80157.0478q-4.07181,2.69587-8.128,5.4154a.93823.93823,0,0,0-.52058.6997,52.66286,52.66286,0,0,0,.05464,6.31883h9.39553Zm84.18987-.14316a2.765,2.765,0,0,0-.79976.19251c-2.71643,1.79445-5.42069,3.60724-8.12946,5.41331a.93908.93908,0,0,0-.52121.69925,52.87077,52.87077,0,0,0,.05371,6.32017h9.39672ZM96.8047,40.05319H87.45131V66.8684c3.00271,2.18763,6.02046,4.28621,9.35339,6.26473Zm-80.00718.91233q-.01143,12.47558-.02281,24.95113a1.60238,1.60238,0,0,0,.80906,1.47546c2.5405,1.70052,5.06239,3.42886,7.58991,5.14875.32729.22271.64022.49169,1.04014.269V40.02873H16.92815A8.11469,8.11469,0,0,0,16.79752,40.96552ZM27.23389,73.13615c3.39727-2.03,6.38826-4.18313,9.27766-6.25035V40.02754H27.23389Zm71.8529-.77709c2.27682-1.55334,4.52345-3.15483,6.85182-4.62687a2.49688,2.49688,0,0,0,1.31688-2.42558c-.04878-7.81269-.022-15.62584-.03264-23.43882a2.72521,2.72521,0,0,0-.28592-1.81075H97.744V72.84541A1.62554,1.62554,0,0,0,99.0868,72.35906ZM16.92241,80.57844H26.3581c0-2.08212-.00028-4.035.00019-5.98785a1.25564,1.25564,0,0,0-.69353-1.07812c-1.53374-1.0372-2.979-2.224-4.58354-3.132-1.36595-.77292-2.52237-1.94619-4.15881-2.406Zm79.995-.00939c0-2.10387.00108-4.0602-.00074-6.01654-.00048-.51553-.34588-.76687-.72008-1.062a55.93251,55.93251,0,0,0-5.37549-3.57013c-1.07309-.66178-1.98185-1.65106-3.37677-1.91491V80.72034C90.6917,80.64,93.73419,80.85827,96.91745,80.56905ZM36.52958,67.67583c-3.20792,2.14765-6.14925,4.10936-9.07508,6.09392a.89824.89824,0,0,0-.32878.64c-.02478,2.0428-.01468,4.086-.01468,6.21089h9.41854Zm70.58009.34425c-.26929.03989-.44154.01679-.55156.0888q-4.2088,2.75459-8.40386,5.53018a.89782.89782,0,0,0-.47352.73146c-.00761,2.04585-.00383,4.09175-.00383,6.23618h9.43276Zm76.60966-27.96653h-9.35341V66.86864c3.00428,2.18717,6.021,4.28716,9.35341,6.26373Zm10.26825,26.833V39.95874c-3.19943.007-6.24235-.16309-9.3472.105V73.17741C188.10921,71.10541,191.09985,68.95178,193.98758,66.88655ZM174.397,80.58053H183.821c0-2.12953.005-4.132-.00381-6.13449-.002-.45425-.34169-.67179-.6693-.93117a55.78378,55.78378,0,0,0-5.374-3.57329c-1.078-.667-1.98705-1.66825-3.377-1.93685Zm19.65092-.00635V68.05048c-.24347.018-.42047-.02227-.52622.04669q-4.27524,2.788-8.53361,5.60178a.901.901,0,0,0-.40674.77269c-.00072,1.99979-.00037,3.99957-.00037,6.21451C187.91983,80.66993,190.96216,80.8543,194.04788,80.57418Zm178.70407.35a1.55852,1.55852,0,0,0,1.24056-1.66724,1.62141,1.62141,0,0,0-1.3281-1.61519c-1.18744-.14163-1.73867.71892-2.13644,1.78758C371.06252,80.36809,371.60772,81.25,372.75195,80.92419Zm-1.05436-5.20039a2.35965,2.35965,0,0,0,1.84247-.07918,1.15048,1.15048,0,0,0-.16905-1.41488,2.97806,2.97806,0,0,0-1.806.14732A1.2692,1.2692,0,0,0,371.69759,75.7238Zm3.40388,5.8175c-.1217.58473.03,1.23474.73026,1.19828,1.18958-.06195.948-1.13446,1.21853-1.963C375.96056,80.31752,375.31363,80.52183,375.10147,81.54129Zm-1.7146,1.83229a.60013.60013,0,0,0-.31308-.62338c-1.9218.21694-1.9218.21694-1.67675,1.49347a3.40139,3.40139,0,0,0,1.90169-.0945A7.74424,7.74424,0,0,0,373.38687,83.37358Zm-4.69243-3.10148c-.52819-.14749-1.12415.042-1.12715.66437-.00529,1.09424.82667,1.18277,1.72388,1.18649C369.51217,81.33022,369.74629,80.56582,368.69444,80.2721Zm8.34565-2.33193c-.096-.88087-.05527-1.82665-1.53993-1.51656C375.33451,78.18915,375.5493,78.39667,377.04009,77.94017Zm-9.06567-.09759c1.2284.31069,1.41779-.37274,1.40836-1.498C368.23778,76.6682,368.23778,76.6682,367.97442,77.84258ZM48.90158,82.79924a1.2857,1.2857,0,0,0-1.43322.05083c-.46182.34763-.48552.83662-.11416,1.39562a3.60818,3.60818,0,0,0,1.81907-.05041C49.441,83.59074,49.43158,83.09934,48.90158,82.79924Zm233.73091.20775a2.15271,2.15271,0,0,0-1.85138.1816c-.3202.27608-.24221.71834.11772,1.04973a3.73452,3.73452,0,0,0,2.14655-.10311C283.11941,83.62212,283.2812,83.11116,282.63249,83.007Zm-125.204.99328c-.23336-1.46946-.371-1.53924-2.11913-1.11238a1.4719,1.4719,0,0,0,.178,1.37127C156.09675,84.255,156.81187,84.58514,157.42853,84.00027Z"/><text class="cls-2 vehicle-text" transform="translate(331.90911 70.63413)">31</text></g></svg>
