<svg id="vehicles" xmlns="http://www.w3.org/2000/svg" width="455.39685" height="82.56743" viewBox="0 0 455.39685 82.56743"><defs><style>.cls-1,.cls-2{fill:none;stroke-miterlimit:10;}.cls-1{stroke:#00aeef;stroke-width:0.97007px;}.cls-2{font-size:42px;stroke:#fff;font-family:MyriadPro-Regular, Myriad Pro;}</style></defs><title>s_bahn</title><g id="s_bahn"><path id="shape" class="cls-1" d="M14.37437,19.52436c.25933.1946.12659.47261.12751.70642.011,2.79366.00573,5.58737.00972,8.38106a.82073.82073,0,0,0,.16752.685V20.78916c.2375,0,.39854.001.55958-.00014,12.02876-.08552,24.05727.062,36.08715-.10308,11.21926-.154,22.44231-.05223,33.66352-.01255a3.27328,3.27328,0,0,0,2.844-1.37973A1.07976,1.07976,0,0,1,88.87,18.8291q19.69557.00819,39.39118.00846c.24538.00008.51-.07921.73228.0861a.60911.60911,0,0,1,.03946.14272c.005.90782.0046,1.81567.01091,2.72347a2.27315,2.27315,0,0,0,2.2509,2.34458q3.56133.04631,7.12368-.00188a2.40152,2.40152,0,0,0,2.38479-2.44085c-.0163-.37168-.00969-.74525.00518-1.11721a8.90533,8.90533,0,0,1,.05862-1.694h16.26563c0,.95135.03247,1.85768-.0074,2.76083A2.38873,2.38873,0,0,0,159.64,24.15883c1.18655-.03058,2.37446-.00622,3.56179-.00622q6.87946,0,13.759-.00095a2.30011,2.30011,0,0,0,2.31892-1.53936,4.19514,4.19514,0,0,0,.2126-1.35649c-.015-.78509-.00409-1.57067-.00409-2.36134h7.535c0,1.0585.00544,2.05689-.00288,3.05517a1.91621,1.91621,0,0,0,.24886.993,2.33305,2.33305,0,0,0,2.18579,1.20754c5.72709.00473,11.45444-.02773,17.18107.02359a2.43471,2.43471,0,0,0,2.61586-2.61819c-.05462-.894-.00969-1.79418-.00969-2.72211h6.69989c0,.97693.01422,1.87975-.00314,2.782a2.38281,2.38281,0,0,0,2.5409,2.55115c2.21037-.05392,4.42448-.063,6.63418.00295a2.40586,2.40586,0,0,0,2.57426-2.59947c-.03869-.89708-.007-1.79719-.007-2.67886h6.7c0,1.035-.01218,2.01259.00307,2.98973a2.27281,2.27281,0,0,0,2.24756,2.26651q8.90485.01633,17.80979-.0014a2.14958,2.14958,0,0,0,1.94633-1.246,3.44,3.44,0,0,0,.34474-1.595c.01524-.80631.00392-1.61313.00392-2.41986h7.522c0,1.04409-.00711,2.03873.00182,3.03323a2.18754,2.18754,0,0,0,2.19132,2.2268q8.86994.02362,17.74.00463a2.34433,2.34433,0,0,0,2.30992-2.35926c-.05434-.96625-.011-1.938-.011-2.90273h16.33856c0,.98417-.00416,1.91425.001,2.84427a2.383,2.383,0,0,0,2.41219,2.41879c2.30478.00716,4.61023-.03036,6.91416.01426a2.3822,2.3822,0,0,0,2.43786-2.45107c-.07279-.9398-.0141-1.88979-.0141-2.88027h.83848q19.521-.00012,39.04193-.008a1.5707,1.5707,0,0,1,1.23416.47168,3.22872,3.22872,0,0,0,2.424.94465q25.28295-.02462,50.56594-.01163,5.72707.00014,11.45414-.00045a.88651.88651,0,0,1,.83992.42334c1.07463,1.48842,2.02551,3.0532,2.95158,4.63233a5.87427,5.87427,0,0,1,.911,1.77722,1.75893,1.75893,0,0,1-.87249.11591c-2.86354.00207-5.72875.05823-8.58987-.02513a2.205,2.205,0,0,0-2.219,2.23722c.06607.99678.01865,2.00105.022,3.002.01056,3.18918.02792,6.37836.0284,9.56753a2.20343,2.20343,0,0,0,1.3479,2.16335,3.49678,3.49678,0,0,0,1.48127.2743c3.236-.003,6.47214.0114,9.70807-.0071,1.55568-.00889,3.11369.039,4.66692-.10821.371-.03517.5616.10245.67377.51435a28.52971,28.52971,0,0,1,.64756,3.14742c.1816,1.17642.33791,2.36169.48439,3.54489.09607.776.08012,1.55782.20212,2.33605a18.39042,18.39042,0,0,1,.03394,2.823H323.85425a2.15368,2.15368,0,0,1-.0634-.85467c-.00359-6.798-.023-13.59613.02017-20.39386a1.54268,1.54268,0,0,0-1.63987-1.64826q-13.33967.05978-26.67963.00007a1.53124,1.53124,0,0,0-1.628,1.66219c.04348,6.79773.02532,13.59584.02227,20.39384a1.844,1.844,0,0,1-.06374.82721h-7.33122l0-.80919c0-2.235.006-4.46994-.00242-6.70487a2.1891,2.1891,0,0,0-2.23349-2.218c-3.86461-.00274-7.73.0422-11.59337-.02751a2.32993,2.32993,0,0,0-2.28229,2.26527c.08482,2.25505.02754,4.51556.02055,6.77378-.00075.24407.0973.515-.10692.7176h-7.36776a1.27388,1.27388,0,0,1-.03591-.18639c-.00292-2.04867-.00162-4.09735-.00818-6.146a6.97349,6.97349,0,0,0-.11454-1.37192,2.1724,2.1724,0,0,0-2.41143-2.02681q-8.73031-.00305-17.4606.00141a2.20871,2.20871,0,0,0-2.36637,2.36519c-.00194,2.21168.00232,4.42336-.00459,6.635a1.22261,1.22261,0,0,1-.08023.742H233.072a1.81036,1.81036,0,0,1-.06879-.78992c-.00489-2.21167.00053-4.42336-.00414-6.635a2.25419,2.25419,0,0,0-2.29467-2.31641c-5.91333-.00216-11.827.03317-17.73968-.03a2.57254,2.57254,0,0,0-2.36065,2.38963c.06447,2.20979.02169,4.42281.015,6.63447a1.20848,1.20848,0,0,1-.08739.74954h-7.36781a1.86,1.86,0,0,1-.06517-.78757c-.00483-2.235-.00051-4.46992-.00373-6.70487a2.17794,2.17794,0,0,0-2.20467-2.25111q-8.90491-.00393-17.80983.00017a2.13282,2.13282,0,0,0-2.20326,2.23567c-.0035,2.28152.00068,4.563-.00194,6.84456-.00078.69308-.00619.69846-.69415.69936q-3.1429.00412-6.28583-.00216c-.17659-.00041-.37525.06482-.55341-.13322v-.45334c0-2.1884.00389-4.3768-.00136-6.56519a2.40184,2.40184,0,0,0-2.62768-2.65465c-3.74626.08532-7.49582.02669-11.244.02808a2.20386,2.20386,0,0,0-2.33534,2.32481c-.00307,2.235.00256,4.46993-.00563,6.70486-.00092.24335.09031.51137-.06568.69264H149.948a2.44161,2.44161,0,0,1-.068-.88693q-.0045-8.76523-.00044-17.53046c.00024-.533.01514-1.0638.06589-1.59837a5.71077,5.71077,0,0,0-.04246-1.80642,1.12516,1.12516,0,0,0-1.24974-1.0262q-13.6542-.00375-27.30841-.00014a1.1316,1.1316,0,0,0-1.24752,1.02572,3.92728,3.92728,0,0,0-.07892.68776c-.05388.69968.09293,1.3892.0929,2.0857q-.00036,9.14937-.00375,18.29873a1.14385,1.14385,0,0,1-.11449.77444H14.64925V36.98378l-.1402.00017c0,3.34652.00866,6.69307-.00246,10.03955q-.01673,5.04094-.013,10.08189c-.001,1.40924.00385,9.61171-.211,9.97244a2.45015,2.45015,0,0,1-.045-.82111q-.00435-22.55912-.0029-45.11824c0-.48878-.007-.97756-.01071-1.46635Zm335.5565,22.27142a2.41493,2.41493,0,0,0,2.55122,2.59789c1.83681.02816,3.67439.005,5.51163.00712a2.52869,2.52869,0,0,0,2.56246-2.60122c-.06793-2.34486.02034-4.69407.03132-7.04152.003-.64916-.02166-1.29948-.06128-1.94758a2.337,2.337,0,0,0-2.22787-2.10171c-2.02265-.03633-4.047-.0399-6.06951.00011a2.289,2.289,0,0,0-2.30573,2.37944c-.12161,1.69491.07781,3.38649.00648,4.77008C349.92959,39.37713,349.92451,40.58648,349.93087,41.79578Zm52.8742,13.19547V33.313c-.2252-.15581-.45326-.09061-.73358-.05689V54.98789A1.02889,1.02889,0,0,0,402.80507,54.99125Zm-3.94934-21.72013v21.664a1.22488,1.22488,0,0,0,.73779.047V33.27229A1.30313,1.30313,0,0,0,398.85573,33.27113Zm-4.33532-.0004V54.99438a1.14559,1.14559,0,0,0,.7462-.00089V33.3069A.97618.97618,0,0,0,394.52041,33.27073Zm-3.58923,21.72143V33.31249c-.2242-.1556-.45245-.08954-.733-.05733V54.98777A1.0255,1.0255,0,0,0,390.93118,54.99216Zm10.10347-21.71975V54.95571c.1892.16411.40666.1171.66362.03445V33.26173A1.17115,1.17115,0,0,0,401.03464,33.27241Zm-3.21314.00044V54.95551c.18968.16418.40706.11743.66394.03452V33.26256A1.15858,1.15858,0,0,0,397.8215,33.27285Zm-1.53574,21.734V33.297a.85213.85213,0,0,0-.65446-.03627V55.00982A1.12058,1.12058,0,0,0,396.28576,55.00685Zm-2.13246-.019V33.308c-.2-.14518-.40343-.087-.66013-.05245V54.97877A.7505.7505,0,0,0,394.1533,54.98783Zm-4.99244-21.71537V54.95555c.18911.16442.40663.1171.66369.03479V33.263A1.15719,1.15719,0,0,0,389.16085,33.27246Zm2.14183-.00743V54.99166a.74827.74827,0,0,0,.66079-.01846V33.27071A1.14575,1.14575,0,0,0,391.30268,33.265Zm1.1142-.04861V54.93733c.15843.152.36659.05745.61106.048V33.41125Zm8.158,21.74956V33.44136c-.17422-.14793-.37725-.077-.61851-.04772V54.95926A.99342.99342,0,0,0,400.57489,54.966Zm-3.19415-21.5046c-.18459-.17408-.39148-.09081-.63491-.07485v21.54c.16286.16.37311.04937.63491.0845Zm22.38451-14.62374c-.00506-.35138-.30215-.47808-.50107-.68558-.20541.22091.18091.31047.06542.532h-.67q-31.11548.00005-62.23092.02087a1.356,1.356,0,0,1-1.33551-.80868c-1.37164-2.367-2.779-4.71328-4.13888-7.08688a4.65579,4.65579,0,0,1-.7356-1.42261H411.0143c-.08446-.24623-.306-.30842-.55554-.38327a3.34633,3.34633,0,0,1-.63344-.33693c-.16126.03313-.127.225-.27022.225-10.4178.00025-20.8356.00023-31.332.00023V3.313c-.46445.073-.3749.37253-.377.60356-.00807.9079-.00408,1.81591-.00431,2.72388-.0002.73732,0,1.47465,0,2.17089a1.13418,1.13418,0,0,1-.62805.09255q-13.41.00339-26.82006.012a.83634.83634,0,0,1-.82932-.44088q-.72465-1.25209-1.46709-2.49387c-.86894-1.46158-1.74612-2.91829-2.608-4.384-.13752-.23386-.23471-.46588-.59493-.30214L355.0318,18.63075H314.66231c0-.3081,0-.56283,0-.81756.00015-1.28047-.03559-2.56223.0103-3.84106a2.51391,2.51391,0,0,0-2.5527-2.57414c-2.32514.08329-4.65545.02-6.98358.02305a2.26126,2.26126,0,0,0-2.31065,2.31322c-.00336,1.44343.00244,2.8869-.00462,4.3303-.001.19878.07525.421-.07065.5623H286.58462c0-.31206,0-.56687,0-.82169-.00012-1.28047.00723-2.561-.00232-3.8414a2.42829,2.42829,0,0,0-2.60885-2.56143c-5.7734.04582-11.54739.01778-17.32115.01794a2.42418,2.42418,0,0,0-2.52049,2.51547c-.00495,1.37358.0022,2.74721-.00486,4.12077-.001.19927.07242.42-.08678.58576h-7.23486a1.79155,1.79155,0,0,1-.06168-.72639c-.00477-1.37358.01023-2.74734-.00633-4.12074a2.413,2.413,0,0,0-2.23132-2.37294c-5.98329-.00434-11.96662.00817-17.94984-.013a2.44794,2.44794,0,0,0-2.18842,1.946c-.15493,1.487-.03269,2.97527-.083,4.46183a1.59439,1.59439,0,0,1-.08095.81189h-6.39962c-.01153-.21651-.02735-.37837-.02761-.54026-.00213-1.35031.0103-2.70076-.0045-4.05091a2.38586,2.38586,0,0,0-2.62042-2.61752q-3.45728-.00009-6.91455.00081a2.25786,2.25786,0,0,0-2.30306,2.03316c-.18467,1.48394-.03526,2.97415-.089,4.46039-.00882.24437.08066.51015-.104.72948H209.4162a1.77134,1.77134,0,0,1-.07769-.79184c-.00547-1.28045-.01651-2.56112.00082-3.84136a2.52312,2.52312,0,0,0-2.64651-2.61624c-5.79638.0626-11.59381.02544-17.39086.02578a2.35279,2.35279,0,0,0-2.28108,1.67563,3.297,3.297,0,0,0-.14346,1.02082c.01125,1.5049.00479,3.00994.00479,4.51093h-7.38959c0-1.662.00847-3.26777-.0028-4.87342a2.4219,2.4219,0,0,0-2.19435-2.33139q-9.00985-.00868-18.01974.001a2.26151,2.26151,0,0,0-2.15016,1.96394c-.1816,1.50743-.03881,3.02059-.09021,4.53009-.00832.244.08257.5105-.10122.72117H140.937c-.01313-.20334-.03161-.363-.0325-.52275-.00747-1.35026.00767-2.701-.02179-4.05071a2.52076,2.52076,0,0,0-2.6212-2.75972,21.49647,21.49647,0,0,1-2.42462-.02643c-1.6065-.08152-3.20039.19-4.80771.15509a2.23543,2.23543,0,0,0-1.98837,1.7583,7.31426,7.31426,0,0,0-.09515,1.52477c.00106,1.29756.00038,2.59512.00038,3.929H88.304c3.49962-5.6736,6.88481-11.323,9.87563-17.20433-.28443-.16407-.37733-.00277-.48653.20117q-.73046,1.36466-1.48448,2.71667c-.8953,1.60742-1.811,3.20369-2.68668,4.82164a.78249.78249,0,0,1-.8217.476c-.60337-.03043-1.208-.05134-1.812-.05157Q78.77034,9.60165,66.65244,9.605a3.096,3.096,0,0,0-.55719.01715c-.2286.04224-.19716.20042-.09986.39249,8.958.10351,17.92326.0133,26.87791.02281.06.19646-.05743.30107-.12537.414-1.503,2.50026-3.03239,4.98512-4.49961,7.50617a1.33635,1.33635,0,0,1-1.363.742Q51.23,18.67211,15.57463,18.68434h-.79851a2.11466,2.11466,0,0,1-.29623-1.29487c.008-2.3281.00286-4.65625.00423-6.98438.00051-.84834.00293-.85185.83807-.85211q6.25106-.002,12.50209-.00472a1.34866,1.34866,0,0,0,.828-.09856c-.00969-.06483-.01443-.12935-.02984-.19122-.02234-.08978-.0574-.17648-.07844-.26649-.27843-1.19143-.457-1.33232-1.70755-1.33359-1.23392-.00125-2.46783.00324-3.70172-.00326a1.26851,1.26851,0,0,1-.73661-.0857c-.16309-.203-.01675-.47884-.21994-.69986-.07742-.01226-.18822-.03818-.30022-.04567-.19654-.01315-.37958-.03494-.39284-.29077-.01289-.24852.1535-.29807.352-.34122.22577-.04906.44236-.13882.66684-.19553a1.09469,1.09469,0,0,0,.88456-.71335c.18089-.67581.64733-.75828,1.22676-.75561,2.16509.01,4.33029.00041,6.49545.00642a2.04666,2.04666,0,0,0,1.45058-.35339,1.217,1.217,0,0,1,.79817-.20517c1.46671.00235,2.93346.00443,4.40017-.00229a1.04048,1.04048,0,0,1,.774.25064,1.3583,1.3583,0,0,0,1.03216.31231c3.8647-.00776,7.7294-.00365,11.5941-.00743a1.06492,1.06492,0,0,0,.68764-.09966,2.03759,2.03759,0,0,0,.06551-.95169c-.01746-.43506.11224-.63242.588-.63041.46027.00194.62577.16795.60081.617-.01344.24164-.08751.51353.13741.75264,1.3143.11455,2.66-.0592,3.945.092.17519.36014.01692.6866.21134,1.01774a15.65535,15.65535,0,0,0,2.11182.038c.73624.00154,1.04433-.32941,1.07642-1.05972a4.15982,4.15982,0,0,1,.08645-1.36911c.82794-.05657,1.26949.461,1.01995,1.3567A8.58477,8.58477,0,0,0,61.473,6.42659a16.86641,16.86641,0,0,0-.32327,1.96754c-.37156.17581-.69726.01421-1.00658.19832a1.2759,1.2759,0,0,0,.0249.905h5.09135a2.2625,2.2625,0,0,0,.06991-.809q.00368-3.49219.00235-6.98439c.00072-.79268.00467-.79282.82194-.797.163-.00084.32593-.00017.48892-.00017q14.38783,0,28.7757-.00623A8.49176,8.49176,0,0,0,98.11727.74.842.842,0,0,1,98.667.75989a3.29341,3.29341,0,0,0,1.37521.1453Q238.47289.90783,376.90357.90693c.27937,0,.56.0178.83782-.00295.43743-.03266.56669.17511.55756.58289a4.79864,4.79864,0,0,0,.05133,1.29441h21.9441a1.17124,1.17124,0,0,0-.74525-.77862c-.234-.1107-.43821-.26052-.66042-.38423-.164-.09128-.31219-.21025-.26092-.44194.06251-.28254.28441-.26246.49363-.26785.11634-.003.23314-.00736.34915-.00083,1.89549.10671,3.78543-.04016,5.69727.20814,1.64526.21369,3.30533.413,4.93362.70415A28.78135,28.78135,0,0,1,415.72522,3.363a46.70236,46.70236,0,0,1,5.79456,2.61311,35.15223,35.15223,0,0,1,6.37617,4.65266,26.639,26.639,0,0,1,3.77435,4.26969c.97892,1.3777,1.87751,2.79654,2.71555,4.26148a19.38746,19.38746,0,0,0,1.18325,2.408,35.8905,35.8905,0,0,1,3.72818,6.1373c.70236,1.4118,1.39843,2.834,2.06325,4.268a5.20236,5.20236,0,0,0,1.32831,2.29946c.044.03284.02886.13561.05974.19644a47.04438,47.04438,0,0,1,1.91635,5.0175,55.10629,55.10629,0,0,1,1.86381,5.73317,1.24789,1.24789,0,0,1-.29246,1.38487.84279.84279,0,0,0-.1868.86827,27.0701,27.0701,0,0,1,.39111,2.73877c.08762,1.06372.02468,2.14023.01695,3.21111-.00158.21821.07284.47545-.2437.64827-.287-1.58966-.288-3.18935-.54837-4.77862a10.59855,10.59855,0,0,0-3.272.407.8815.8815,0,0,0-.54612,1.45706,2.55134,2.55134,0,0,0,.32139.36252,17.39585,17.39585,0,0,0,3.51671,2.62922.87214.87214,0,0,1,.46276.6356c.27048,1.70524,1.02016,3.32467.9152,5.09808-.00207.03492.052.07317.08.1101a1.9148,1.9148,0,0,0,.62092.05645c1.00493.081,2.05362-.23768,3.00809.33473a.37853.37853,0,0,0,.33329-.02242,3.41732,3.41732,0,0,1,2.03422-.30882c.19716-.0036.45495-.07574.54779.18207.09239.25656-.1559.35762-.30251.494-.10193.09482-.21986.17223-.32435.26454a.54808.54808,0,0,0-.1822.74318,3.13012,3.13012,0,0,1,.27408,1.96974,1.85848,1.85848,0,0,1-1.60121,1.70349.89458.89458,0,0,0-.89195.95562,1.40347,1.40347,0,0,1-.50845,1.00593,2.02707,2.02707,0,0,1-1.578.55413c-1.2279-.02948-2.457-.00876-3.729-.00876a13.94828,13.94828,0,0,1-1.02754,3.07036,2.01842,2.01842,0,0,1-1.36433,1.38462c-.5132.14083-1.01849.3166-1.51646.50536a2.36674,2.36674,0,0,0-1.693,1.7005,3.42517,3.42517,0,0,0,.34595,2.632.65722.65722,0,0,1,.05365.6884,1.91277,1.91277,0,0,1-.32257.05276q-5.72719.00523-11.45438.0046a.75523.75523,0,0,1-.58846-.16612,1.712,1.712,0,0,0-1.42458-.39488c-.53519.01233-1.07089.00026-1.60634.00335a5.71817,5.71817,0,0,0-2.0631.219,8.58448,8.58448,0,0,1-3.16511.34277c-1.93226-.01292-3.8647.0024-5.797-.006a6.61745,6.61745,0,0,0-3.31856.4958c-1.06114.56895-2.26567.79028-3.34739,1.32838a4.39723,4.39723,0,0,1-2.23537.6744,1.76182,1.76182,0,0,0-1.51469.45433.55231.55231,0,0,1-.23191.15059c-.59364.16012-.969.77506-1.64076.77356-1.79265-.004-3.58532-.00023-5.378-.00328a.957.957,0,0,1-.47706-.051,12.67533,12.67533,0,0,1-3.58719-2.65893,1.68949,1.68949,0,0,0-1.47454-.61634q-13.58461.02418-27.16925-.00056a1.77179,1.77179,0,0,0-1.41975.58883,7.98307,7.98307,0,0,1-2.43445,1.94532c-.54716.25758-.95846.79636-1.63033.79542-1.81594-.00254-3.63188-.0001-5.44782-.00257-.13839-.00019-.33323.03078-.406-.04491-.49768-.51751-1.22086-.63411-1.779-1.03345a9.25118,9.25118,0,0,1-3.24722-3.89487,13.32569,13.32569,0,0,1-.45422-1.31981c-.33687-.18264-.706.036-.97144-.21555-.15732-.38062.034-.79694-.15429-1.19285a1.72546,1.72546,0,0,0-.73908-.07166c-.51211-.00607-1.02435-.00637-1.5365-.004-.28421.00132-.408-.11822-.42807-.41653-.0553-.821-.13744-.886-.93187-.88589q-8.31143.00086-16.62286.00147c-.25413,0-.50827,0-.79409,0-.1086-5.32294-.02389-10.602-.05307-15.86055H432.43954a31.63924,31.63924,0,0,1-.21816,3.63247c-.09142,1.28674-.28216,2.56009-.48646,3.82645-.3993,2.475-1.02667,4.90453-1.67033,7.32713-.31488,1.18515-.32283,1.183-1.57539,1.18305h-3.05007l-.00043.14766h4.11713c.05282.52264-.34275.89416-.27522,1.38336.17283-.05879.21178-.16988.25929-.309.44886-1.31409.8583-2.639,1.192-3.98775a60.61721,60.61721,0,0,0,1.32442-6.572q.23535-1.77209.45038-3.54546a29.06692,29.06692,0,0,0,.24259-3.24438,49.60515,49.60515,0,0,0-.39556-6.005c-.20767-1.84606-.57747-3.65871-.87918-5.48526-.15161-.91786-.14553-.96264.75554-.96386q4.924-.00669,9.84793-.01a1.53284,1.53284,0,0,0,.69185-.05413.79536.79536,0,0,0-.13-.65432c-.7309-1.62237-1.494-3.22508-2.38308-4.77367a30.21485,30.21485,0,0,0-4.80893-6.52292,18.23011,18.23011,0,0,0-4.32973-3.35351,15.31174,15.31174,0,0,0-5.44937-1.72757.83564.83564,0,0,1-.673-.51022,63.87967,63.87967,0,0,0-4.10964-6.52292c-.348-.47131-.58277-1.04239-1.14384-1.33152Zm24.09614,28.27423c.15359-.32364-.02772-.55548-.19815-.79a2.31062,2.31062,0,0,0-.393-1.00052c.0577.359-.00225.76562.41161.98159A.73.73,0,0,0,443.86139,47.11186Zm.80574,12.927h1.54226a1.24672,1.24672,0,0,0,.08567-.61224c.02378-.34713-.126-.51518-.48845-.50963-.69826.0107-1.39683.00639-2.09523.00146-.39648-.00279-.54933.21828-.655.57613-.30407,1.02934-.44776,2.09086-.67428,3.13536-.21259.98027-.40217,1.96552-.60511,2.9479-.01829.08856-.0753.16992-.089.25853-.18087,1.17349.23681,1.55647,1.39664,1.25261a3.96617,3.96617,0,0,1,1.106-.054c.32022.00575.61929-.10066.66594-.37932.08627-.51525.42033-.46131.76816-.46147,1.25715-.00058,2.51436.002,3.7714-.011.21657-.00223.46074.09651.745-.18171-2.28761-.21027-4.49664.00792-6.825-.11627C443.67989,63.884,444.15979,61.99321,444.66713,60.03887ZM406.81426,77.381a1.1883,1.1883,0,0,0-1.02405.57354,3.67731,3.67731,0,0,1-1.02584,1.28994c-.14671.09225-.17765.25864-.12961.586,1.5286-.88484,3.22727-1.24094,4.74956-2.061C408.47772,77.81832,407.69081,77.30879,406.81426,77.381Zm-63.22859-5.343a.86429.86429,0,0,1,.87506.40551c.27949.41791.62436.34786.77926-.14029a1.79664,1.79664,0,0,1,.4995-.72893c.197-.19854.40192-.38889.33777-.70837a2.11319,2.11319,0,0,0-2.92861,1.05824A.51667.51667,0,0,0,343.58567,72.038Zm-223.98134.70656c-6.48825-.065-12.97777.133-19.46643-.07a.64427.64427,0,0,1-.5103-.15917c-.49768-.48977-.99587-.97934-1.482-1.48054a1.05474,1.05474,0,0,0-.86669-.36956c-1.023.08309-2.04723.01258-3.07038.04173-.19893.00567-.42828-.068-.57042.15487a1.45255,1.45255,0,0,0,1.73729,1.25933A4.32371,4.32371,0,0,1,97.136,72.11a1.027,1.027,0,0,1,.09894.5847c-.01582,1.58645.17635,1.33876-1.3083,1.35485-1.215.01316-1.36331.12474-1.55777,1.32389-.74824.06125-.92234.69194-1.16772,1.26392a8.85407,8.85407,0,0,1-3.82858,4.44782,4.70193,4.70193,0,0,1-2.77119.76552c-1.17928-.09665-2.37255-.0223-3.55974-.02218a3.26158,3.26158,0,0,1-1.68808-.38353,10.32508,10.32508,0,0,1-2.86637-2.1503,1.60553,1.60553,0,0,0-1.30857-.5131q-13.89694.019-27.79388-.00242a1.75573,1.75573,0,0,0-1.41985.587,9.26408,9.26408,0,0,1-2.12526,1.673,4.54816,4.54816,0,0,1-2.82422.813c-1.29582-.10009-2.60531-.01962-3.90883-.0256-.53455-.00246-1.12918.15093-1.44618-.50094-.02473-.05085-.11421-.07453-.17755-.10168a8.93314,8.93314,0,0,1-3.896-3.64441c-.51845-.80217-.59375-1.78841-1.051-2.60723-.246-.08767-.41464.27883-.66915.07329-.14883-.28074.04069-.64167-.19057-.965-.84943-.09515-1.73381.05341-2.5578-.07965a2.1236,2.1236,0,0,1-.11473-.82839c-.03393-.2506-.17625-.54311-.41682-.44748-.51112.2032-.95921-.04159-1.4324-.07468-.74207-.05189-.91535-.25082-.93367-1.01283-.01235-.51182-.01091-1.02434-.00051-1.53624.01211-.59448.11108-.67176.70466-.59648.68924.08741.89574-.03013,1.15316-.66007-.35806-.25425-.67079.028-.98114.11281a7.81368,7.81368,0,0,1-2.18307-.12365q-4.74871.00567-9.49742-.00314c-.24408-.00054-.51043.08732-.71417-.07859V56.89348H119.94707V72.70842C119.78436,72.7262,119.69426,72.74544,119.60433,72.74453ZM32.47589,71.598a.23764.23764,0,0,0,.09058-.35679.49444.49444,0,0,0-.46279-.24714,1.2556,1.2556,0,0,0-1.00832,1.08449A5.43887,5.43887,0,0,0,32.47589,71.598Zm261.229,1.1124V56.88129h-7.00568c-.18972.492-.02537,1.03073-.16762,1.55177a2.47033,2.47033,0,0,1-2.42923,2.02348q-5.65668.02417-11.31353-.00082a2.45577,2.45577,0,0,1-2.50879-2.553c-.00211-.32294-.00031-.64591-.00031-1.0157h-7.30951a1.491,1.491,0,0,0-.06971.85144,2.54886,2.54886,0,0,1-2.71512,2.7284c-5.63347-.01205-11.26718-.0292-16.90041.01057a2.69493,2.69493,0,0,1-2.898-2.86723c-.00278-.22874-.00038-.45754-.00038-.72847h-7.28683a1.56485,1.56485,0,0,0-.07141.95678c.22047,1.49262-1.39289,2.66093-2.66736,2.6426-3.67732-.0529-7.35588-.01872-11.034-.01869-2.02527,0-4.051-.027-6.07565.01a2.55124,2.55124,0,0,1-2.64886-2.64425c.02631-.29663.00373-.5976.00373-.94152h-7.30939a10.1562,10.1562,0,0,0-.155,1.553,2.54622,2.54622,0,0,1-2.5753,2.03155c-5.02823-.00587-10.05647.00288-15.08463-.017a11.39491,11.39491,0,0,1-2.84282-.10769,2.36169,2.36169,0,0,1-1.89976-2.38371c-.00416-.34514-.00063-.69038-.00063-1.079h-7.31652a1.9046,1.9046,0,0,0-.06319.93461,2.51534,2.51534,0,0,1-2.656,2.6441c-3.65479.00055-7.30961-.00654-10.96437.00322a2.647,2.647,0,0,1-2.74657-2.67072,2.57375,2.57375,0,0,0-.07407-.92059h-6.85743V72.71041Zm-193.24779.61126c1.47012,1.46772,2.89949,2.89869,4.33486,4.32355a1.179,1.179,0,0,0,.83282.30612c.23262.00633.46552.00358.69831.00358q114.77853.00017,229.55707.0152a2.65978,2.65978,0,0,0,2.14955-.88288c1.02525-1.11111,2.13221-2.14662,3.1967-3.22193.17157-.17333.41812-.302.45918-.66447H323.38954a1.54411,1.54411,0,0,0,.22053-1.20546,1.386,1.386,0,0,0-.7917-.07568q-14.0025-.007-28.005-.00379c-.9278,0-1.01415.13611-.6608,1.03177.03939.09981.06966.20323.13244.38845a3.168,3.168,0,0,0-1.72754-.20648q-31.04292-.00473-62.08586-.00264H173.62337q-11.48544,0-22.97089-.00047a1.40377,1.40377,0,0,0-1.20568.374,1.541,1.541,0,0,1-1.1714.32528q-13.2692-.00115-26.53837-.00224a1.72009,1.72009,0,0,1-1.39281-.48769c-.25957-.29317-.59982-.20521-.91429-.20552q-7.333-.0071-14.666-.0033c-1.164,0-2.32791-.00257-3.49188.00263A1.09683,1.09683,0,0,0,100.45715,73.32167ZM14.22394,19.67214l.15043-.14778a.64327.64327,0,0,0,.05423-.65785,2.68406,2.68406,0,0,1-1.60811.25114c-.85714-.02616-1.71049.00841-2.56541.00846-2.55064.00015-5.10128-.05475-7.652-.08185-.29609-.00315-.59263.0332-.914.05275v49.5782a3.2622,3.2622,0,0,0,2.10074.28673c.97346-.00541,1.94574.02048,2.91879.03028,2.08717.021,4.17453.02946,6.2618.037.83285.003.83882-.00419.83889-.79335q.00194-24.08585.00068-48.17171a1.1645,1.1645,0,0,0-.10105-.6518C13.993,19.36913,14.04257,19.63482,14.22394,19.67214ZM134.639,34.84031q.00169,17.97944.00307,35.95888c0,.79849-.00211.80035-.80854.80048q-6.28411.001-12.56818.00045c-.83255.00005-.83326.00072-.83476-.84177-.0089-4.98048-.03376-9.961-.02217-14.94143.01552-6.69284-.063-13.38585.06545-20.07882a1.48193,1.48193,0,0,1,1.69753-1.672q5.96991-.01049,11.93978-.00148c.13751.00005.275.01719.52786.03407ZM132.3815,39.855a1.15037,1.15037,0,0,0-.19122-.8601c-.21383-.23684-.42487-.44792-.771-.23237a.1554.1554,0,0,1-.0664.02058,35.87952,35.87952,0,0,1-6.81473-.01193c-.60313-.06166-.97728.11127-1.03533.72494-.01528.16156-.0046.32564-.0046.48856-.00014,6.26116.02213,12.52248-.02268,18.78333a1.54454,1.54454,0,0,0,1.70227,1.6845c1.8586-.08015,3.72317-.02129,5.58521-.02251,1.16949-.00077,1.61841-.459,1.61868-1.65187q.001-4.71333.0002-9.42665Q132.38189,44.60323,132.3815,39.855ZM308.37776,71.55834H294.31342c0-.28432,0-.515,0-.74568q.0001-17.59616.00022-35.19231a3.6103,3.6103,0,0,1,.00346-.41866,1.03071,1.03071,0,0,1,.582-.87237,2.445,2.445,0,0,1,1.12838-.27087c2.4206.00977,4.84125.00486,7.26189.00486h5.08845ZM306.156,39.96585a3.78154,3.78154,0,0,0-.0098-.55791.7201.7201,0,0,0-.97935-.6351,3.64857,3.64857,0,0,1-1.0324.13564q-2.4439-.0106-4.88787,0a3.47761,3.47761,0,0,1-.96332-.1299.72646.72646,0,0,0-.998.60749,3.38285,3.38285,0,0,0-.01248.55762c-.00043,6.28444.02152,12.569-.02309,18.85315a1.5426,1.5426,0,0,0,1.66143,1.65617c1.92874-.078,3.86286-.01934,5.79473-.02427a1.318,1.318,0,0,0,1.44908-1.46994q.00494-4.81807.00126-9.63614Q306.15632,44.64426,306.156,39.96585Zm-156.99977,31.639c-4.39877-.00022-8.79754-.00729-13.19631.00147-.45065.0009-.613-.14253-.60756-.60643.01865-1.58226-.0059-3.165-.00525-4.74752.00317-7.9365.03226-15.87309.0013-23.80945-.0105-2.69524.19634-5.38411.14133-8.07851a.28333.28333,0,0,1,.119-.2756,1.97507,1.97507,0,0,1,.23252-.02314q6.03973-.00255,12.07947.00078a1.57607,1.57607,0,0,1,1.679,1.74531q-.02911,17.4907-.01047,34.98148c0,.23042,0,.46086,0,.758A4.21576,4.21576,0,0,1,149.15627,71.60488ZM137.47353,55.55549c-.01927,1.04684-.01061,2.09428-.00512,3.14144a1.7036,1.7036,0,0,0,1.6978,1.73129q2.89722.00982,5.79448-.00052a1.6972,1.6972,0,0,0,1.66752-1.69042q.00568-9.35489.0102-18.70976a1.52911,1.52911,0,0,0-.479-1.11034.61623.61623,0,0,0-.80591-.18386,2.29914,2.29914,0,0,1-1.09034.1743c-1.51261-.00544-3.0252-.00287-4.53781-.00176a2.4657,2.4657,0,0,1-.82382-.10824,1.06533,1.06533,0,0,0-1.4264.92048,4.34594,4.34594,0,0,0-.00781.558q-.00046,6.21331.00061,12.42662ZM309.29084,34.06323h2.51457q4.92185,0,9.84369-.00154a1.51862,1.51862,0,0,1,1.72714,1.72867q-.03186,17.48819-.017,34.97648c-.00012.26627.09044.55466-.11112.82248H309.29084Zm11.11306,6.07841c-.00078-1.08509-.36464-1.33055-1.45454-1.27338-1.43941.07551-2.88532.04513-4.32816.03112a5.59857,5.59857,0,0,1-2.27324-.21312c-.38234-.16442-1.02893.47947-1.09834,1.029a4.48069,4.48069,0,0,0-.008.55824q-.00038,6.146.00189,12.29209a3.85329,3.85329,0,0,1-.16525,1.3069.60247.60247,0,0,0-.06633.33057c.46576,1.4368.15488,2.91242.21994,4.36782a1.752,1.752,0,0,0,1.86271,1.8589q2.79366.00285,5.58731-.00119a1.69935,1.69935,0,0,0,1.7208-1.70918q.00732-4.67936.00181-9.35874Q320.40473,44.75117,320.40391,40.14164ZM87.76544,18.87217H14.68861v1.54008a1.09271,1.09271,0,0,0,.68818.085c3.073.00515,6.14653.043,9.21882-.00289,20.1983-.30142,40.39759-.04379,60.5962-.1222A3.14375,3.14375,0,0,0,87.76544,18.87217Zm331.99981-.03454q-31.74278-.002-63.48557-.00173a.60766.60766,0,0,0-.44829.08508,2.81724,2.81724,0,0,0,1.99612,1.01868,2.93865,2.93865,0,0,0,.349.00227q30.765.002,61.53.00389c.209,0,.418,0,.62848,0-.00255-.49633-.57222-.66736-.59274-1.13111ZM120.15593,71.95722c-.047,1.13805.40713,1.62888,1.47742,1.629q13.362.00113,26.724,0c1.08171-.00009,1.54614-.50071,1.47885-1.629Zm57.64934-59.70928.63208.53973C178.37192,12.34762,178.025,12.37293,177.80527,12.24794ZM14.70921,69.17915c.0029.15285.108.23.21936.3042C15.04315,69.18732,15.04315,69.18732,14.70921,69.17915Z"/><text class="cls-2" transform="translate(35.50195 53.0537)">S12</text></g></svg>