<?xml version="1.0" encoding="UTF-8" standalone="no"?>
<svg
   xmlns:dc="http://purl.org/dc/elements/1.1/"
   xmlns:cc="http://creativecommons.org/ns#"
   xmlns:rdf="http://www.w3.org/1999/02/22-rdf-syntax-ns#"
   xmlns:svg="http://www.w3.org/2000/svg"
   xmlns="http://www.w3.org/2000/svg"
   xmlns:sodipodi="http://sodipodi.sourceforge.net/DTD/sodipodi-0.dtd"
   xmlns:inkscape="http://www.inkscape.org/namespaces/inkscape"
   height="20px"
   version="1.1"
   viewBox="0 0 20 20"
   width="20px"
   id="svg12"
   sodipodi:docname="settings.svg"
   inkscape:version="0.92.1 r15371">
  <metadata
     id="metadata16">
    <rdf:RDF>
      <cc:Work
         rdf:about="">
        <dc:format>image/svg+xml</dc:format>
        <dc:type
           rdf:resource="http://purl.org/dc/dcmitype/StillImage" />
      </cc:Work>
    </rdf:RDF>
  </metadata>
  <sodipodi:namedview
     pagecolor="#ffffff"
     bordercolor="#666666"
     borderopacity="1"
     objecttolerance="10"
     gridtolerance="10"
     guidetolerance="10"
     inkscape:pageopacity="0"
     inkscape:pageshadow="2"
     inkscape:window-width="1920"
     inkscape:window-height="1137"
     id="namedview14"
     showgrid="false"
     inkscape:zoom="11.8"
     inkscape:cx="10"
     inkscape:cy="10"
     inkscape:window-x="-8"
     inkscape:window-y="-8"
     inkscape:window-maximized="1"
     inkscape:current-layer="Page-1" />
  <title
     id="title2" />
  <desc
     id="desc4" />
  <defs
     id="defs6" />
  <g
     id="Page-1"
     stroke-width="1"
     stroke="none"
     fill-rule="evenodd"
     fill="none">
    <path
       style="fill:#ffffff"
       d="m 17.400001,11.084746 c 0,-0.3 0.1,-0.6 0.1,-1 0,-0.3999998 0,-0.6999998 -0.1,-0.9999998 l 2.1,-1.7000005 c 0.2,-0.2 0.2,-0.4 0.1,-0.6 l -2,-3.5 c -0.1,-0.1 -0.3,-0.2 -0.6,-0.1 l -2.5,1 c -0.5,-0.4 -1.1,-0.7 -1.7,-1 l -0.4,-2.60000001 c 0.1,-0.3 -0.2,-0.5 -0.4,-0.5 H 8.0000006 c -0.2,0 -0.5,0.2 -0.5,0.4 l -0.4,2.70000001 c -0.6,0.2 -1.1,0.6 -1.7,1 l -2.4,-1 c -0.3,-0.1 -0.5,0 -0.7,0.2 l -2.00000001,3.5 c -0.1,0.1 0,0.4 0.2,0.6 L 2.6000006,9.0847462 c 0,0.3 -0.1,0.6 -0.1,0.9999998 0,0.4 0,0.7 0.1,1 l -2.10000001,1.7 c -0.2,0.199999 -0.2,0.4 -0.1,0.599999 l 2.00000001,3.5 c 0.1,0.1 0.3,0.2 0.6,0.1 l 2.5,-1 c 0.5,0.4 1.1,0.7 1.7,1 l 0.4,2.6 c 0,0.2 0.2,0.4 0.5,0.4 h 4.0000004 c 0.2,0 0.5,-0.2 0.5,-0.4 l 0.4,-2.6 c 0.6,-0.3 1.2,-0.6 1.7,-1 l 2.5,1 c 0.2,0.1 0.5,0 0.6,-0.2 l 2,-3.499999 c 0.1,-0.2 0.1,-0.5 -0.1,-0.6 z m -7.4,2.5 c -1.9000004,0 -3.5000004,-1.6 -3.5000004,-3.5 0,-1.8999998 1.6,-3.5000003 3.5000004,-3.5000003 1.9,0 3.5,1.6000005 3.5,3.5000003 0,1.9 -1.6,3.5 -3.5,3.5 z"
       id="Shape"
       inkscape:connector-curvature="0" />
  </g>
</svg>
