<svg id="vehicles" xmlns="http://www.w3.org/2000/svg" viewBox="0 0 434.34 134.68"><defs><style>.cls-1{font-size:42px;fill:none;stroke:#fff;stroke-miterlimit:10;font-family:MyriadPro-Regular, Myriad Pro;}</style></defs><title>ship</title><g id="ship"><g class="vehicle-shape"><path d="M70.61,121.12a1,1,0,0,1-1.07,1.27c-.74,0-1.25-.27-1.26-1.09A1.22,1.22,0,0,1,69.4,120C70,119.92,70.69,120.2,70.61,121.12Z"/><path d="M61,121c-.11.49,0,1.15-.92,1.2s-1.05-.71-1.16-1.35.46-1,1-1.06C60.77,119.68,61,120.25,61,121Z"/><path d="M123.35,121.79c.07.72-.23,1.09-1,1.07-.65,0-1.26,0-1.3-.88s.55-1.16,1.33-1.22S123.37,121.07,123.35,121.79Z"/><path d="M23.59,119.14c.91.13,1,.84,1,1.46a.83.83,0,0,1-1,.89c-.62-.1-1.25-.32-1.2-1.09A1.34,1.34,0,0,1,23.59,119.14Z"/><path d="M142.85,122c0-.57.48-.85,1.14-.81a1.14,1.14,0,0,1-.17,2.28C143.09,123.38,142.79,122.9,142.85,122Z"/><path d="M51.55,120.49c0,1-.3,1.5-1,1.51a1.12,1.12,0,0,1-1.16-1.15c0-.71.55-1.11,1.3-1.14S51.54,120.21,51.55,120.49Z"/><path d="M41.92,120.66c0,.71-.1,1.25-.94,1.21a1.25,1.25,0,0,1-1.29-1.18,1.05,1.05,0,0,1,1.13-1.13A1,1,0,0,1,41.92,120.66Z"/><path d="M83.67,121.31c0-.79.36-1.25,1-1.27s1,.51,1.05,1.22-.21,1.1-1,1.08S83.62,122.06,83.67,121.31Z"/><path d="M31.56,119.35a1.15,1.15,0,0,1,1.16,1.3c0,.58-.25,1.12-1,1s-1.18-.36-1.12-1.11A1.29,1.29,0,0,1,31.56,119.35Z"/><path d="M110.55,121.71c-.06-.84.26-1.38,1-1.36s1.22.28,1.12,1.1-.23,1.42-1.12,1.36C110.88,122.76,110.35,122.4,110.55,121.71Z"/><path d="M133.62,120.93c.78-.23.87.31.87.77a1.23,1.23,0,0,1-1.35,1.33c-.9,0-.79-.79-.81-1.17C132.27,121,132.95,120.85,133.62,120.93Z"/><path d="M100.91,120.14a1.36,1.36,0,0,1,.85,1.38,1,1,0,0,1-1,1.06,1.08,1.08,0,0,1-1.1-1.16C99.64,120.66,100.19,120.33,100.91,120.14Z"/><path d="M96.19,121.33c0,.66,0,1.22-.84,1.19a1.11,1.11,0,0,1-1.23-1.18c0-.78.44-.89,1.08-.91S96.29,120.63,96.19,121.33Z"/><path d="M365.62,121.36c0,.68-.18,1.27-1.09,1.24s-1-.67-1-1.34.52-1,1.2-1S365.72,120.64,365.62,121.36Z"/><path d="M413.65,120.78c.16.65-.11,1.08-.84,1s-1.31-.14-1.25-1.11c.05-.79.42-1.25,1.18-1.26S413.7,120,413.65,120.78Z"/><path d="M354.92,121.21c0,.79-.27,1.28-1,1.28a1.06,1.06,0,0,1-1.2-1.07,1.16,1.16,0,0,1,1.15-1.3A1,1,0,0,1,354.92,121.21Z"/><path d="M397.73,120.83c.05.64,0,1.22-.78,1.23a1.19,1.19,0,0,1-1.26-1.19,1,1,0,0,1,1.08-1.18A.87.87,0,0,1,397.73,120.83Z"/><path d="M404.81,119.71a1.12,1.12,0,0,1,1,1.27,1,1,0,0,1-1.07,1c-.74,0-1-.6-1-1.27S404.24,119.84,404.81,119.71Z"/><path d="M344.26,122.47a8.66,8.66,0,0,1-1.29,0,.91.91,0,0,1-.81-1.12,1.11,1.11,0,0,1,1.15-1,.83.83,0,0,1,.93,1c0,.39,0,.78,0,1.17Z"/><path d="M333.51,121.52a1,1,0,0,1-1,1.23c-.73,0-1.09-.45-1.06-1.17s.35-1.18,1.1-1.15A.87.87,0,0,1,333.51,121.52Z"/><path d="M434.14,132.62a40.6,40.6,0,0,1-1.24-4.3,83.33,83.33,0,0,1-2.49-15c-.3-3.08-.6-6.18-.68-9.29,0-1.82-.77-2.46-2.6-2.54-.5,0-.86-.08-.8-.7s-.37-.75-.83-.68c-1.7.26-3.37-.4-5.05-.14a3.81,3.81,0,0,1-3.66-1.34c-.58-.67-1.19-1.34-2-.89-.68.36-.19,1.27-.27,1.92-.51.17-1.07.36-1.19-.44s-.45-.85-1.06-.86a1.14,1.14,0,0,0-1.27.8,8.76,8.76,0,0,0-.39,2.51c-.36-.7-.75-1-1-1.49q-1.31-2.93-2.74-5.81c-1.72-3.45-3.55-6.84-5.19-10.32-3.12-6.63-6.49-13.13-10.16-19.47-1.21-2.09-2.23-4.32-3.32-6.5-2.18-4.34-4.35-8.68-6.35-13.11-1.39-3.08-3-6.05-4.41-9.1-1.3-2.77-2.95-5.37-4.21-8.15-1.13-2.48-2.95-4.56-3.67-7.31a27.29,27.29,0,0,0-2.1-4.4c-1.45-3-3.83-5.66-3.73-9.3,0-1.63-.15-3.27-.06-4.87.1-1.85.18-2-1.66-1.79-1,.11-.82,1-.51,1.15,1.09.58.63,1.45.68,2.25a23.35,23.35,0,0,1-1.3,9c-.6,1.77-1.21,3.54-1.76,5.32-2.45,7.91-4.78,15.86-7.11,23.81a2.51,2.51,0,0,1-2.06,2c-1.33.33-2.69.54-4,.94-2.25.68-4.53,1.27-6.8,1.87a1.84,1.84,0,0,1-1.78-.4c-2.9-2.39-5.86-4.72-8.79-7.08-.63-.51-1.47-.81-2-.22a1.43,1.43,0,0,0,.34,2.05c2.26,2,4.42,4.07,6.69,6,4.14,3.57,8.33,7.09,12.75,10.32.36.27,1,.47.57,1.2s.14,2.11-1.27,2.41c-3.4.73-6.81,1.43-10.2,2.23-4.92,1.16-9.81,2.44-14.74,3.56-1.17.27-1.31.9-1.28,1.85,0,.79.44,1.1,1.06,1.58,3.19,2.48,6.31,5,9.56,7.43,2.32,1.71,4.45,3.68,6.82,5.32s2.4,1.48,1.6,4.18c-1,3.4-2.06,6.78-3,10.19a1.37,1.37,0,0,1-1.57,1.15c-3.52,0-7,0-10.57,0-7.73,0-15.46-.08-23.2-.06-.87,0-1-.3-1-1,.05-2,0-3.91.06-5.87,0-2.29-.61-2.94-2.87-2.93-1.26,0-2.52,0-3.79,0-.41,0-1,.24-1.2-.2a1.44,1.44,0,0,1,.15-1.61c.85-.76.6-1.72.46-2.55a7.59,7.59,0,0,1,0-2.93c.35-1.63-.07-1.93-1.71-1.43a3.23,3.23,0,0,1-.89.13c-2.35,0-4.7,0-7,.08-1,0-1.18-.37-.94-1.23.47-1.64,1-3.27,1.36-4.92.15-.61.35-1.44-.15-1.85a1.49,1.49,0,0,0-1.69.22c-.19.13-.5.09-.76.13a4.22,4.22,0,0,0-3.35,3.06,7.94,7.94,0,0,0-.25,3.34c.2,1.12-.12,1.76-1.42,1.55-.77-.12-1.55-.16-2.33-.22-1.16-.09-2.56-.6-3.43-.14-1.1.59-.16,2.12-.35,3.23s-.51,2.23.2,3.37c.27.44,0,1.08-.82,1.1-1.69,0-3.38.11-5.07.22-.77,0-1.14-.17-1-1a45.71,45.71,0,0,0-.11-4.75c0-4.44.22-8.88,0-13.32a71,71,0,0,1,.16-10.39c.1-1-.27-1.28-1.25-1.27-3.26.05-6.51,0-9.77,0-2.86,0-2.9-.57-2.84,2.89,0,.57,0,1.13,0,1.7.07,3.74-.17,7.47-.1,11.2,0,2.1,0,4.23.23,6.34.11,1.18-.16,1.77-1.6,1.79a18.93,18.93,0,0,0-8,1.6,33.19,33.19,0,0,0-4.38,2.68c0-.53,0-.87,0-1.21,0-.93-.7-1.35-1.4-.74-1.31,1.15-3.24,1.44-4.14,3.18-.1-4.62-.31-9.15-.08-13.7.25-4.95,0-9.92,0-14.88,0-.63-.16-.91-.86-1-3.6-.31-7.21.08-10.81-.11-1.53-.08-1.94.66-1.93,1.88s.22,2.23.26,3.35c.12,4-.1,8.08-.13,12.11,0,4.25,0,8.5-.2,12.75,0,.27.14.67-.31.74a5.76,5.76,0,0,1-2.42.23c-.73-.24-2-.24-2.1-1.11-.17-1.94-.79-3.86-.43-5.86.16-.89.28-2-1.27-1.6a1.92,1.92,0,0,1-.75-.1c-1.54-.31-2.13.15-1.56,1.54.8,2,.45,4.11,1,6.1.06.2,0,.57-.17.55-1-.1-1.62.84-2.7.86a44.07,44.07,0,0,1-5.5-.4c-2-.22-4,.23-5.88-1.73-2.7-2.88-6.06-5.14-9.16-7.64-5.39-4.35-10.77-8.73-16-13.32A4.06,4.06,0,0,0,165.2,64c-.06-.89-.77-1.36-1.35-1.85q-6-5.16-12-10.24c-3.67-3.11-7.39-6.16-11.08-9.25-5.69-4.76-11.37-9.55-17.08-14.3-5-4.15-10-8.28-14.88-12.58-2.56-2.26-5.18-4.45-7.79-6.64a1.6,1.6,0,0,1-.65-1.45,46.63,46.63,0,0,1,.39-6.08C101.09.12,99.91.51,99.25.33a.64.64,0,0,0-.79.85c.92,1.83,0,3.67.15,5.49A9.75,9.75,0,0,1,98,11c-.43,1.18-.93,2.36-1.31,3.56-.61,1.91-1.14,3.84-1.77,5.74-2.21,6.65-4.45,13.29-6.66,19.93-.46,1.37-1,2.45-2.79,2.5-3.62.1-7.17,1-10.77,1.22-.91.07-1.94.64-2.72.09-2.4-1.69-4.72-3.5-7-5.33-.58-.46-1.11-.73-1.74-.42s-.34,1-.36,1.53a1.14,1.14,0,0,0,.56.93,26.86,26.86,0,0,1,2.77,2.55,42.68,42.68,0,0,0,4.6,4c3.73,3.06,7.55,6,11.36,9a.94.94,0,0,1,.43,1.09q-.29,1-.63,2.08-2.09,6.34-4.19,12.68c-1.26,3.77-2.54,7.54-3.8,11.31q-1.43,4.27-2.83,8.54a71.35,71.35,0,0,1-3.25,9.3.89.89,0,0,1-1,.61c-.62,0-.56-.44-.54-.82,0-.62-.23-.86-.85-.83s-1,0-.93.73-.41,1-1,1a18.83,18.83,0,0,1-3.91,0c2.62-1.81,2.74-4.36,2.73-6.94,0-1.32-.57-1.6-1.82-1-.39.18-.55.56-.86.74-.5.28-1.41.67-1.49-.1-.14-1.28-.46-2.64.23-3.93a1.66,1.66,0,0,0,0-1.84,1.37,1.37,0,0,0-1.78,0,2.64,2.64,0,0,1-.72.28c-4,.94-7,3-8.26,7a1.16,1.16,0,0,1-1.3.92q-3.91,0-7.82,0a2.53,2.53,0,0,1-1.71-.44A1.37,1.37,0,0,0,35,96.51c-.35.18-1.11.3-1.17.19-.51-1-1.52-.58-2.23-.92-.38-.18-1.13.06-1.11-.62,0-1.68-.38-3.39.24-5,.24-.64.44-1.3-.1-1.81a1.55,1.55,0,0,0-1.92-.06c-1.15.62-2.57.47-3.65,1.37a10.5,10.5,0,0,0-.15-4.85c-.19-.82-1.11-1.34-1.56-.72-.73,1-1.51.81-2.47.61-.54-.11-1.53-.42-1.51.61a39.34,39.34,0,0,1-.75,6.66,34.71,34.71,0,0,0,.08,6A1.51,1.51,0,0,1,17,99.76a26.48,26.48,0,0,0-4,.08,3,3,0,0,1-3.42-1.68A8,8,0,0,0,8.14,96.5a8.83,8.83,0,0,1-2.51-4.4C4.6,87.69,3.09,83.4,2.17,79c-.07-.33-.26-.4-.52-.47-1.3-.32-1.93.42-1.52,1.88.36,1.28.84,2.53,1.19,3.81,1.62,6.09,3.19,12.19,4.82,18.28a15.33,15.33,0,0,1,.11,9,24,24,0,0,0-1.59,6.49c-.09,2.63-.78,5.25-1,7.92a51.12,51.12,0,0,0,.42,8.11c.05.58.42.57.82.58,1.52.05,3,.15,4.55.14,14.21-.06,28.43-.25,42.64-.08,9.95.12,19.9-.11,29.85,0,11,.15,21.91-.12,32.87,0,11.61.15,23.21-.14,34.82,0,10.91.13,21.82-.09,32.74,0,12.52.12,25-.18,37.57,0,10.95.14,21.9,0,32.85,0,14.33.06,28.66-.06,43,0,14,0,28-.08,41.95-.1,14.65,0,29.3,0,43.95,0,16.53-.05,33.06-.18,49.59-.27a9.19,9.19,0,0,1,1.29.1C434.07,134.54,434.69,134,434.14,132.62Zm-5.83-27.32c-.94.57-1.94.29-2.92.39l0-.36ZM421.4,105c.26,0,.55-.08.6.29s-.23.43-.5.41c-.7-.05-1.47.26-2.25-.58Zm-5.18,9.34c.27-2.08.85-4.09,1.25-6.14.12-.62.31-.83.88-.78,3.11.29,6.23.08,9.34.09.57,0,.73.2.75.75.11,2.32.21,4.64.54,6.94,0,.28.23.76-.29.85s-.36-.33-.44-.6c-.27-.85.09-2-.94-2.52a5,5,0,0,0-4.27-.35,5.85,5.85,0,0,1-2.85.13c-2.61-.11-3.17.26-3.43,2.81-.07.64-.36.68-.83.66-.69,0-1.39-.05-2.08-.06s-1.3,0-2,0v0a13,13,0,0,1,2.44-.1C415.72,116.23,416.08,115.38,416.22,114.35Zm-2-9.16c-.92.77-1.1.77-1.94.15C412.85,104.88,413.42,105.18,414.18,105.19Zm-4.94,8c.62-.12,1.58.32,1.83-.27a5.81,5.81,0,0,0,.39-3.3c-.37-1.9-.39-1.89,1.49-2a5.09,5.09,0,0,1,2.66.16c-.41,1.89-.85,3.77-1.21,5.66-.09.47-.17.75-.69.66L409,113.3A1.58,1.58,0,0,1,409.25,113.17ZM364.12,21.26l-.06-8.21c.4.11.5.66.68,1.09a47,47,0,0,0,3.38,6.75c1,1.58,1.78,3.21,2.62,4.83,1.45,2.79,2.81,5.62,4.21,8.44,1.51,3.06,3,6.1,4.53,9.17,2.16,4.44,4.19,8.94,6.47,13.32,1.3,2.49,2.57,5,3.61,7.58,2.08,5.16,5.11,9.8,7.46,14.8,3,6.39,6.46,12.55,9.32,19a25.31,25.31,0,0,1,1.46,3.16C393.87,86.31,380,71.72,366,57.2c.79-.51,1.42-.35,2-.61a2.08,2.08,0,0,0,1.36-2.48c-.1-.56,0-1.11-.1-1.64-.22-1.53.46-1.9,1.8-1.69a6.53,6.53,0,0,0,.91,0c.53,0,1-.11.93-.77-.06-.46-.27-.89-.92-.85-.91.05-1.84-.07-2.74.05-1.32.17-2.55-.3-3.84-.36-.83,0-1.12-.76-1.12-1.67C364.26,38.54,364.18,29.9,364.12,21.26Zm26,91.45c0,.68-.19,1.08-1,1.07,0-1.78,0-3.56,0-5.33,0-.35,0-.72.52-.67s.72.35.63.79A21.63,21.63,0,0,0,390.1,112.72ZM390,100.66c0,.74-.08,1.12-1,1.22-1.17.14-.64-.68-.76-1.08-1.53-5-4.37-8.77-9.69-10.24a10.36,10.36,0,0,0-3.13-.43c-1.18,0-2,1.35-1.12,2.12,1.4,1.25.56,2.62.65,3.93,0,.68-.21,1.39-.12,2.06.17,1.39-.49,1.85-1.58,2.72-2.16,1.71-4.4.38-6.49,1-.71.2-1-.28-1-1-.18-3-.34-6-.6-8.92-.43-4.84-.93-9.68-1.39-14.52-.3-3.17-.44-6.37-.91-9.51a39.54,39.54,0,0,1-.51-7.37c0-1.07-.1-2.37,1.6-2.55a.94.94,0,0,1,1,.33c3.58,4,7.13,8,10.77,12,3.13,3.39,6.37,6.68,9.56,10,1.31,1.38,2.58,2.8,3.91,4.18,2.77,2.87,5.58,5.7,8.34,8.58,2.11,2.2,4.15,4.46,6.43,6.91-1.68-.05-3.05-.13-4.39-.09a5.36,5.36,0,0,1-3.61-1.48c-1.15-.86-1.79-.66-2,.7-.1.64-1,.24-.91.94-.22-1-.55-1.81-1.76-1.52C390.22,98.9,390,99.79,390,100.66Zm-10.43-6.53a11.86,11.86,0,0,1,5.66,7.48c-2.12.64-2.22-1.79-3.51-2.33-.71,1.09.62,1.61.66,2.56l-2.91,0a1.26,1.26,0,0,1-.48-.08c-.05-1.07-1-1-1.63-1.19-1-.33-.87-1.15-.91-1.88a14.72,14.72,0,0,1,.1-1.76c.94.26,1.61.72,2.37-.18.44-.53.62.7,1.29.59C380.71,96.18,379.23,95.35,379.59,94.12Zm1,13.51v.23l-2.31,0c-.54,0-.88.31-.68.83.38,1,.09,2,.29,3,1.05-.06,2.35.55,3.08-.14s.2-2,.2-3c0-.76.26-1,1-.94,1.43.06,2.87.07,4.3.06.73,0,1,.32,1,1,0,1.69,0,3.38,0,5.07,0,.73-.25.86-.93.78-1.43-.15-2.85,0-4.28-.61-.79-.34-1.94,0-2.91.21-2,.38-3.95-.1-5.92,0-.57,0-.78-.32-.81-.8-.11-1.6-.2-3.2-.31-4.8,0-.54,0-.9.73-.9C375.58,107.69,378.08,107.65,380.58,107.63Zm-11.64,1.57c0-.7.13-1,.91-1s1.17,0,1.17.92a11.69,11.69,0,0,1-.31,3.33c-.18.62-1.22.75-1.16,1.68-.73-.33-.49-.91-.52-1.31C368.94,111.62,369,110.41,368.94,109.2Zm.25-3.47c.92-.65,1.82-.25,3-.47A2.57,2.57,0,0,1,369.19,105.73Zm-6.68-20.6c0-.42,0-.84,0-1.26a41.27,41.27,0,0,1,.8,6.49c.25,3.09.56,6.17.83,9.26,0,.52,0,1,0,1.56s-.15.72-.66.71-.63-.21-.6-.64c0-.13,0-.26,0-.39C363,95.61,362.5,90.38,362.51,85.13Zm-2.8,9.61c0-2.64-.16-5.29,0-7.93.16-3.32.21-6.63.38-10,0,2.66.08,5.33,0,8-.06,4.64.27,9.26.36,13.89,0,.69.05,1.39,0,2.08,0,.32.27.91-.4.87s-.32-.53-.32-.83C359.73,98.82,359.72,96.78,359.71,94.74Zm-3-39.15,5.66,0c.32,0,.73-.13.8.41s-.28.47-.61.63C360.47,57.61,358.63,57,356.73,55.59Zm.57,45c.05,1.5-1.17,1.17-2.23,1.16a34.42,34.42,0,0,1,.54-5.16A1.37,1.37,0,0,1,357.24,98C357.35,98.84,357.27,99.72,357.3,100.6Zm-10.66,12.07c.52,0,.91,0,.92.72s-.4.72-.9.72l-5.7,0a1.57,1.57,0,0,1,1.68-1.23C344,112.91,345.3,112.76,346.63,112.67Zm-2.48-3.28c.49-.6-.18-2,1.3-1.77.89.15.48.84.44,1.2C345.76,110.14,344.71,109,344.16,109.39Zm2.6-7.53c-.74,0-.81-.31-.86-.92-.08-1,.27-1.88.26-2.83,0-.4.17-1-.49-1-.49,0-1.22-.37-1.36.51-.08.5-.4.49-.75.5l-2.43,0,4.52-8.91c2.56,2.13,5.29,3.75,7.84,5.64.94.7.17,1.64.13,2.41-.06,1.22-.39,2.45-.41,3.69,0,.62-.23.84-.84.84C350.49,101.8,348.62,101.79,346.75,101.85Zm1.66-15.08a1.54,1.54,0,0,1-.62-2.27c1.53-3.3,3.2-6.54,4.81-9.8,1.48-3,2.9-6,4.35-9.06.45.16.55.41.48,1-.61,5.73-1.34,11.44-2.25,17.12-.39,2.44-.51,4.92-.77,7.45C352.2,89.87,350.43,88.15,348.41,86.77Zm6.84-26.44c.89.1,1.38-.4,2.09-.2l-.56,1.43ZM356.33,90c.18-2.65.59-5.28.93-7.91.26-2,.56-4.05,1-6.07l-.7,17.64C355.67,92.82,356.25,91.25,356.33,90Zm42.36,18.31c.11-.44.25-.57.66-.56a.55.55,0,0,1,.62.65c0,1.82,0,3.65-.07,5.47,0,1-1,.44-1.63.69C398.82,112.44,398.19,110.35,398.69,108.31Zm1.12-2.59v-.26l3.74,0v.26Zm1.54,2.56c.22-1.09,1.12-.47,1.7-.52s.73.26.49,2.55a7.24,7.24,0,0,1-2.11-.54C401.18,109.63,401.25,108.78,401.34,108.28ZM392,111.35c-.12-2.23-.06-2.24,2.26-2.26,2.61,0,2.61,0,2.63,2.75q0,.58,0,1.17c0,1.81,0,1.85-1.8,1.52a5.76,5.76,0,0,1-.87-.22,8.23,8.23,0,0,1-2.14-.85C391.34,112.93,392,112.07,392,111.35Zm13.7,5.14-13,.1A119.56,119.56,0,0,1,405.69,116.49Zm-.49-6.24c.41-.88-.69-2.39.71-2.45,2.08-.1-.09,1.75,1.31,2.44Zm-.14-4.58a3.3,3.3,0,0,1,2.67-.07A4.83,4.83,0,0,1,405.05,105.67ZM364.53,52.39a11.47,11.47,0,0,1,3.13.09l.09,1.21c-4.37.33-8.65.14-12.92.23a.78.78,0,0,1-.92-.83c0-.72.44-.61.86-.61Zm-6-2.47c0,.64-.35.76-.82.66-.64-.14-1.52.5-1.91-.47s.28-2.11-.52-3a1.79,1.79,0,0,1,.45-.56c.87-.71,1.75-1.4,2.74-2.18C358.52,46.28,358.52,48.1,358.56,49.91Zm3.52-36.73c-.57,6.94-.2,13.88-.3,20.8,0,1.72-.22,3.46-.15,5.19,0,.89-.37,1-1.09.94-.92-.1-2-.45-2,1.13,0,.34-.44.52-.79.59l-4,.86C356.5,32.69,359.55,23,362.08,13.18Zm-7.23,31.37-2.22,1.72C352.45,44.68,353.54,44.71,354.85,44.55ZM352.1,51a12.27,12.27,0,0,1,.2,3.46,1.72,1.72,0,0,0,1,1.75c1.12.61,2.26,1.19,3.46,1.82-1.93,1.18-3.24.89-5-.3s-2.15-2.65-1.22-4.51C350.93,52.47,350.51,51.08,352.1,51Zm-7.06.89c-.86-.11-1.62-1.06-2.41-1.65S341,49,339.89,48.19c3.78-.76,7.14-2,10.67-2.62.25,2.39-1.38,3.61-3,4.72C346.67,50.85,346,52.06,345,51.94Zm1.32,1.93L349,51.75l-.92,2.85Zm.33,12.06a2,2,0,0,0,.19-.61c-.08-3,2.1-3.49,4.34-3.92a1.34,1.34,0,0,1,1,.3,3.91,3.91,0,0,1,.33.21c3.1,2.25,3.1,2.25,1.35,5.7-2,4-4.1,8-6.1,12-.76,1.53-1.39,3.13-2.15,4.88l-3-2.34c-.61-.49-.33-1.14-.16-1.65C344.11,75.7,345.11,70.73,346.68,65.93Zm-23.37,2c7.47-1.74,14.72-3.76,22.25-5.2l-5,17.8Zm14.17,29.19,3.4-11.3a19.77,19.77,0,0,0,2.17,1.42c.82.39.79.89.46,1.56-1.35,2.74-2.68,5.48-4,8.22a4.55,4.55,0,0,1-.57.86,1.15,1.15,0,0,1-1.33.22C337,97.92,337.39,97.47,337.49,97.13Zm-.59,9.55c.55.75,1,1.51.53,2.29-.26.43-.92.34-1.52,0Zm.88,4.48a3.75,3.75,0,0,1-2.57.18A2.91,2.91,0,0,1,337.78,111.16Zm-3.69-.3c-.37,1-1.11.68-1.69.7-.19,0-.25-.2-.23-.38a.3.3,0,0,1,.33-.3ZM332.84,106a8.21,8.21,0,0,0-.46,1.91c0,1.21-.73,1.14-1.56,1.15-1,0-.73-.74-.78-1.28s.12-1.19-.36-1.76Zm-14.61,1.81c3.23-.06,6.45,0,10.06-.07-1.36,1.08-1.19,2.33-1.12,3.52,0,.73-.24,1-.9,1.06-1,0-1.91.12-2.86.08-5.68-.24-11.35,0-17,0-2.91,0-5.82,0-8.72,0-.8,0-1.11-.25-1-1a8.57,8.57,0,0,0,0-1c0-2.66,0-2.71,2.72-2.69C305.65,107.61,311.95,107.89,318.23,107.77Zm-18.16-3.61,0,0-4.93,0v0Zm-7-12.09a10.79,10.79,0,0,0,2.58-.14c1.67-.24,2.54,1,1.88,2.54-.17.38-.47.32-.75.34l-2.59.14v0a10.49,10.49,0,0,0-1.55,0c-1,.11-1.38-.18-1.33-1.26C291.34,91.86,291.27,91.89,293.05,92.06Zm-.25,15.75c2.21-.19,2.21-.19,2.23,2.16,0,.61,0,1.22,0,1.83,0,.32,0,.7-.38.73-2,.18-1.35,1.82-1.67,2.91-.08.26,0,.57-.11.86A54.82,54.82,0,0,1,292.81,107.81Zm-.27-5.09c-.4-.81.24-1.55.19-2.34,0-.2.39-.29.59,0A2,2,0,0,1,292.54,102.73Zm-1.49,12.78-.05-6.73C292,111.05,290.93,113.3,291.05,115.51Zm-.7-13.63a.58.58,0,0,1,.62.66c0,.86,0,1.72,0,2.58,0,.47-.13.73-.66.71s-.52-.34-.53-.7,0-.86,0-1.29,0-.86,0-1.29S289.87,101.85,290.35,101.87Zm-9.77-9.69,9-.07a8.63,8.63,0,0,1,.14,2.13c.06.61-.26.72-.77.72q-3.77,0-7.54.06c-.52,0-.82-.1-.79-.7S280.59,92.95,280.58,92.18Zm.06,6.14c-.09-.39.07-.66.55-.66,1.46,0,2.92,0,4.69,0a2.33,2.33,0,0,0-1,2.64c-1.4.43-2.58-.4-3.88-.4C280.27,99.89,280.76,98.87,280.64,98.32Zm4.72,7.62c-.3,0-.61,0-.91,0h-1.3c-2.52,0-2.5,0-2.5-2.56,0-.74.1-1.07,1-1.07,1.89,0,3.79-.16,5.68-.28.66,0,.93.15.91.86C288.09,106.52,288.93,105.65,285.36,105.95Zm-4.69,2.85c.1-.69.23-.91.93-1,2-.27,4-.05,6-.18.6,0,.68.37.67.86,0,1.17,0,2.34,0,3.51s0,2.26,0,3.38c0,.77-.25,1.16-1,1.18-1.13,0-2.25,0-3.38,0-.77,0-1.16-.6-1.45-1.11C281.27,113.41,280.32,111.3,280.67,108.79Zm-.25-34.34c-.3,1.09-.3,2.29-1.92,2A2.58,2.58,0,0,1,280.42,74.45Zm-1.81,35.78c.62,2.5-1.39,4-2.17,6-.14.36-.73.39-1.17.31a3.58,3.58,0,0,0-1.1,0c0-3,0-5.93.07-8.9,1.15,0,2.3-.07,3.45-.05.95,0,1.42.16,1,1.24A2.55,2.55,0,0,0,278.61,110.23Zm-84.81,4.91c-.13.47-.24.67-.72.64s-.88-.1-.76-.62c.46-2-.07-4,.14-6,0-.38-.21-.89.53-.94s.72.35.75.88a8.22,8.22,0,0,0,.27,1.3C193.26,111.92,194.26,113.55,193.81,115.14Zm-14.56-12.72c.09-.55.64-.34,1-.34,3,0,6,0,9,0,1.14,0,1.26.66,1.33,1.49.15,1.89.15,1.89,2,1.89a2.93,2.93,0,0,1,1.18.14c-3,0-6.2-.05-9.42.12-1.41.07-2.84-.23-4.24.14-.35.09-.93-.05-.85-.35C179.52,104.44,179.08,103.43,179.24,102.42Zm-3.45,7c.21-.47.39-1,.58-1.43a.61.61,0,0,1,.7-.41c.44,0,.46.28.47.6,0,2.48,0,5,.06,7.43,0,.59-.26.76-.78.74l-4-.18C173.83,113.84,174.81,111.63,175.79,109.41ZM172.63,105c0-1.09,0-2.18,0-3.27l.47,0a10.1,10.1,0,0,1,.22,3.43c0,.09-.26.26-.36.23A.47.47,0,0,1,172.63,105Zm4.25-3.17c.6,0,.64.44.62.91s0,.69,0,1h0c0,.48,0,1,0,1.43,0,.32-.15.45-.48.45s-.49-.09-.51-.42c-.06-.82-.15-1.63-.19-2.45C176.31,102.43,176.22,101.88,176.88,101.87Zm-4.47-1.95c-1.33.05-.84-.9-.9-1.52s-.23-1.24.87-1.27c2.32-.07,4.64-.34,7-.49.32,0,.8-.37,1,.23.13.43.46.88,0,1.32a.75.75,0,0,0-.31.68c.3,1.5-.63,1.48-1.67,1.34A37.83,37.83,0,0,0,172.41,99.93ZM166,104.19a3.76,3.76,0,0,1,2.85,1.88c-3.11-.68-5.9.46-8.73-.22-1-.23-.4-1.09-.81-1.57C161.63,104.3,163.82,104.27,166,104.19Zm-3.35-5.35c0-.32.25-.28.45-.29l2.27,0,0,.36-2.31.28C162.87,99.2,162.67,99.11,162.66,98.84Zm4.56,1.76,2.53.13A2.64,2.64,0,0,1,167.23,100.6ZM152.45,96c-7,0-14.06.12-21.08,0-2.17,0-4.34.06-6.5-.09-3.66-.27-7.33-.15-11.16-.17a17.21,17.21,0,0,0,.54-2.18c.05-.48.29-1.17-.21-1.45a1.63,1.63,0,0,0-1.63.07c-1.51,1-3.28,1.25-5,1.7-1,.27-1.59.15-1.54-1.18.08-2.39,0-2.47,2.41-2.26,5.13.46,10.28.56,15.42.87,4.25.26,8.5.14,12.75.23,1.34,0,2.67.15,4,.12,5.34-.12,10.68-.21,16-.39,4.76-.16,9.53-.31,14.27-.65,3.83-.28,7.68-.38,11.48-1a1.85,1.85,0,0,1,.5.06c-.54,3.93-2.09,5.07-6,5.36Q164.62,96,152.45,96Zm4.2,2.91a8.56,8.56,0,0,1-3,.07A2.58,2.58,0,0,1,156.65,98.89Zm-18.23,11.64h1.13a.61.61,0,0,1,0,.75c-.15.28-.27.55-.66.46C138.19,111.55,138.51,111,138.42,110.52Zm-.07-3.08c.08.69-.08,1.13-1,1.23-1.95.2-3.9.17-5.84.26-.95,0-1-.45-.85-1.11a2.23,2.23,0,0,0-.23-2.25,1,1,0,0,1,.8-1.58c7.21-.07,14.41.32,21.6.06.18,1.76-.8,1.87-2,1.85-3.61,0-7.21,0-10.82,0C138.84,105.88,138.2,106.17,138.35,107.45ZM131.9,115l3.12,0c.37,0,.55.13.54.53s-.29.46-.6.47h-3c-.37,0-.55-.13-.54-.53A.41.41,0,0,1,131.9,115Zm-1-3.91a4.88,4.88,0,0,1,2.72-.14A2.33,2.33,0,0,1,130.91,111.06Zm4.13,0c0-.63.37-.56.76-.56s1,0,1,.67a.53.53,0,0,1-.7.55C135.68,111.63,135.09,111.79,135,111.06Zm-4.91-12.13a2.36,2.36,0,0,1,2.95-.16A6.68,6.68,0,0,1,130.14,98.93Zm4.6-.29c0-.13.21-.34.3-.33.9.08,1.87-.22,2.66.64l-2.55,0C134.93,99,134.68,98.94,134.73,98.64Zm4.72.09a5.49,5.49,0,0,1,3-.08A5.23,5.23,0,0,1,139.46,98.73Zm4.69-.06c.9-.44,1.86,0,2.76-.06A3.9,3.9,0,0,1,144.15,98.66Zm5.33-.24c.93.15,1.77-.18,2.82.38C151.13,99.06,150.26,99.38,149.48,98.43Zm-27.23,16.7c0,.61-.18.84-.8.85s-.76-.38-.73-.91c0-.69.07-1.38.11-2.26-.51-1.33.46-2.87-.12-4.4a.27.27,0,0,1,.22-.39c.34-.07.49.12.55.39a31.8,31.8,0,0,1,.7,3.35C122.3,112.87,122.2,114,122.25,115.12ZM115.63,102c-.48,0-1-.08-1.43-.09-2.8-.1-2.8-.1-2.66-2.93a1.54,1.54,0,0,1,1.61-1.62c4.75,0,9.5.14,14.26.23.63,0,.88.32.9,1,0,1.46-.63,2.28-2.07,2.27a5.17,5.17,0,0,0-2.46.69,2.42,2.42,0,0,1-1.59.38C120,101.5,117.82,102.24,115.63,102Zm-2,10.69c-.54,0-.81,0-1.06,0-1-.11-2.59.51-2.89-.28-.48-1.25-.17-2.81-.17-4.24,0-.45.4-.37.69-.38,2.12,0,4.24,0,6.36-.06.59,0,.77.24.72.77,0,0,0,.09,0,.13-.05,1.29.56,3-.19,3.77S114.58,112.57,113.58,112.71Zm1.36,2.56c0,1.09-.78.61-1.26.76-.55-.09-1.34.24-1.31-.78s.86-.61,1.36-.65S114.91,114.32,114.94,115.27Zm-8.11-5.91c0-.3,0-.64.45-.62s.57.29.57.7c0,.78,0,1.55,0,2.33s0,1.55,0,2.33c0,.31,0,.62-.44.64s-.58-.15-.56-.52C107,112.59,106.57,111,106.83,109.36Zm-1.26-11a72.85,72.85,0,0,1-7.93-.17,38,38,0,0,0-4.52.06c-3.6.07-7.19-.23-10.78-.28-1.81,0-3.26-1.08-4.46-2.77a111.84,111.84,0,0,0,33.35.28C109.49,97.34,107.77,98.39,105.56,98.4ZM104.15,101c0,.88-.45.87-.92.83-.62,0-1.15.17-1.18-.7s.46-.86,1.05-.83S104.12,100.13,104.15,101Zm-4.65.87c-.72.08-.87-.27-.83-.89,0-.47.05-.93.67-.78s1.35-.09,1.12.9C100.61,102,100,101.8,99.5,101.86Zm-2.44-.9c0,.6-.25.92-.92.93s-.58-.44-.61-1,.06-.81.74-.76C96.8,100.21,97.07,100.44,97.06,101Zm-4.23,0c0,.43.08,1-.75,1-.57,0-.73-.21-.73-.75s.21-1,.88-1C92.74,100.2,93,100.39,92.83,101Zm-3,0c0,1.09-.58.95-1.23.94h-.78a13.47,13.47,0,0,1-2.3-.19c-.75-.15-.61-.55-.64-1,0-.61.37-.57.77-.57l3,0C89.21,100.13,89.77,100,89.8,101Zm-7.43.73c-.74,0-.63-.58-.66-1s-.13-.69.47-.69.88.25.79.81S83.08,101.76,82.37,101.72Zm-3.92-2.57c.82.23,1.46.31,1.38,1.2,0,.46-.43.37-.69.34C78.06,100.56,78.8,99.76,78.45,99.15Zm14.91-6.6h-.1c0,.47.08.95.11,1.42s-.21.91-.83.87-.5-.62-.4-.88A12.59,12.59,0,0,0,92.37,91c0-.35,0-.85.58-.81s.36.5.38.79C93.37,91.51,93.35,92,93.35,92.55Zm-.58-3.83,1.12-9.22C94.27,82.29,93.68,87.91,92.77,88.72Zm.62-18.31c-.29,2.42-.62,4.84-.94,7.25-.38,2.88-.74,5.77-1.2,8.64-.11.67.46,1.63-.44,2a6.54,6.54,0,0,1-2.16.08c-1.65,0-3.3,0-5,0-.61,0-.85.18-.83.81,0,1.51,0,3,0,4.66-1.21-.39-2.4,0-3.47-.59L93.62,65.39l.29.07C93.74,67.11,93.59,68.77,93.4,70.41ZM90.8,91.13a5.72,5.72,0,0,0-.29,2.15c0,1.28-.45,1.67-1.78,1.54-4-.38-4-.33-3.62-4.74,1.64.4,3.18-.08,4.73-.07C90.63,90,91.25,90,90.8,91.13Zm44.93-10.68,4.16-1.86a35.48,35.48,0,0,1,.72,5.28Zm2.33,4.32c-1,.37-1.71.57-2,1.42-.16.42-.7.25-1.07.23-2.29-.07-4.59.26-6.87-.18-.92-.18-1.86.43-2.82,0-.24-.1-.52-.1-.57-.42s.16-.56.47-.67l1.33-.48a62.12,62.12,0,0,0,6.34-2.9.78.78,0,0,1,.92,0Zm-5.88-7c-.77.28-1.69-.65-2.46-1.17q-5-3.41-10-6.85c5.68,2,11.38,4.08,17.18,6.19A23.65,23.65,0,0,1,132.18,77.74ZM129.54,79c-2.42,1.07-4.63,2.08-6.86,3a2.76,2.76,0,0,1-2.25,0c-1.17-.49-1.67-.09-1.82,1.17,0,.26,0,.59-.28.68-1.82.57-3.3,2.23-5.37,1.9-3.54-.57-7.15-.39-10.67-1.07a1.28,1.28,0,0,1-1.15-1,23,23,0,0,1-1.07-5.91c-.26-4-.64-7.89-1.11-11.83a17.2,17.2,0,0,1,0-1.9c.57-.21.89.26,1.32.26.59,0,1.25.17,1.32-.8,0-.31.13-.85.82-.57,3,1.23,6.28,1.85,9.08,3.51,2.62,1.56,5,3.58,7.49,5.33C122.4,74.15,125.76,76.65,129.54,79Zm-19.2,8.19c-.89,1-1.8.69-2.61.74-.22,0-.25-.18-.26-.36s.12-.37.39-.36C108.59,87.21,109.32,87.19,110.34,87.18Zm-4.62.2c0,.28-.24.33-.47.32a1.23,1.23,0,0,0-1.27.61c-.28.45-.81.18-.92-.35a5.93,5.93,0,0,1,.1-1.37c.77.26,1.52-.09,2.21.31C105.56,87,105.75,87.12,105.72,87.38Zm-7.18-5c.8,2,.27,3.79.71,5.51.08.3.15.65-.34.64s-.32-.34-.32-.58C98.56,86.16,98.55,84.39,98.54,82.36Zm.09,8.86c.15-.32-.34-1.21.39-1,.89.26.42,1.43.79,2.12.08.15-.13.46-.37.37C98.8,92.48,98.14,92.18,98.63,91.23ZM93.05,55.56l7.84-.06C98.63,57,95.66,57.55,93.05,55.56ZM97,87.44c0,1.2-.73,1-1.59,1.13C95.55,79.78,96.5,71.16,97,63,97.32,70.84,96.89,79.14,97,87.44Zm-.07,4c-.06.44.17,1.08-.63,1-1.64-.21-.33-1.51-1-2.17C96.73,89.89,97.05,90.44,96.92,91.48Zm11.91,8.83c.57.06,1,.05,1,.83s-.44.84-1,.91c-.74.09-.76-.36-.71-.85S108.07,100.23,108.82,100.31Zm17.85,7.42c2.28-.31,2.3-.3,2.32,2l0,5.94c-1.24-2.68-1.66-5.3-3-7.72A5.58,5.58,0,0,1,126.67,107.73Zm15.81-18c.77,0,1.57-.73,2.55.11A4.54,4.54,0,0,1,142.48,89.71Zm8.85-1.66c.6,0,1.19-.1,1.79-.13.21,0,.44,0,.48.29s-.19.41-.47.45A2.09,2.09,0,0,1,151.33,88.05Zm4,.25c0-.81,1-.19,1.35-.42h.88c.3,0,.5.07.47.43s-.26.43-.53.42a3.29,3.29,0,0,1-.76-.11C156.26,88.5,155.34,89,155.34,88.31Zm17.45.39a63.68,63.68,0,0,1-7,.35c0-.69.2-1,1-.9C168.79,88.5,170.84,88.27,172.79,88.69Zm-3.89-3.39c.82.56,2-.63,2.43.73.27.95-.66.62-1.12.66C169.4,86.75,168.57,86.75,168.9,85.31Zm4.38.45c.82-.28,1.46.12,2.13.2.48.06.4.5.39.83s-.4.45-.65.31C174.48,86.72,172.89,87.61,173.28,85.76Zm11.28,13.88c0-1.08,0-2.16,0-3.25.45.43,1.41-.23,1.49.51a15.33,15.33,0,0,1,0,3.11c0,.35-.55.31-.9.31S184.56,100,184.56,99.64Zm3.13-1.07a2.06,2.06,0,0,1,.07-.49c.24-.5-.52-1.54.59-1.5s.38,1,.57,1.59a4.67,4.67,0,0,1,0,1.42c0,.41,0,.81-.58.8s-.68-.3-.68-.76S187.69,98.86,187.69,98.57Zm53.88-1.83a2.49,2.49,0,0,1,1.42,0c0,.89,0,1.79,0,2.69,0,.43.21,1.13-.56,1a1.12,1.12,0,0,1-1-1.1C241.39,98.49,242,97.65,241.57,96.75Zm8.43.67c0-.75.52-.76,1.07-.75.74,0,1.47,0,2.42,0,1.86-.06,3.93.18,6,0,.43,0,1-.19,1,.62s-.46.84-1,.81a41.86,41.86,0,0,1-4.66-.16A20.3,20.3,0,0,0,251,98C250.6,98,250,98.13,250,97.41Zm17.47.68,3.46,1.31C269.26,99.81,268.4,98.85,267.47,98.09Zm-45,1.75-5.46,0v-.1l5.59,0Zm51.69,2.41c.93,0,1.85,0,2.78-.11.64,0,1.56-.08,1.72.52a7.75,7.75,0,0,1,0,2.85c0,.38-.6.23-.93.23l-3.5,0c0-.72.06-1.44.1-2.17A2.11,2.11,0,0,0,274.2,102.25Zm-47.38-4.53a2.39,2.39,0,0,1-.39,0l-9.39.07c-.16-1,0-1.42,1.18-1.32a38,38,0,0,0,8.3-.23c.4-.05.68-.06.74.42S227.48,97.61,226.83,97.72ZM220,102.3c.51,0,.52.31.53.68s-.21.57-.63.59a15.29,15.29,0,0,1-4-.39c-1.08-.22-2.3.17-3.64-.82Zm-4.89-4.43a10.25,10.25,0,0,0-1,2.75c-.62-1.66-2-1-3-1.36,0-.06-.07-.1-.06-.13.08-.81,0-2.19.29-2.31a8.18,8.18,0,0,1,3.41-.3C215.62,96.59,215.39,97.39,215.16,97.87Zm-7.34,3.72c.1.12.18.18.19.25.15,2.08.15,2.07-1.89,2.09a13.7,13.7,0,0,1-4.13-.64A17.42,17.42,0,0,0,207.81,101.59Zm-2.21-1.34c.64-1.06,1.54-1.23,2.77-1.61A8.27,8.27,0,0,1,205.61,100.25Zm-3-.74a1.63,1.63,0,0,1-1.37.53,93.25,93.25,0,0,0-9.63.35c-.82.1-1-.22-1-1,0-2.87-.07-2.87,2.72-2.89,3,0,6,0,9,.14,1.11.06,1.43,1,2.43,1.37C203.81,98.49,203,98.74,202.56,99.51Zm-9.78,4.2c-.84.2-.58-.57-.58-.84l4.76.45C195.58,103.62,194.17,103.38,192.78,103.71Zm2.51,4.91c.13-.37-.15-.65-.2-1.17,3.67.31,7.28.21,10.88.18q.05,4.49.09,9c-1.94.06-3.89-.13-5.83,0a36.6,36.6,0,0,1-4.39-.11c-.35,0-.73,0-.72-.5,0-.82-.28-1.65-.23-2.42C195,112,194.73,110.24,195.29,108.61Zm84.28,6.48c.65,0,.52.86,1.05,1.24a3.91,3.91,0,0,1-1.8,0C279.26,116,279,115.12,279.57,115.1Zm-1.22-28.27c1.17-.13,1.17-.13,1,1.57A3.48,3.48,0,0,1,278.35,86.83Zm.23-8.21c.65,0,1.11,0,1.1.75,0,.49-.16.69-.66.7s-.93,0-.88-.74C278.16,78.91,278.14,78.52,278.58,78.62Zm-.5,13.47c1.16-.14.37,1,.7,1.4-.25.44.38,1.2-.63,1.29-.76.06-.8-.45-.67-.89C277.68,93.28,277,92.21,278.08,92.09Zm-.46,5.33c1.06,0,1.17.55,1.17,1.4s-.24,1.25-1.18,1.21c-1.34-.05-2.62,0-3.64-1.21a8.8,8.8,0,0,0-2.36-1.34C273.81,97.46,275.72,97.48,277.62,97.42Zm-4.79-9.84c.78.42.14,1.13.46,1.71-1.24.07-1.06-.7-1.08-1.31A.4.4,0,0,1,272.83,87.58Zm-12.23-8c0,.92-.37,1.3-1.34,1.23-1.17-.08-2.34,0-3.81,0a32.77,32.77,0,0,0-4.5.18c-.59.13-.74-.21-.74-.74,0-2,0-3.91,0-5.86,0-.47.12-.73.65-.72q4.44.07,8.87.09c.53,0,.91,0,.9.74C260.55,76.23,260.58,77.92,260.6,79.61Zm.1,7.24c-.19.93-.75.91-1.25.92l-8.7.15c-.32,0-.71.1-.74-.46s.29-.54.66-.54ZM251,60.54c2.87,0,5.73,0,8.6-.07.79,0,.94.29.93,1,0,1.52,0,3,0,4.57s0,3,0,4.57c0,.61-.17.84-.8.84q-4.37,0-8.74.06c-.72,0-.88-.31-.88-.94,0-3,0-6.09-.07-9.13C250,60.7,250.31,60.54,251,60.54Zm-.52,23.53c3,.42,6-.39,9-.33.33,0,.86-.25.93.35s-.52.55-.91.55c-3.13,0-6.26.05-9.52.08C250.1,84.08,250.28,84,250.44,84.07Zm17.48,5.52a83.77,83.77,0,0,1-18,.48C255.93,89.62,261.93,89.94,267.92,89.59ZM245.06,84.7a3,3,0,0,0-.76,1.75c-.06.9-.71,1.21-1.17,1.8-1.84,2.32-3.54.07-5.27.29A14.94,14.94,0,0,1,245.06,84.7Zm30.32,6.41c-.28,3-1,3.63-3.87,3.62-6.24,0-12.48,0-18.71-.16-3.56-.11-7.12,0-10.68-.06a9.65,9.65,0,0,1-2.82-.3c-1.43-.48-2.17-1.66-2.49-3.44C249.68,93.61,262.52,92.94,275.38,91.11ZM239,96.69c.81-.08.62.58.56,1-.11.75-.34,1.49-.48,2.23-.09.46-.29.68-.78.66s-1,0-1.69,0c-1-.05-2.14.25-2.87-1a6.47,6.47,0,0,1-.58-3.24c0-.24.28-.26.59-.21A19.42,19.42,0,0,0,239,96.69Zm-4.42-7.89c-2.71,3.06-3.3,6.84-3.58,11.1C230.2,96.81,231.84,91.2,234.58,88.8Zm-2.42-2.32c-.78.89.34,3.14-2.12,2.89A4.31,4.31,0,0,1,232.15,86.48ZM217.21,65.94c0-1.52,0-3,0-4.56,0-.6.15-.85.79-.84q4.17,0,8.34,0c.79,0,1.13.3,1,1.08-.4,2.93.08,5.87,0,8.8,0,.71-.18,1-.95,1q-4.11,0-8.21.06c-.79,0-.94-.29-.92-1C217.26,69,217.22,67.46,217.21,65.94Zm.05,8.49c0-.59.27-.72.78-.76,2.82-.23,5.65.07,8.47,0,.66,0,.65.41.65.87,0,1.57,0,3.13,0,4.7h-.08c0,1.52,0,3,0,4.56,0,.71-.17,1-.94,1-2.74,0-5.48,0-8.22.05-.67,0-.94-.22-.92-.9Q217.19,79.16,217.26,74.42Zm9.43,12.42c-1,.63-2.08.44-3.09.57s-2.4.6-3.3.21c-1.11-.48-2.11,0-3.22-.3C217.5,86.76,224.07,86.49,226.68,86.85ZM197.3,90.32a10.33,10.33,0,0,0,1.41.12c5.2-.08,10.42.14,15.6-.39,3.95-.41,7.94-.35,11.86-1.1.87-.17,1.54,0,1.37,1.16-.1.68.09,1.42-.08,2.07a2.84,2.84,0,0,1-3.13,2.23c-1.51,0-3,.18-4.52.18-3.08,0-6.16-.09-9.24-.09-4.79,0-9.58,0-14.37.11-4.16.07-7.8-.71-9.3-5.46C190.36,89.53,193.84,89.9,197.3,90.32ZM104.15,13.84c1.52,1.24,2.95,2.57,4.57,3.7,1.93,1.34,3.56,3.12,5.43,4.56,5,3.88,9.69,8.18,14.62,12.18,4.32,3.51,8.5,7.19,12.77,10.76,4.76,4,9.48,8,14.34,11.91,2.81,2.24,5.3,4.85,8.3,6.84.33.22.61.47,1,.2a5.38,5.38,0,0,0,1.9,3.08c3.5,3.19,7.14,6.22,10.77,9.26s7.58,6.14,11.36,9.22c-.52,1-1.8.79-2.52,1.56-.2.21-1,.1-1-.75,0-1.14-.53-1.44-1.62-1.07a1.25,1.25,0,0,0-.32.21c-1.63,1.22-3.09.8-4.5-.42-1.58-1.37-3.61-.86-5.41-1.28s-3.45-.12-5.16-.31c-1.08-.12-1.81.07-1.55,1.41,0,.23.08.52-.39.89-.13-1.6-.18-3.06-.34-4.5-.3-2.74-.45-5.5-.6-8.26,0-.7-.38-.76-.92-.73s-1,.08-1,.86c.15,1.85.27,3.71.39,5.57.08,1.21.12,2.42.21,3.64,0,.58-.21.76-.76.74-1.86-.06-3.41.37-3.82,2.54-.07.36-.46.35-.76.36-3.06.11-6.11.21-9.17.35-.72,0-.79-.28-.87-.9a54.77,54.77,0,0,1-.28-8c0-.8-.29-1.13-1.07-1a13.09,13.09,0,0,1-1.93.17c-.86,0-1,.39-1,1.12a71,71,0,0,0,.33,7.79c.07.55,0,1.11-.76,1-.26,0-.58-.07-.44-.58.51-1.85-.13-3.79.41-5.65a1,1,0,0,0-.29-1,2.32,2.32,0,0,1-.39-2.3c.45-1.83-.15-2.78-2-3.17-.2,0-.51-.08-.57-.21-1.09-2.3-3.5-2.48-5.45-3.2-6-2.2-11.87-4.67-17.86-6.87-4.78-1.76-9.55-3.56-14.31-5.36a15.35,15.35,0,0,1-1.51-.77c.13-.12.17-.19.23-.21,3-1,3-1,3-4.28,0-2,.06-2,2-2,.7,0,1.78.44,1.67-1-.05-.68-.32-1-1-.89a44.53,44.53,0,0,1-5-.23,2.22,2.22,0,0,1-2.12-2.2,18.66,18.66,0,0,1,.19-4c.3-1.28-.25-2.56-.26-3.86q-.08-12.65-.19-25.31c0-.85-.11-1.7-.18-2.8C101.81,11.83,103,12.86,104.15,13.84ZM102.4,52.08c.69,0,1.35,0,1.35.92s-.73.77-1.3.78c-1.82,0-3.65,0-5.47,0v0c-1.86,0-3.73,0-5.59.06-.87,0-.85-.47-.91-1.06s.37-.74.89-.72C95,52.16,98.72,52.24,102.4,52.08ZM96.2,48.5c0-.22,0-.46.28-.49a.65.65,0,0,1,.46.13c.39.36,0,1.86-.72,2.31C96.21,49.69,96.2,49.1,96.2,48.5Zm2.2-33.21L98.13,40a8.59,8.59,0,0,0-2.27.2c-.59.09-1.08.12-1.09.95s-.73.51-1.12.56c-1.23.17-2.48.22-3.86.33ZM89.08,46.4c1.58-.65,3.13-1.4,4.67-2.15a1.69,1.69,0,0,1,1-.22c.41,2-.1,3.89-.15,5.82,0,1.12-1,.35-1.54.53s-.7-.2-.74-.71c-.14-1.66-.15-1.62-1.81-1.31A5,5,0,0,1,87.63,48C87.72,47.08,88.3,46.71,89.08,46.4Zm-.53,4.77a6.8,6.8,0,0,1,.1,2.7c-.32,1.44.56,2.23,1.68,2.83a18.73,18.73,0,0,0,1.76.74c2.09.85,2.47,2.08,1.3,4.06-2.39-2-4.77-4.11-7.2-6.11-.55-.46-.82-.83-.45-1.51a5.56,5.56,0,0,0,.35-1.09C86.42,51.6,86.85,50.54,88.54,51.17ZM77.66,48.55c-1-.89-2.13-1.71-3.39-2.71l12.22-1.56c.18,1-.28,1.26-1.1,1.6-2,.83-3.86,1.84-5.76,2.83A1.54,1.54,0,0,1,77.66,48.55Zm2.81,2,5-2.4c-.32,1.63-1.09,2.92-1.31,4.39-.06.41-.45.85-.94.45C82.27,52.26,81.41,51.42,80.46,50.57ZM84.34,58A68,68,0,0,0,92.1,64c-2.13,4.34-4.55,8.63-6.77,13-2.52,5-4.91,10-7.62,14.89-.26.48-.43.67-1.08.51-1.82-.44-2.33.23-1.7,2.06a5.79,5.79,0,0,0,.43,1.08A1,1,0,0,1,75.18,97c-.37.23-1.33.24-1.44,0-.44-.85-1.14-.36-1.94-.6C75.95,83.62,80.66,71.05,84.34,58ZM72.83,101.74a8.25,8.25,0,0,1,.68-3.13A4.69,4.69,0,0,1,72.83,101.74Zm-3.28,11c.17-.44.59-.45,1-.43,1.41.07,1.87-.73,1.84-2a8.16,8.16,0,0,0-.21-2.44c3.23-.41,6.29.06,9.34-.1,1-.05,1.5,0,1.33,1.37a36.71,36.71,0,0,0,0,5.33c0,1.15-.35,1.63-1.64,1.44a25.55,25.55,0,0,0-4.79.11c-2.72.12-5.45.07-8.29.09A20.86,20.86,0,0,1,69.55,112.72ZM67.74,109c.38,2.26-.17,4-2.13,6.88C66.06,113.41,67.19,111.34,67.74,109Zm-4.21-5.5a5.66,5.66,0,0,1-3.65.3C61,103.16,62.19,103.5,63.53,103.48Zm-7.26-12c0,1.09,0,2.17,0,3.25,0,.77-.37,1.1-1.08,1.14-.3,0-.61,0-.91,0-1.43,0-3-.38-4.11,1.06C51.59,93.93,54.08,91.76,56.27,91.52Zm-4.93,7a45.38,45.38,0,0,0,7.89-1.18,1.92,1.92,0,0,1,1.3-.06c-.91,2.18-2.37,3.61-4.79,3.71s-4.57.05-6.9.07C49.23,98.67,49.24,98.77,51.34,98.57Zm6.29,5.17-3,0A3.26,3.26,0,0,1,57.63,103.74Zm-5.31,0-3.42,0C50,103.2,51.17,103.74,52.32,103.69ZM28.15,91l.4,0,0,4.26C27.93,93.85,28.18,92.42,28.15,91Zm6.4,7.2c1.5.16,3,.51,4.48.62,2.33.16,4.64,0,7,.08.43,0,1,0,.77.62-.19.47.4,1.42-.84,1.37-2.67-.11-5.35-.12-8-.14-2.25,0-4.49,0-6.74,0a4.77,4.77,0,0,1-4.91-3.37C29.07,97.68,31.81,97.89,34.55,98.19Zm10.51,15.7c-2.43.06-2.45.06-2.42-2.21,0-1.08.22-2.15.2-3.23,0-.83.18-1.21,1.07-1.11s1.5.29,1.25,1.31A17.83,17.83,0,0,0,45.06,113.89Zm-5.07-1c0,.64-.19.84-.86,1-1.25.26-2.51,0-3.73.27-.49,0-1-.08-1.45-.09-1.87,0-1.86,0-1.74-2,.08-1.3.15-2.59.19-3.89,0-.5.07-.82.69-.81a50.8,50.8,0,0,1,6,.18c.63.09.91.21.89.9C39.93,109.89,40,111.37,40,112.85Zm-6.45-9.21A12.68,12.68,0,0,0,36,103c.19-.12.44-.12.51.15s0,.49-.38.49Zm-4,3.79a1,1,0,0,1,1,0c.51.62.2,1.39.23,2.16H29.29C29.42,108.86,28.93,108,29.58,107.43Zm-2,.6c0,.6.71,1.8-.52,1.88-1.94.12-.33-1.77-1.25-2.36C26.54,107.67,27.55,106.74,27.62,108Zm1.3,3.85a5.53,5.53,0,0,1-2.95-.22A5.78,5.78,0,0,1,28.92,111.88ZM22.3,97c-.3-.37,0-.88.45-1s1.07-.2,1.28.49a2.21,2.21,0,0,1,0,2.07c-.55.71-1.16,1.58-2.31.86C22.51,98.71,23.19,98.09,22.3,97Zm-2.13,11.07c.19-.87.84-.66,1.49-.57,0,.74,0,1.35,0,2,0,.25.05.62-.27.65-1.84.2-.9,1.61-1,2.49-.11.67.54.64,1,.65a8.36,8.36,0,0,1,3.23.31c-1.95.56-3.82.26-5.84.38A48.73,48.73,0,0,0,20.17,108.08Zm-9.36-4.66c.32.47.49,1.57-.19,1.84S9.2,104.84,9,104.09c-.44-1.37-.77-2.78-1.23-4.51A18,18,0,0,1,10.81,103.42Zm132.07,25c-5.87-.05-11.75.13-17.61,0-7.52-.2-15,.07-22.56,0-3.82,0-7.68.28-11.46-.1-2.93-.29-5.15.87-7.48,2.14a15.11,15.11,0,0,1-8,2.32c-11.87-.4-23.74.08-35.61,0-11-.09-21.91-.11-32.87.06-1.35,0-1.8-.53-1.84-1.62a41.46,41.46,0,0,1,.33-8c.2-1.27.35-2.55.55-3.82s.51-1.76,1.92-1.64c4.59.41,9.2.11,13.81.17,8.16.11,16.33,0,24.49.14l19.26.39q5.22.11,10.42,0c5-.08,10,.24,15,.26,6.25,0,12.49.08,18.74.12,6.88,0,13.76.14,20.63.09,6.15-.05,12.29.32,18.69,0-1.55,3-2.94,5.71-4.42,8.4A2.07,2.07,0,0,1,142.89,128.45Zm49.73.08c-5.78.14-11.56.05-17.34.08-4.28,0-8.55.19-12.83.06-4.6-.14-9.2,0-13.8,0a1.57,1.57,0,0,1-1.27-.28c1.13-1.56,1.51-3.63,3.35-4.75a1.2,1.2,0,0,0,.52-.85,7.06,7.06,0,0,1,.95-2.7c.4-1,.87-1,1.62-1,3.93,0,7.86.09,11.8.08,7.4,0,14.79,0,22.18-.19,5.53-.13,11.06.09,16.6,0l1.68-.06q0,4.58.06,9.17a2.17,2.17,0,0,0,.05.48c-1.06,0-2.11.07-3.16.15C199.55,128.93,196.09,128.46,192.62,128.54ZM297,127.61c0,.73-.23,1-1,1-6.39,0-12.78.15-19.17,0-.87,0-1.73,0-2.59,0a3.37,3.37,0,0,0,0-.41c0-3-.07-6-.11-9,2.46,0,4.92-.18,7.36,0,4.82.35,9.63.06,14.45.1.76,0,1,.24.95,1Q296.92,123.89,297,127.61Zm30.46-8.35c.07,2,0,4.05.06,6.22a17.84,17.84,0,0,0-28.87.23c0-2.32-.08-4.5,0-6.68,0-1.68.07-1.71-1.63-1.68a3.91,3.91,0,0,1-1.61-.43c-.79-.34-.84-1.08-.75-1.77s.76-.53,1.25-.53c3.61,0,7.22.1,10.82.09,6.28,0,12.56-.09,18.84-.13,1.13,0,2.26,0,3.39.07.45,0,1.14-.28,1.29.24a2.28,2.28,0,0,1-.43,1.91,1.26,1.26,0,0,1-.86.53C327.43,117.24,327.43,118.16,327.46,119.26Zm104.72,13.15a10.18,10.18,0,0,1-2.87.13c-5.69,0-11.38.12-17.08,0-13.73-.2-27.46.12-41.19.15-4.65,0-9.31.13-14,0-7.7-.23-15.39,0-23.08.05-1,0-1.33-.32-1.18-1.25a1.64,1.64,0,0,0,0-.26c0-2.61,0-2.65-2.6-2.63-.84,0-1.12-.23-1.1-1.09,0-2.39,0-4.78,0-7.18,0-.78.19-1.12,1-1.05,1.68.14,3.39-.31,5,.22.95.3,1.46,2.29.73,3-1,1-.61,2.2-.37,3.12.2.76,1.44.24,2.22.31.61.06.74-.35.83-.91.27-1.58-.4-3.06-.35-4.62,0-.89.24-1.22,1.16-1.19,1.47,0,2.95,0,4.42-.07.34,0,.67.07.65.45-.07,1,.34,2-.19,2.89a2.48,2.48,0,0,0-.41,2.76c.33,1.12,1.47.59,2.28.61.65,0,.84-.46.78-1.08a6.69,6.69,0,0,0-.41-2.65c-.4-.82.13-1.77.21-2.67,0-.48.8-.36,1.25-.37,2.83,0,5.65-.05,8.48-.07l13.44-.1c2.31,0,3.05,1.23,2.08,3.41a5,5,0,0,0-.23,1c-.14.66-.15,1.5.39,1.78a4.56,4.56,0,0,0,2.56.06s.1-.06.09-.08c-.36-1.54,1.19-2.35,1.4-3.62.13-.83-.17-1.67-1.32-1.66-.36,0-.56-.13-.57-.53s.29-.55.67-.56l5.08-.12c.35,0,.77,0,.72.49-.11,1.1.31,2.22-.29,3.31a3.51,3.51,0,0,0-.08,2.54c.2.79,1,.33,1.59.42,1.12.18,1.71-.17,1.5-1.44-.08-.47-.21-1.05.65-1.12,1.14-.09,1-1,1-1.76s-.54-1.11-1.24-1.2c-.45-.05-1,.13-1-.66s.7-.6,1.13-.6c5-.06,9.92-.05,14.88-.13,5.92-.1,11.85-.28,17.77-.38,1.56,0,3.09,1,4.64.45,2.22-.73,4.52.14,6.73-.51.74-.22,1.21-.06,1.37,1a85.44,85.44,0,0,0,2.11,10.82C431.7,130.71,432.54,131.34,432.18,132.41Z"/><path d="M197.9,108.81c-1-.31-1,.42-1.17,1,0-.58-.49-1.27.26-1.53.5-.17,1.32-.27,1.6.13.58.8,1.09,1.76.23,2.83a1.46,1.46,0,0,0,.75-2.25c-.16-.22-.6-.29-.25-.67a.48.48,0,0,1,.35-.09c.47,0,.34.43.35.7,0,.69,0,1.38,0,2.07,0,.52.07.71-.69.75a12.44,12.44,0,0,0-2.09,0c-.46.1-.77-.32-.49-.92l.7.27c.22.09.41.36.74.08C197.18,110.53,196.6,109.79,197.9,108.81Z"/><path d="M182.36,121.87a.84.84,0,0,1-.94,1,1.1,1.1,0,0,1-1.21-1.09,1.21,1.21,0,0,1,1.14-1.33C182,120.49,182.39,121.09,182.36,121.87Z"/><path d="M279.59,121.77c-.06.63-.29,1.19-1,1.1a1.29,1.29,0,0,1-1.2-1.42,1.11,1.11,0,0,1,1.29-1C279.35,120.5,279.62,121.12,279.59,121.77Z"/><path d="M290.63,122.22c-.11.56-.43,1.1-1,1.11a1.2,1.2,0,0,1-.22-2.38C290.08,120.91,290.51,121.45,290.63,122.22Z"/><path d="M202.18,121.61c-.17-.89.48-1,1-1s1.13.15,1,.86-.19,1.5-1.07,1.52S202.16,122.29,202.18,121.61Z"/><path d="M171.95,121.71c-.07.92-.49,1.33-1.26,1.27s-.89-.66-.86-1.32.57-1,1.22-1A.87.87,0,0,1,171.95,121.71Z"/><path d="M193.05,122a.75.75,0,0,1-.81,1,1.16,1.16,0,0,1-1.27-1.18.91.91,0,0,1,1-1A1,1,0,0,1,193.05,122Z"/><path d="M160.25,123.08a1.35,1.35,0,0,1-1.09-1.3c-.06-.57.43-.93,1-1a.83.83,0,0,1,1,.92C161,122.15,161.27,123,160.25,123.08Z"/><path d="M78.93,111.67c-.84,0-2,.27-1.59-1.19.2-.82-.84-2.3.76-2.33.87,0,2.72-1.05,2.78,1.16C80.94,111.67,80.9,111.67,78.93,111.67Z"/><path d="M282.05,110.41c.3.8.73,1,1.73.71-1.64-.31-1.47-1.22-1.12-2.17-.56-.15-.35.58-.79.55,0,0-.11-.06-.11-.1,0-.37-.21-.88.3-1a1.73,1.73,0,0,1,1.88.42c.7.79.58,1.51-.17,2.38,1.68-.3.59-1.43.83-2.07.09-.24-.6-.64,0-.79s.42.48.46.79c.4,2.72,0,3.1-2.7,2.7C281.58,111.69,281.64,111.2,282.05,110.41Z"/><path d="M111.61,108.32c.72,0,1.74-.35,1.73,1.1,0,2-.23,2.57-1.45,2.51-.91,0-2.32.66-2.24-1.3C109.76,108.24,109.27,108.4,111.61,108.32Z"/></g><text class="vehicle-text cls-1" transform="translate(218.37 132.58)">10</text></g></svg>