<svg id="vehicles" xmlns="http://www.w3.org/2000/svg" width="513" height="67.88692" viewBox="0 0 513 67.88692"><defs><style>.cls-1,.cls-2{fill:none;stroke-miterlimit:10;}.cls-1{stroke:#ef4136;}.cls-2{font-size:42px;stroke:#fff;font-family:MyriadPro-Regular, Myriad Pro;}</style></defs><title>train</title><g id="icn_train"><path class="cls-1 vehicle-shape" d="M382.54169,20.00886h9V42.34223h-9ZM242.5,34.613H265V23.17555H242.5Zm-36,0H229V23.17555H206.5Zm-34,0H195V23.17555H172.5Zm-34,0H161V23.17555H138.5Zm-36,0H125V23.17555H102.5Zm-34,0H91V23.17555H68.5ZM33.71875,19.17555h-9V40.3318h9Zm-20.179-9.59412L13.56055.64887h342.002v1.4632s34.06249.06348,70.56249.06348c35.6875,0,85.25,30.875,85.25,47.66663,0,5.55212-7.875,8.83337-11,8.83337v3.16663h1.33331v2.66669h-1.60382l.06219,1.61633h-4.5l.02045-1.61633h-5.64545L473.375,51.23365H451.0625V54.363h11.14557a7.87112,7.87112,0,0,1,13.89777,4.06244L486.6875,65.613v.51215H472.31274a7.821,7.821,0,0,1-8.04211,0H454.125V63.113h-1.75v1.5625h-1.4375v1.44965H430.25V64.488h-1.5v-1.25h-1.5625v1.25h-3.92432q-.25333.295-.53467.56311l-.041,1.074h-1.37476a7.821,7.821,0,0,1-8.04211,0H407.8125V63.05055H406.5v-4.125l3.71149-2.99316a7.86039,7.86039,0,0,1,13.0517-1.69434h6.92432V51.23365h-21.5373L403.375,56.50886v6.65106H122.125V49.80055H93.81251v4.29163h9.22356a7.86882,7.86882,0,1,1-1.04993,9.08337H96.875v2H71.625v-2h1.56251v-1.625h-3v1.625H64.76385a7.88323,7.88323,0,1,1-1.04993-9.08337h9.47358V49.80055h-20.875s-5.375,13.35938-7.68751,13.35938H18.01563V61.67555H13.54688v-3H10.56251V57.2068H9.04688v1.46875H7.57813V57.19117H6.09375v1.48438H4.625V57.09217h-3V9.58143ZM392.875,5.67555H376.70831v3.25H392.875Zm19.375,0H397.70831v3.25H412.25ZM499.4375,36.2693H495.625s1.625,2.375,3.09375,4.53125h5.4375A14.75388,14.75388,0,0,0,499.4375,36.2693Zm-23.646,14.82324H509.625v-1H475.7915Zm3.3335-19.33368c-5.83331-5.83331-18.33331-13.25-24.58331-13.25V30.42555h8.5v1.33331Zm-46,14.35419h9.66669V34.17555H433.125Zm36.67773,3.27832.64453-.76562c-11.0332-9.29-49.56006-36.83008-49.94824-37.10742l-.58105.81445C420.30518,12.60914,458.80029,40.12672,469.80273,49.39137Zm-71.26123,2.4541h7.25V50.83961h-7.25Zm-.83319-15.57617h11.25V22.25886h-11.25ZM378.625,57.09217h17.83331V14.75886H378.625Zm-1.91846-5.2467.00391-1.00586-251.7085-1-.00391,1.00586ZM40.875,35.92555H288.91667V21.84217H40.875ZM20.083,57.05348H39.667V56.04762H20.083Zm19.37531-3.50293V13.34217h-19.375V53.55055ZM19.625,8.63356H373.18751V10.113H428.875c35.84424,0,55.99707,22.74414,65.68213,33.67383.87939.99219,1.67383,1.88965,2.38721,2.665l.14893.16113H507.5625v-1H497.53223c-.6709-.7334-1.41211-1.57031-2.22656-2.48926C485.52344,32.08473,465.16895,9.113,428.875,9.113h-54.6875V7.63356H19.625Zm-8.58594,45.459h1.00586v-40.75H11.03906Zm-3.334,0H8.71094v-40.75H7.70508Zm-3.166,0H5.54492v-40.75H4.53906Z"/><text class="cls-2 vehicle-text" transform="translate(302.36972 45.21951)">ICN</text></g></svg>
