<svg id="vehicles" xmlns="http://www.w3.org/2000/svg" width="648.51781" height="91.7693" viewBox="0 0 648.51781 91.7693"><defs><style>.cls-1,.cls-2{fill:none;stroke-miterlimit:10;}.cls-1{stroke:#ee2a7b;stroke-width:0.92379px;}.cls-2{font-size:42px;stroke:#fff;font-family:MyriadPro-Regular, Myriad Pro;}</style></defs><title>tram</title><g id="tram"><path id="shape" class="cls-1" d="M.46189,88.38788v-10.704c.97649-.037,2.01655.38,3.06441-.5101a8.45057,8.45057,0,0,1,1.59857-5.50406C4.85415,68.151,6.21112,64.94267,6.589,61.602c.60478-5.34612,1.98739-10.55937,2.47287-15.92884a7.79316,7.79316,0,0,1,2.36389-4.57226,12.26091,12.26091,0,0,1,9.45057-3.8852c5.09332.05071,10.18752.01263,15.28135.01268q38.01266.00033,76.02533.00895a2.61728,2.61728,0,0,1,1.8778.32508l.45581,1.37113c3.03611.634,5.92358-.57384,8.81347.27519.97081-.28252.84084-1.53928,1.37638-1.77444h82.68116l.34488,1.49753c2.15662.72026,4.17954-.71786,6.38917.29376,1.43276.656,3.65949-.57333,5.09169-1.80717h63.83652l.40168,1.57421a58.29554,58.29554,0,0,1,7.01192.06508,4.26876,4.26876,0,0,0,4.30248-1.62676h59.3423c.39486.72425.105,1.47823.77673,1.84145,1.05421-.6224,2.17811-.2445,3.27223-.31891,2.712-.18446,5.91632,1.51531,7.89479-1.84178h45.45875c5.34586-5.41781,10.011-11.22656,15.35774-17.14779-8.73679-6.05123-17.69029-11.20173-25.72746-17.33082-1.12273.55936-.574,1.57919-1.27235,2.02856-.50035-1.00832.13622-2.398-1.45439-3.31346-2.25476-.456-4.92918-.03517-7.57357-.21023-.931-.06163-2.07157.516-2.74-.67607h25.23094c-.30039.75088-.95973.68936-1.58463.69455-1.64838.01369-3.29732.00144-4.94458.0496a3.90107,3.90107,0,0,0-1.07453.37926V2.88066c5.91989,3.97456,11.69494,7.84908,17.46681,11.72824,2.883,1.93763,6.27012,3.20007,8.60528,6.5961-1.30608,5.70448-5.81074,10.18042-8.29654,16.03263h6.131c.83383,1.59545,1.85362,2.41187,3.58011,1.61592.31219-.14391.67512.22669.80494.62312a2.60882,2.60882,0,0,0-1.58641,1.37435c0,7.74738-.00009,15.74047,0,23.73355.00014,6.98349-.01139,13.967.01778,20.95038.00322.77107-.388,1.85342.97228,2.03943.79416-2.92086,1.067-30.15577.4913-48.19048,2.20711-.45249,4.41235-.97813,6.65689-.16961.602-.4971.06935-1.58049.92636-1.89239H522.8066c1.489,1.50691,1.48939,1.48076,3.67974,1.51715,2.52453.04194,5.04818.13611,7.52809.20635.30655-.63267.03589-1.4103,1.00892-1.817H538.608q43.75129,0,87.50259-.022c4.77028-.0072,8.98216,1.02976,12.01068,5.03766.1518.20087.31831.39063.46661.57172,1.09492,5.77305,2.2633,11.5154,3.25681,17.28785,1.00859,5.85985,1.41356,11.83726,3.33927,17.58027h2.87191v10.704H587.24234c-1.10136,1.05364-2.10038,2.00941-3.00757,2.87728h-6.163a8.49412,8.49412,0,0,1-1.16305-1.13351c-.55976-.81636-1.034-1.69142-1.54347-2.54224,1.11667-.21274.77321-1.116.82412-1.80206.11918-1.60566-.21672-3.25354.32979-5.03231,2.52719,0,4.92824-.06791,7.32365.01923,2.36241.08593,4.78573-.43078,7.35608.53353a13.71852,13.71852,0,0,1-.10658,6.12287,1.31141,1.31141,0,0,0,1.82366-.34977v-6.624a5.768,5.768,0,0,0-1.9511-1.92367H575.88055a6.17565,6.17565,0,0,0-2.12913,2.424v4.91622H559.41463v-6.074c-3.06264-1.61936-4.97-1.76451-14.71319-1.38361a4.62609,4.62609,0,0,0-3.68152,1.51766c0,2.15519-.01367,4.31771.00821,6.47986.00672.66575.19254,1.24922,1.22965,1.07435.78828-2.078-.20855-4.457.69215-6.73274,2.50334,0,4.90934-.06257,7.31058.01731,2.48323.08262,5.01238-.37278,7.64877.40077v6.09741c5.63738-1.02165,11.204.18456,16.61968-.6883.1211-1.96922.226-3.6741.33081-5.379l.61786.03991v6.44344c-1.26315.81468-2.68525.62781-4.07136.63079-4.44385.00956-8.8877.00356-12.42152.00356-2.10841.70327-1.8665,2.3301-3.17253,2.90579h-6.68615c-1.31019-.76778-1.15274-2.32545-2.80658-2.85974-3.73752.09837-7.85335-.19324-12.01833.25006a62.23759,62.23759,0,0,1-6.301.26892c-3.25882.00751-6.43611-.59929-9.67444-.59248-24.07409.0506-48.14832.02086-72.2225.03975a27.84746,27.84746,0,0,0-5.85867.32918c-3.38094.73708-6.78237-.49357-10.12267.36308-4.07972-1.49849-8.28417-.29054-12.59186-.78329a5.083,5.083,0,0,1-2.56462,3.06518h-6.39061l-1.974-2.899h-17.785l-2.11025,2.86856h-6.46572c-1.35511-.71361-1.80849-1.96784-2.92378-3.12475-17.62645,1.29693-35.49932.03395-53.37786.07441-17.75611.04019-35.50476,1.12265-53.00115-.05166-.9265,1.47842-1.52009,2.60432-2.60055,3.06233h-6.01059c-1.30529-.996-2.04156-2.267-3.24239-2.83663H241.58a4.62969,4.62969,0,0,1-2.41713,2.87856h-5.71606c-1.352-.70967-1.81054-1.95917-2.67519-2.86837L226.05,88.18957c.18477-2.57872-.37708-4.92837.31-7.43452,2.71266,0,5.24956-.06912,7.781.01914,2.60935.091,5.27044-.43018,8.025.4393v5.71462c5.90778-.02861,11.60956-.28058,17.319.2059.6291-2.05456-.43371-4.2964.56909-6.19325h14.89521c0,1.9276-.0192,3.68359.00987,5.43878.011.66291.20794,1.24737,1.27039,1.041.52338-2.56882.15129-5.19381.2523-7.96173-4.68059-1.96306-9.41969-.614-14.00917-1.02355a4.98137,4.98137,0,0,0-4.17734,1.25329c-.60745,2.04437.37893,4.27562-.55854,6.21807h-14.0339V79.71518c-.94036-.47163-1.6998-1.173-2.47276-1.18824-5.06654-.09985-10.136-.05144-15.22411-.05144-1.6009,3.24984-.13064,6.54845-1.183,9.88414a21.68645,21.68645,0,0,0-4.81748.06242c-3.06476.70933-6.11153.47429-9.172.35943-2.60538-.09779-5.20658-.43617-7.80993-.43983q-37.06655-.05213-74.1332-.01991a10.87931,10.87931,0,0,0-2.66647.04894c-3.89941,1.01516-7.82588.5587-11.72191.22033-4.26586-.37049-8.513-.2009-13.31284-.26352l-1.99694,2.9401h-6.4508c-1.35007-.7503-1.85474-1.95829-2.5683-2.88187H72.93849c-.98831,1.04033-1.44981,2.47859-2.75257,2.906H63.74136l-1.97778-2.9038Zm292.88917-48.246a1.02143,1.02143,0,0,0-.81119,1.09629q-.019,2.09157-.02275,4.18327c-.00163,12.93159-.02413,25.86329.04016,38.79456.00553,1.11363-.82687,2.54646.72638,3.37731.26056.66424.52252.66228.78583.00164,1.555-.83675.7183-2.27324.72472-3.39143.06725-11.70891.02935-23.41839.0616-35.12759.003-1.09247-.38411-2.27951.3992-3.27179,6.99118-.585,55.42955-.35649,58.42706.31326v13.656q0,7.06376.00044,14.12751.003,6.70984.012,13.41969c.6061-.359.76156-.71751.76187-1.07617q.018-22.33671.00523-44.67343a2.63287,2.63287,0,0,0-.11678-.73892c-.11223-.37688-.27206-.42824-.35244-.292-.70857,1.095.19511,2.42736-.79155,3.31264-9.28926.6338-55.3771.35542-58.21258-.35064-.46262-1.2808.3083-2.76543-.548-3.93727a.84929.84929,0,0,0-1.20088.67372ZM528.83481,87.59485c.02935.65094.42186.82851.99613.76528,1.81073-.91892,1.23581-2.6147,1.23917-4.05059q.04767-20.3872.01671-40.77458a14.78128,14.78128,0,0,0-.08218-2.65822,1.60587,1.60587,0,0,0-1.36946-1.41517c-.60087.09224-.79892.36119-.80032.785-1.32162.32969-.79747,1.42-.80433,2.18172-.048,5.32532-.02562,10.65127-.02562,15.977,0,8.74945-.02949,17.49913.04144,26.248C528.05427,85.62545,527.29432,86.97105,528.83481,87.59485Zm-90.98428,0c.02935.65094.42186.82851.99613.76528,1.81073-.91892,1.23581-2.6147,1.23917-4.05059q.04767-20.3872.01671-40.77458a14.777,14.777,0,0,0-.08218-2.65822,1.60587,1.60587,0,0,0-1.36946-1.41517c-.60087.09224-.79892.36119-.80032.785-1.32162.32969-.79747,1.42-.80433,2.18172-.048,5.32532-.02562,10.65127-.02562,15.977,0,8.74945-.02945,17.49913.04149,26.248C437.07,85.62545,436.31,86.97105,437.85052,87.59485Zm-80.38509.00161c1.32158-.32972.79743-1.42.80431-2.18174.048-5.32531.02562-10.65127.02562-15.977,0-8.74944.02949-17.49911-.04149-26.248-.00789-.97211.752-2.31771-.7884-2.94153-.02935-.651-.42186-.82852-.99615-.76531-1.81068.91894-1.23581,2.61469-1.23917,4.05058q-.04763,20.38721-.01673,40.77461a14.7791,14.7791,0,0,0,.08216,2.65822,1.63784,1.63784,0,0,0,1.50887,1.42652C357.23353,88.26368,357.48011,88.03294,357.46544,87.59646ZM211.5367,40.24658c-1.3216.32971-.79745,1.42-.80431,2.18174-.048,5.32531-.0256,10.65126-.0256,15.977,0,8.74944-.02952,17.49911.04146,26.248.00786.97212-.752,2.31772.7884,2.94153.02935.65095.42186.82852.99615.7653,1.81068-.91893,1.23585-2.61468,1.23919-4.05058q.04763-20.38721.01671-40.77461a14.77915,14.77915,0,0,0-.08218-2.65823,1.63781,1.63781,0,0,0-1.50885-1.42652C211.76858,39.57936,211.522,39.8101,211.5367,40.24658Zm-89.55994.00162c-.02938-.65094-.42187-.82851-.97749-.771-1.83549.92278-1.254,2.62136-1.25744,4.05633q-.04863,20.38721-.0171,40.77461a14.78243,14.78243,0,0,0,.08213,2.65823,1.63784,1.63784,0,0,0,1.50887,1.42652c.42906-.12917.67563-.35992.661-.7964,1.3216-.32969.79747-1.42.80434-2.18172.048-5.32531.02554-10.65126.02555-15.977,0-8.74944.02949-17.49911-.04147-26.248C122.75722,42.21763,123.51717,40.872,121.97676,40.2482ZM9.61842,80.755c2.52247,0,4.546-.06119,6.56406.01685,2.10527.08141,4.26205-.361,6.43915.37012a30.554,30.554,0,0,0,.02432,3.18408c.10546.96384-.454,2.06666.77658,3.31849-.10651-2.78917.1875-5.14347-.24267-7.83608H9.813V73.28636h7.7647c.76724.31912.15326,1.43192.9139,1.91156a3.40767,3.40767,0,0,0,2.44426-.04119c-.461-1.45048,1.02226-1.86612,1.71159-2.84058,0-3.5731.064-7.13931-.01814-10.70214-.08087-3.50827.361-7.04546-.32852-10.87059h-7.0421c.6797-1.97577,2.48829-.81991,3.28726-1.6882.64327-1.09461-.20967-2.4102.76692-3.30192,10.478-.68388,91.25715-.36716,94.25946.39568.11956,13.67675-.07866,27.38861.63058,41.08661V40.257c-1.17858,1.1573.0374,2.75605-1.08329,3.60511H26.02989c-.76644-1.93591.148-3.925-.735-5.9469-.89914,2.33166.23244,4.71269-.88481,6.9602H10.54074c.77878,1.22588,2.0929.25255,2.87986,1.29291-.73487,2.41037-2.88192,4.22516-3.57,6.8054.10093.16645.31591.37.35085.60071.848,5.60169-.75188,10.95981-1.70642,16.3748a1.891,1.891,0,0,1-2.12561,1.71885c-.26924-.02151-.5963.42654-.47865.88236.64741,1.01095,1.95821.15457,2.77794,1.03707A3.93466,3.93466,0,0,1,8.49,76.666c-1.33035.64378-3.21254-.48635-4.073,1.64241,1.47112.1409,2.86884-1.43667,4.27211-.12767.1796.822.43507,1.67949-.32907,2.386-2.34762.54179-4.80786-.355-7.20048.61943a25.26867,25.26867,0,0,0,.0285,3.13652c.12595.9747-.5489,2.11746.66494,3.0858.37738-1.96467-.15505-3.9024.46185-5.83557,2.23883.05029,4.34659-.37472,6.34037.26039.51036,1.90886-.17634,3.753.9632,5.40165Zm637.541,7.41961v-7.427H640.1349c-.60059-1.18247-.66317-1.99709-.13827-2.755,1.40646-.99251,2.61306.56295,4.07066.2996-.84213-2.2-2.98694-.82919-4.35416-1.86241.12138-1.01215-.4164-2.12364.349-3.08964.826-.587,2.18485.34777,2.6089-1.0874-.53078-1.19908-2.328-.308-2.88446-2.29463a17.06074,17.06074,0,0,0-.40109-3.46159,29.79274,29.79274,0,0,1-1.26511-9.662c.05483-1.27169-.01479-2.54827.01461-3.82164a4.24085,4.24085,0,0,0-1.52565-3.62987c-1.116-.91139-1.76476-2.002-1.4773-3.13529.82925-1.11313,2.11494-.076,2.60139-1.45354-2.51128,0-4.92264.06374-7.32906-.01764-2.486-.08406-5.01887.37958-7.56645-.381,0-1.17371.06846-2.19293-.01988-3.19837-.08367-.95263.36432-2.02613-.4996-3.114-.64917,2.06374.18438,4.04312-.6326,5.79656H535.46034c-1.146-.97063.13962-2.47845-1.11153-3.28811V87.32564l.58846.0036V45.80542h94.62427c.09343,1.19835.17038,2.1849.24089,3.08962,1.05661.8152,2.653.44338,3.192,1.87749-2.31155.53808-4.77943-.42161-7.07058.59037v21.251c1.49256.28243,1.24295,1.9196,2.00691,2.72742.86551-.02087,1.649.29349,2.2632-.27392.50884-.58984.00607-1.66113,1.25088-1.93354a61.20675,61.20675,0,0,1,7.54251.1728c-.40156,2.3967.338,4.5375-.64142,6.79768h-13.1889a40.89256,40.89256,0,0,0,.24136,7.72c1.09506-2.50389-.18862-4.92568.88857-6.87907h12.33855c.60614,2.2273-.16487,4.42661.81941,7.35523.1512-2.741.25368-4.59774.36292-6.578H646.224C646.88992,83.69229,646.09133,85.65047,647.15946,88.17465ZM429.06665,44.02272c-6.70981.01472-13.652.00426-20.59379.00643q-10.70233.00334-21.40459.00055c-6.96222,0-13.92447,0-20.68643,0-.83121-1.70272.02336-3.21942-.8384-4.47229a1.51368,1.51368,0,0,0-1.85187,1.42643,19.83231,19.83231,0,0,0-.06841,3.05181q-.00374,18.92013-.00147,37.84026c0,1.40149.03232,2.80381-.00677,4.20418a2.11519,2.11519,0,0,0,1.174,2.18759c1.65-.85045,1.132-2.40927,1.13526-3.73682.029-11.8489.0053-23.69793.03631-35.54681.00285-1.08887-.38663-2.28589.45609-3.23427h62.9583V49.6237q0,17.009.00112,34.018c.00014,1.01909-.02049,2.0402.03589,3.05663a1.38766,1.38766,0,0,0,1.2912,1.4645c1.43162-.87888.97294-2.27778.97518-3.48667q.03822-20.64007.01484-41.28025a17.33126,17.33126,0,0,0-.04807-2.29019,1.74508,1.74508,0,0,0-1.81591-1.66622C428.9169,40.66292,429.66276,42.141,429.06665,44.02272Zm12.5115,1.84417c7.0948-.64895,78.12765-.41678,81.07474.25863V49.862c0,11.592-.01377,23.18394.01937,34.7758.00369,1.28863-.552,2.86167,1.19922,3.59914,1.61982-.91532,1.07864-2.46926,1.08167-3.791q.04725-20.445.01741-40.89024a12.03506,12.03506,0,0,0-.08279-2.66435c-.19936-.862-.73237-1.627-1.86141-1.27078-.95105,1.32552.30132,3.09739-.82725,4.22581H442.04373c-.81063-1.15788.04261-2.47249-.81558-3.41283-.63344,3.76135.35,47.7193.35,47.7193Zm-222.43521-.00451c6.95653-.63777,60.49553-.41246,63.43377.265V59.80044c0,4.713-.00849,9.42606.00247,14.13907.01034,4.44655.04118,8.893.063,13.33956l.5357-.01613V40.24667c-1.16256,1.16755.02219,2.75492-1.07455,3.60528H219.58817c-.99727-1.435.23429-3.18979-1.00754-4.394-1.81911.34746-1.76017,1.65044-1.75975,2.9436q.007,21.59074.00406,43.18149a9.61986,9.61986,0,0,0,.03159,1.1451c.09576.79531.45721,1.3617,1.30814,1.42612,1.4277-.90136.95558-2.29908.96066-3.50663.0339-8.02474.01759-16.04968.01762-24.07456C219.143,55.7454,219.14293,50.91775,219.14293,45.86237Zm-12.3967-2.08831c-6.90856.60787-78.63283.38663-81.45249-.22275-.50951-1.22116.19282-2.66-.53327-3.90863-1.7054.83154-1.18824,2.26472-1.1951,3.4498-.04054,7.00318-.02009,14.0067-.02,21.01011.00013,7.13075-.011,14.26153.01729,21.39217.00308.77543-.38833,1.84375,1.53649,2.185.003-14.01442-.00066-27.90484.00226-41.89275H206.951V88.05966c1.04336-1.85166.702-3.15.70538-4.38849q.04588-16.80806.0143-33.61631c-.00247-3.05269-.04438-6.10541-.09144-9.15775-.00175-.11233-.2502-.22085-.55329-.47133C206.93033,41.57073,206.84787,42.55762,206.74623,43.77406Zm287.41,43.79687c.56993-7.24992.36549-33.6229-.248-36.44975-6.36359-.52111-21.07543-.34137-23.82069.291-.53726,7.22323-.32713,33.22692.31266,36.15872ZM28.98262,51.02809c-.54537,6.53829-.36233,33.58517.214,36.42035,5.53508.52645,21.04585.36243,23.80528-.25322V51.02809Zm318.49758.14573c-6.05508-.54447-21.38774-.38451-24.16959.21715-.51818,6.29436-.33165,33.22532.24973,36.06048,5.60289.52641,21.05854.35908,23.91986-.2827Zm248.00119-.10936V87.48107h24.106V51.06446Zm-319.128.10341c-6.96012-.61508-23.47474-.43257-24.16448.22193-.51874,1.02876.26768,2.32379-.69891,3.24225-.49825.02024-1.01015.20834-1.45507-.22406-.70752-.94587.11386-2.25207-.75258-3.28492H224.4861c-.02018,7.39665-.03684,14.57879.00677,21.71739,6.38322.56911,22.29995.39544,25.393-.31V58.70187c.84115-.03713,1.35212-.22526,2.13737.54231V72.89607h24.33014Zm291.54715,7.66342V72.89487c7.83609.57443,22.26355.36745,25.03774-.344q0-10.46411-.00938-20.96509c-.00014-.09717-.13706-.19822-.21854-.29-.08437-.09509-.17887-.18123-.21289-.21524H568.07591c-.62859,1.15.067,2.42785-.63634,3.37089a1.332,1.332,0,0,1-1.80326-.23083c-.46428-.91636.294-2.21021-.6361-3.12046-7.385-.54269-21.1389-.34085-23.91664.36776q0,10.463.00938,20.96378c.00014.09743.1358.19892.2169.29086.08409.09532.17882.18127.213.21549h23.98118V59.11971C566.31278,58.50806,566.80427,58.6311,567.90054,58.83129ZM107.4439,72.95686c-.0805-7.50674.142-14.67178-.097-21.77875H83.54975c-.778.8755-.05383,1.99591-.9904,2.62669a2.5993,2.5993,0,0,1-2.42925-.26825c-.44306-.77079.10028-1.83421-.65111-2.33788H55.85932c-.59914,5.92246-.432,18.98543.2402,21.63785H79.79241c.39222-4.794-.24447-9.46437.36073-14.01207,1.11874-.24467,1.97534-.48164,2.95.41114,0,2.08842-.07872,4.364.02175,6.63167.10426,2.35314-.45339,4.76543.36576,7.08959ZM423.1027,51.10877H399.08816c-.59765,1.19749.08932,2.47272-.70139,3.4158a1.626,1.626,0,0,1-1.466-.00585c-.95278-.96976.2183-2.55264-.90373-3.44424h-23.803V72.90886h24.37429V58.89955c.96836-.33032,1.56769-.46654,2.20356.41652,0,2.04317-.078,4.32709.02156,6.60325.10309,2.35655-.44911,4.77149.33637,7.02563H423.1027ZM72.46135,78.43552c-2.81107,0-5.48667-.08876-8.15367.02462-2.74352.11663-5.54818-.51649-8.44561.48958-.48578,2.94634-.73548,5.79009.44435,8.63115,1.38566-2.07791.05222-4.64883,1.16541-6.63956H72.09294c.56751,2.23332-.16087,4.435.78146,7.38155l.42806-7.14117c.94351,1.81869.05553,3.80363,1.00984,5.69,2.46782,0,4.87679.06278,7.281-.01738,2.48393-.08282,5.01386.37426,7.57206-.37966a22.52126,22.52126,0,0,1,.01937-2.42408c.079-.69013-.41521-1.55351.57982-2.0941.41152,1.77656-.21088,3.64213.80113,5.33089.09438-2.10378.18875-4.20755.293-6.53226,2.65725,0,5.054-.03085,7.44961.0085a60.814,60.814,0,0,1,7.3765.153c.73314,2.3793-.37769,4.72363,1.16224,7.35306,1.13539-3.33659.476-6.03929.67022-8.73057a8.80655,8.80655,0,0,0-2.61045-1.03538c-4.94338-.08779-9.88906-.04412-14.39928-.04412-2.94032,2.13648-1.55606,5.23241-2.50717,7.4338H74.726V80.81172A6.40645,6.40645,0,0,0,72.46135,78.43552Zm334.00371,2.5406h15.05082c.59368,2.29142-.32344,4.61222.82431,6.99639,1.13827-2.63669,1.17038-3.12044.69047-8.59933-4.28178-1.86122-8.88644-.57122-13.3449-.92457-1.6383-.12984-3.285-.0973-4.64942,1.29139-.48673,1.96359.359,4.17527-.54062,6.34125-2.37595,0-4.65781.08174-6.93114-.02261-2.35177-.10795-4.76543.47035-7.25878-.44175V79.35555c-4.8242-1.799-9.67741-.524-14.40506-.92455a4.85544,4.85544,0,0,0-3.85642,1.41194c.2926,2.5323-.6305,5.2471.98764,7.75124.78522-2.13411.335-4.411.71368-6.62523h14.8348c.66431,2.24072-.16361,4.4282.45492,6.15573a173.01336,173.01336,0,0,1,17.42971-.13043ZM426.8916,23.15885c-4.29429,4.38377-8.06018,8.99708-12.095,13.92855h5.95265c4.37012-4.51471,6.97818-10.16566,10.26019-15.55838-1.36479-1.26527-2.31962-2.89232-4.50148-3.656A12.046,12.046,0,0,1,426.8916,23.15885ZM320.83125,72.9999c0-3.91672.04636-7.45867-.01288-10.99885-.06076-3.631.27993-7.28275-.26975-11.09019-3.35934,0-6.51971-.03625-9.67888.01a86.84079,86.84079,0,0,0-9.94326.21341c0,3.80267-.04634,7.34463.01288,10.88481.06076,3.631-.27986,7.28275.25393,10.98078ZM447.72213,51.01863c.01381,7.54241-.01839,14.712.02226,22.09068,3.61091,0,6.76959.01713,9.928-.00475,3.25378-.02255,6.51652.10332,9.71192-.08774.52168-6.28113.36479-19.10693-.254-21.9982Zm49.80743,22.09068c3.53326,0,6.69329.03383,9.85224-.00939a94.70779,94.70779,0,0,0,9.71612-.17262c.51771-6.48675.35419-19.03342-.30137-22.01644-3.1107,0-6.27077-.03391-9.42973.00941a93.52285,93.52285,0,0,0-9.83726.18722ZM209.05661,40.31371c-.38175-.02611-.57336.39931-.57383.714q-.0336,22.91121.00471,45.82244a.66391.66391,0,0,0,.71851.6894.69733.69733,0,0,0,.69359-.72412q.03153-22.9112-.006-45.82244A.69493.69493,0,0,0,209.05661,40.31371Zm-90.83633-.01015a.66525.66525,0,0,0-.71734.691q-.03918,22.91119-.00544,45.82244a.732.732,0,0,0,.8169.7236c.39923.06537.59325-.398.59379-.69211q.04137-22.91118.00682-45.82245A.69554.69554,0,0,0,118.22028,40.30356ZM435.62521,87.53438c.39125.04413.5837-.39841.58421-.70367q.03724-22.91117.00061-45.8224a.706.706,0,1,0-1.412.004q-.03507,22.91118.00065,45.82241A.71064.71064,0,0,0,435.62521,87.53438ZM215.19476,40.30479c-.3968-.05764-.59018.39807-.5907.69622q-.0399,22.91118-.00457,45.82244a.72377.72377,0,0,0,.82.71479c.3968.05764.59018-.39807.5907-.69623q.03986-22.91118.00455-45.82244A.72375.72375,0,0,0,215.19476,40.30479Zm71.20441,47.23468a.666.666,0,0,0,.71681-.69179q.039-22.91119.00513-45.82245a.69467.69467,0,0,0-.6953-.72167.666.666,0,0,0-.71681.6918q-.039,22.91118-.00516,45.82244A.69471.69471,0,0,0,286.39918,87.53947Zm2.42779-.00512c.39136.04416.58379-.39841.58428-.70364q.03727-22.91119.00065-45.82244a.71054.71054,0,0,0-.82643-.69959c-.39136-.04417-.58379.39842-.58428.70364q-.03731,22.91119-.00065,45.82244A.71054.71054,0,0,0,288.827,87.53436Zm237.66712.00507a.68545.68545,0,0,0,.70162-.71276q.03416-22.91118-.0021-45.82241a.67382.67382,0,0,0-.71035-.70065.6854.6854,0,0,0-.70157.71276q-.03416,22.91119.00205,45.82242A.67381.67381,0,0,0,526.49409,87.53943ZM115.90281,40.3036a.69039.69039,0,0,0-.69819.7176q-.033,22.9112.00378,45.82244a.70115.70115,0,0,0,.83222.6878c.38615.03368.578-.39888.57851-.70958q.03517-22.9112-.00243-45.82245A.66948.66948,0,0,0,115.90281,40.3036Zm416.697,0a.6854.6854,0,0,0-.70157.71276q-.03423,22.91118.00205,45.82241a.67382.67382,0,0,0,.71035.70065.68544.68544,0,0,0,.70162-.71276q.03416-22.91118-.0021-45.82241A.67382.67382,0,0,0,532.59986,40.30361Zm-170.8035-.076c-.8114,1.22644-.44855,2.53456-.45124,3.76787q-.042,19.288-.01661,38.57611c.00012,1.27306-.0063,2.54646.02126,3.819.01449.67015.18951,1.25034,1.06788,1.13988.51559-2.41942.88579-40.22865.44648-46.08547C362.8276,40.958,362.81626,40.43066,361.79636,40.22761Zm-1.98946.076a.68472.68472,0,0,0-.7023.71192q-.03437,22.91121.00187,45.82245a.67457.67457,0,0,0,.70981.70142.68472.68472,0,0,0,.7023-.71192q.03437-22.9112-.00187-45.82244A.67459.67459,0,0,0,359.8069,40.30362Zm-68.9365.00852c-.385-.03178-.57684.399-.57733.71068q-.03479,22.9112.003,45.82244a.69957.69957,0,0,0,.83341.68564c.385.03177.57686-.399.57733-.71068q.03475-22.9112-.003-45.82244A.69957.69957,0,0,0,290.8704,40.31214Zm-6.14524.19795-.39449.16133V87.33274l.39449-.0021ZM71.3468,88.2153c-2.8715-.44162-5.74358-.923-8.59926,0Zm28.93183-.00377c-2.8979-.45637-5.755-.87627-8.59666,0Zm168.86974.179.14256-.77992c-2.13993,0-4.28012-.01784-6.41973.00977-.73893.00954-1.53307-.20835-2.27977.42636a3.63274,3.63274,0,0,0,.99272.32951C264.10535,88.40176,266.62691,88.39056,269.14836,88.39056Zm109.514-.5a18.55907,18.55907,0,0,0,9.08629-.11559A47.57125,47.57125,0,0,0,378.66236,87.89055Zm28.97522-.07048.03593.3738h8.43929l-.00275-.3738Zm149.17487.4066c-2.86193-.49228-5.72329-.89414-8.58092,0Zm20.4412-.43708c2.96137.53137,5.79063.843,8.59852,0ZM400.37227,1.86966c2.07467-.9694,2.41487,1.93294,4.18691,1.56951a1.47491,1.47491,0,0,0-.14816-2.15125A5.59748,5.59748,0,0,0,400.37227,1.86966ZM232.39446,87.78938c2.61135.44047,5.22264.942,7.82729,0Zm274.82126-10.2416c.17439-1.00689.22348-1.6226-.39451-2.06019-.60493-.09235-1.23021-.20912-1.65706.43357-.08041.6218-.18279,1.2495.54193,1.73861Zm-50.21916-.39716a1.29623,1.29623,0,0,0,1.94872.18838,1.19368,1.19368,0,0,0-1.74955-1.62424C456.807,76.16664,456.97434,76.668,456.99655,77.15062ZM293.35106,40.1419l-.06741,47.45143c.26056.66424.52252.66228.78583.00164q-.01207-11.18845-.02329-22.3769c-.004-7.45907.02063-14.9183-.02947-22.377-.00593-.88518.57418-2.07043-.77738-2.60248ZM240.78892,79.4401H227.121l.00709.3621h13.845Zm32.89221-.00513H260.747l.00625.36938h13.08049ZM21.90745,59.10064c-.24253-2.59749.30429-4.9526-.35328-7.25877H14.35025c-.0011,2.43134-1.4854,4.55212-.52848,7.47522C16.51729,59.22144,19.1085,59.52681,21.90745,59.10064ZM10.723,72.30345c1.995-.09555,3.84136.32131,5.7488-.3607-.01018-3.98569.17285-7.83434-.08695-11.61567a5.83006,5.83006,0,0,0-3.51074.109ZM17.31243,66.307c.08217,1.97523-.39407,4.0118.43228,6.02289,1.35126-.17108,2.619.285,3.89444-.33488V60.34081a9.24845,9.24845,0,0,0-4.34373.04488C17.29542,62.51377,17.23365,64.41329,17.31243,66.307ZM12.31182,52.68438a2.51416,2.51416,0,0,0,.02511,2.705A2.62515,2.62515,0,0,0,12.31182,52.68438Zm614.36585-.55962c.18858,2.46745-.48887,4.84319.37734,7.04835h7.7583c-1.05614-2.37954-.13421-4.80986-.82547-7.4457C631.40483,51.87057,629.04032,51.27434,626.67767,52.12475Zm8.82433,8.06993c-1.24257.00146-2.25653-.34007-3.27739.27834V72.19138h5.01206C637.67262,67.76707,635.84014,64.089,635.502,60.19468Zm-4.48174.01827c-1.53517-.06209-2.87014-.3296-4.35948.27864,0,1.985-.05283,3.87977.01456,5.77023.07056,1.97965-.33515,4.009.31779,5.88659h4.02713Zm4.28393-2.28481c1.0113-4.11217,1.0113-4.11217.39629-6.05769C634.78069,54.21829,635.054,55.87415,635.30418,57.92814ZM493.08841,51.7613c-3.32956.04236-6.701-.3919-10.01179.23634V64.70673c.71427-.28757,1.28093.22766,2.185-.792V54.81355a29.58121,29.58121,0,0,1,6.58866.1451c.5374,6.16135.36493,25.83931-.26068,28.792-2.06161-.01976-4.16675.34506-6.21459-.2307-.557-3.29878.29045-6.48754-.52135-9.53452-.66756-.02943-1.17785-.21694-1.7383.33138V85.93508h10.226C493.90633,79.61316,493.72186,54.68115,493.08841,51.7613Zm-2.31519,3.81536c-1.56149.06069-3.18915-.44426-4.60938.34237v26.949H491.041C491.61522,76.62861,491.435,58.42378,490.77323,55.57665Zm-19.82189-3.72109h10.22846V85.68534c-1.5333.86685-3.34128.25676-5.059.37224-1.63545.10994-3.28411.02368-4.88508.02368C470.55491,83.17837,470.35616,58.34523,470.95133,51.85556Zm8.74444,3.055h-7.33583V83.632h7.33583Zm3.69346,16.60051,1.53237-.09785a4.32021,4.32021,0,0,0-.11942-3.51411,1.86456,1.86456,0,0,0-1.61021.21384A3.67091,3.67091,0,0,0,483.38924,71.51111ZM44.59019,82.972c1.81175-.07936,3.68749.44156,5.37067-.33067V55.68971c-.65067-.06491-1.13337-.14714-1.61724-.1547-1.26023-.01969-2.521-.00662-4.01019-.00662C43.74359,61.94722,43.925,80.1245,44.59019,82.972Zm-4.646,2.95548h-10.229v-34.033c3.24289-.43584,6.62018-.05284,9.93674-.21854C40.3425,54.61183,40.54221,79.37913,39.94418,85.92746ZM30.4958,54.851V83.74343a48.91239,48.91239,0,0,0,7.21461-.08808V54.851Zm11.45454-2.87c-.561,8.271-.40357,10.86906.88434,12.79155.97779-3.31966-.0435-6.6355.679-9.81884H50.716V83.576H43.46989c-.65273-3.31432.42973-6.59111-.87069-10.1146-1.01568,2.96432-1.132,7.71323-.45828,12.408H52.31145V51.75311C48.63312,51.78976,45.26775,51.40487,41.95035,51.981Zm.42956,15.62886c-.56336,2.06954-.56336,2.06954.26261,3.80257C43.27339,70.161,43.78366,68.90387,42.37991,67.60986ZM338.5826,55.8596c-.58643,9.646-.34761,24.43272.45849,27.195,1.70272-.20263,3.47192.24984,5.32129-.33052V55.59158C342.21267,55.6026,340.3588,55.22232,338.5826,55.8596Zm-14.42792-4.00327h10.22774v33.83c-1.53652.86314-3.344.25662-5.062.37143-1.63534.10928-3.28369.02353-4.88426.02353C323.75788,83.17632,323.561,58.28883,324.15468,51.85632Zm1.46951,2.99141c-.52905,6.7119-.35186,25.90172.27958,28.96733,2.29428-.15182,4.64942.28767,6.93952-.24482.5189-6.58374.34169-25.77257-.26595-28.72251Zm19.14738,28.97282c-2.29678-.1683-4.65893.30451-6.90968-.25793-.73748-3.32377.478-6.6073-1.25732-9.58671a77.49934,77.49934,0,0,0-.40091,12.08145c3.67755-.04051,7.03577.22569,10.35584-.186.56193-6.58118.36836-31.19652-.27381-34.11079-3.32959.043-6.701-.3894-10.01342.2344-.48589,8.99886-.35032,10.99056.96309,12.73569.90763-3.2997-.06925-6.62014.65519-9.873h7.163C345.60255,61.43045,345.4224,80.79959,344.77157,83.82055Zm-7.76371-11.993c.81052-1.5667.794-2.74941-.1539-4.76893C336.01938,69.12862,335.71463,70.34492,337.00786,71.82751Zm273.7874,11.09877a21.06776,21.06776,0,0,0,5.65348-.13568c.57408-6.52484.38215-24.39282-.27094-27.1091h-5.38254ZM596.3385,51.85407h10.23V85.68371c-1.527.87382-3.33605.25681-5.0534.37358-1.63569.11122-3.28486.024-4.88666.024C595.94086,83.174,595.73884,58.47669,596.3385,51.85407Zm8.33495,31.77875c.73326-2.42.93262-23.23754.22456-28.719h-7.14987v28.719Zm13.74544-31.93158c-1.60437,0-3.25485-.091-4.89072.025-1.71282.12141-3.52285-.52106-5.20768.48831,0,3.76511-.00537,7.45125.0049,11.13735.00182.66342.1399,1.26432,1.43474,1.166.03579-3.16374.07229-6.39328.11139-9.85421,2.77671.27322,5.14575-.29507,7.43275.37213.56657,8.61665.34934,25.80224-.38518,28.77747-1.08928,0-2.22732.063-3.35523-.0171-1.21443-.08623-2.53363.43235-3.74956-.59,0-1.59656.10378-3.25137-.03094-4.88652-.12049-1.46315.65724-3.16571-.85077-4.66055a34.27536,34.27536,0,0,0-.151,12.30361h10.00657C619.39345,77.12524,619.154,54.61405,618.41888,51.70124ZM609.0627,71.94405a3.87824,3.87824,0,0,0-.00014-4.57662A3.87868,3.87868,0,0,0,609.0627,71.94405Zm-360.12724-.17272c0-2.23615.08353-4.52015-.02312-6.79524-.11034-2.35391.48092-4.77156-.34227-6.97238H225.414V72.05265C231.48862,72.61583,246.05032,72.44716,248.93546,71.77133Zm3.84872-13.40305c0,2.23705-.08456,4.52153.02338,6.79687.11167,2.35343-.48689,4.7717.345,6.96628h22.3901V58.08108C269.40323,57.51917,255.66307,57.68772,252.78418,58.36828ZM225.34177,51.7022c-.03985,2.0073-.33777,3.5989.22248,5.12449,7.71807.56262,20.58418.35786,23.37067-.38584V51.71942C241.0717,51.68678,233.2959,51.70544,225.34177,51.7022Zm27.4167.52262c.23716,1.53184-.36542,3.1571.40749,4.63249h22.252a7.30655,7.30655,0,0,0,.25564-1.208c.02882-1.13669.01071-2.27457.01071-3.6392C270.25309,51.44895,255.76562,51.58369,252.75847,52.22482ZM568.7227,58.3501V72.11652h23.40957c.03808-.8051.091-1.41765.09217-2.03029.00761-3.93168.00387-7.86336.00387-12.02349C584.92687,57.47605,571.36572,57.67181,568.7227,58.3501Zm-4.01826,13.4237c0-2.23532.08255-4.51887-.02287-6.7937-.10906-2.3543.47515-4.77131-.33945-6.9778H541.949V72.04977C547.90421,72.60863,561.81382,72.44557,564.70444,71.7738Zm27.3316-19.8483H568.621c-.00355,1.81332-.36833,3.41468.28667,4.94681H592.036ZM564.7477,56.475c-.2911-1.5274.3982-3.16986-.44193-4.59H541.949v4.87587C547.93207,57.31673,561.81037,57.15387,564.7477,56.475ZM83.73319,58.06506c0,2.50719-.044,4.77612.01212,7.04257.05848,2.362-.25308,4.75565.24456,7.29384,7.68964-.01738,15.11988.029,22.6796-.03279V58.06506Zm-4.57337-.03069H56.44146V72.26346H79.16828C79.31333,67.342,79.38138,62.71455,79.15983,58.03437Zm27.44184-1.0455c.218-2.04049.46591-3.62445-.143-5.144H83.87745v5.16757C91.695,57.00645,99.10967,57.039,106.60167,56.98887Zm-27.64442-5.146h-22.709c.04822,1.80347-.27368,3.39021.28141,5.05809H79.09138C79.25572,54.98191,79.53225,53.3984,78.95725,51.84286Zm293.865,6.52382c0,2.23653-.084,4.52072.02324,6.79591.11088,2.3537-.48344,4.77159.34339,6.96974h22.39092V58.08288C389.49611,57.5218,375.705,57.6887,372.82227,58.36668Zm26.76008-.32691c0,2.48812-.02777,4.76108.00761,7.03306a70.25934,70.25934,0,0,0,.11657,7.053c8.6771.56958,20.0668.35936,22.73324-.39959V58.03978ZM422.1608,51.8824c-8.34769-.55349-19.84359-.3454-22.39043.36831v4.62481h22.6512C422.4372,55.00051,422.77791,53.4029,422.1608,51.8824Zm-26.47939,4.61187c-.06188-1.56141.44538-3.18948-.34295-4.60774H372.97657v4.87733C379.05536,57.32145,392.84529,57.15572,395.68141,56.49427ZM576.46257,79.7328h13.84609l-.00331-.33662H576.45911Zm-32.65361.02225h12.93116l-.00653-.36938H543.65314Zm-486.27672.00553H72.01551l-.0043-.36938H57.41066Zm47.17953-.326H91.01083l.00589.36938h13.845Zm270.11976.32258h12.94381l-.00586-.36938H374.689Zm45.844-.31656H407.62228l.002.35219H420.677ZM301.73417,65.09444c.08309,2.36109-.3548,4.76656.26742,7.062H319.8441V57.96152H301.7169C301.7169,60.54665,301.65425,62.82305,301.73417,65.09444Zm9.14591-13.38159c-3.00118.05526-6.02685-.26317-9.12124.26031.07191,1.82256-.43448,3.45034.35293,4.869h17.7748V51.70125C316.69579,51.70125,313.78706,51.65932,310.88008,51.71285Zm146.79645,6.11738c-3.0008.0586-6.02779-.27949-9.16145.28336,0,2.49069-.08414,4.77484.02319,7.05.11111,2.35345-.48407,4.77121.34365,6.96824H466.6857V57.81791C463.49314,57.81791,460.58385,57.77345,457.67652,57.83023Zm0-.81456c3.001-.056,6.02695.2668,9.12071-.26384-.07252-1.81932.43525-3.44735-.35335-4.865H448.66912v5.14062C451.86069,57.02743,454.76947,57.06992,457.67648,57.01568Zm58.85426,8.06115c-.02683-2.36917.1133-4.75284-.10369-7.259-3.30749,0-6.22546-.06363-9.13933.01766-2.99212.08347-6.02466-.38929-8.891.32224V72.16285h18.13959C516.53629,69.61933,516.55645,67.34782,516.53074,65.07683Zm-9.157-8.06116c3.001-.056,6.02695.26681,9.12071-.26383-.07252-1.81932.43525-3.44735-.35335-4.865H498.36642v5.14062C501.558,57.02743,504.46677,57.06992,507.37377,57.01567Zm-386.088-14.95072q-.014,21.85656,0,43.71314c.00047.72063-.19307,1.564.78314,1.9018q0-23.75836,0-47.51672C121.09272,40.50093,121.28624,41.34433,121.28578,42.06495Zm90.94183,43.71315q.014-21.85657,0-43.71314c-.00047-.72064.19306-1.564-.78312-1.9018q0,23.75836,0,47.51672C212.42064,87.3421,212.22716,86.49873,212.22761,85.77809ZM356.77453,42.06494q-.014,21.85657,0,43.71314c.00044.72064-.19306,1.564.78312,1.9018q0-23.75836,0-47.51672C356.58149,40.50093,356.775,41.34431,356.77453,42.06494Zm81.76693,43.71314q.014-21.85656,0-43.71312c-.00047-.72063.1931-1.564-.7831-1.90181q0,23.75835,0,47.51671C438.73451,87.3421,438.541,86.49873,438.54146,85.77809Zm90.98428,0q.014-21.85656,0-43.71312c-.00047-.72063.1931-1.564-.7831-1.90181q0,23.75835,0,47.51671C529.7188,87.3421,529.52528,86.49873,529.52574,85.77809ZM478.53958,55.5759c-1.81171.07622-3.68632-.43841-5.37386.32835V82.86691H478.806C479.38031,76.67375,479.20121,58.4258,478.53958,55.5759ZM36.94995,82.73146c.58937-8.21779.36305-24.41074-.34466-27.02636H31.21716V82.94132C33.322,82.97174,35.16658,83.27609,36.94995,82.73146ZM331.73807,55.57461c-1.8118.08122-3.68821-.44341-5.3687.332V82.86871h5.64191C332.59131,76.52055,332.409,58.43539,331.73807,55.57461Zm272.16217-.12482c-1.7678.40322-3.66705-.44893-5.34432.46335V82.867h5.64037C604.77074,76.66733,604.59145,58.42557,603.90024,55.44979Z"/><text class="cls-2" transform="translate(144.48058 80.66207)">10</text></g></svg>