<svg id="layer" xmlns="http://www.w3.org/2000/svg" viewBox="0 0 116.65172 116.70833"><defs><style>.class-1,.class-2{fill:#fff;stroke:none;}.class-3{fill:#ed1c24;}</style></defs><title>mondaine_clock</title><g id="mondaine_clock"><g id="clock_face"><path id="path4194" class="class-1" d="M74.45329,7.39353c-.31173-.19755-.26253-.60769.272-2.26734.61808-1.9191.69033-2.01669,1.36711-1.84683a3.022,3.022,0,0,1,.83907.30387,8.05081,8.05081,0,0,1-.50924,2.09232c-.63812,1.98129-1.02321,2.3173-1.96893,1.718Z"/><path id="path4192" class="class-1" d="M45.88438,4.12382a8.2922,8.2922,0,0,1-.29385-2.25627,1.96827,1.96827,0,0,1,.90084-.14691c.713,0,.77339.10894,1.11286,2.00848.2997,1.67705.29552,2.04866-.02536,2.25194-.95021.602-1.24909.27445-1.69451-1.85725Z"/><path id="path4190" class="class-1" d="M69.091,5.98108c-.32086-.20329-.325-.57489-.02533-2.25194.33946-1.89954.39982-2.00848,1.11285-2.00848a1.96827,1.96827,0,0,1,.90083.14691,8.2923,8.2923,0,0,1-.29385,2.25627c-.44542,2.1317-.7443,2.45928-1.69451,1.85725Z"/><path id="path4188" class="class-1" d="M51.74491,4.07446a20.54386,20.54386,0,0,1-.17879-2.25216c0-.85556.07876-.94775.80966-.94775.79693,0,.81276.03145,1.00688,2.00147a11.89189,11.89189,0,0,1,.107,2.07558,4.59285,4.59285,0,0,1-.82809.25068C51.9631,5.36944,51.91416,5.30922,51.74491,4.07446Z"/><path id="path4184" class="class-1" d="M63.72766,5.18327c-.63214-.11964-.66084-.21128-.496-1.58328.09623-.801.17606-1.74185.17742-2.09086.002-.51652.15987-.63457.84855-.63457.77225,0,.8461.08272.8461.94775,0,1.37979-.33051,3.571-.53189,3.52637C64.47657,5.32755,64.09669,5.25312,63.72766,5.18327Z"/><path id="path4276-0-2" class="class-1" d="M31.08448,6.77734c.64743.66922,7.05991,12.08738,6.83114,12.16363L34.413,20.47669c-.5168-.5168-6.92555-11.76237-6.81371-11.95617.26848-.46527,3.2694-1.96623,3.48519-1.74318"/><path id="path4292-1" class="class-1" d="M19.10976,101.17486c-.48576-.43577-.347-.68205,1.26295-2.24168,1.32668-1.2852,1.83731-1.38355,2.37985-.45836.18673.31844-.04245.65806-1.2685,1.87976-.823.8201-1.60849,1.4168-1.74549,1.326a7.10591,7.10591,0,0,1-.62881-.50574Z"/><path id="path4302" class="class-1" d="M56.36069,109.17529v-7.05083h3.94847v14.10166H56.36069Z"/><path id="path4300" class="class-1" d="M51.56612,114.99633a20.544,20.544,0,0,1,.17879-2.25216c.16924-1.23476.21818-1.295.91661-1.12782a4.59253,4.59253,0,0,1,.82809.25069,11.90418,11.90418,0,0,1-.107,2.07557c-.19412,1.97-.20995,2.00147-1.00688,2.00147-.7309,0-.80966-.0922-.80966-.94776Z"/><path id="path4298" class="class-1" d="M63.28718,113.94262a11.89184,11.89184,0,0,1-.107-2.07557,4.59256,4.59256,0,0,1,.82809-.25069c.69843-.16716.74737-.10694.91661,1.12782a20.54406,20.54406,0,0,1,.17879,2.25216c0,.85556-.07876.94776-.80966.94776-.79694,0-.81276-.03146-1.00688-2.00147Z"/><path id="path4296" class="class-1" d="M45.59053,114.95108a8.29237,8.29237,0,0,1,.29385-2.25627c.44542-2.13171.74429-2.45928,1.69451-1.85725.32086.20329.325.57489.02536,2.25194-.33947,1.89954-.39983,2.00848-1.11286,2.00848a1.96825,1.96825,0,0,1-.90084-.14691Z"/><path id="path4294" class="class-1" d="M69.06561,113.08951c-.2997-1.67705-.29552-2.04866.02533-2.25194.95022-.602,1.24909-.27445,1.69451,1.85725a8.29266,8.29266,0,0,1,.29385,2.25627,1.96823,1.96823,0,0,1-.90083.14691c-.713,0-.7734-.10894-1.11286-2.00848Z"/><path id="path4292" class="class-1" d="M40.21429,113.49341c-.63137-.165-.62078-.44747.0964-2.57115.591-1.75.99993-2.07126,1.90586-1.49715.31182.1976.26357.60447-.267,2.25194-.35619,1.10593-.78128,1.99605-.94464,1.97805a7.10715,7.10715,0,0,1-.79059-.1617Z"/><path id="path4290" class="class-1" d="M74.72529,111.69245c-.53453-1.65966-.58372-2.0698-.272-2.26734.94572-.59932,1.33082-.2633,1.96893,1.718a8.05082,8.05082,0,0,1,.50924,2.09233,3.02208,3.02208,0,0,1-.83907.30387c-.67678.16986-.749.07227-1.36711-1.84683Z"/><path id="path4288" class="class-1" d="M34.71464,111.36937c-.349-.16833-.63457-.396-.63457-.506a17.59371,17.59371,0,0,1,.84615-2.06608c.81792-1.80388.86968-1.85543,1.55118-1.54493.38777.17668.705.43056.705.56419a24.57058,24.57058,0,0,1-1.745,3.87791C35.3889,111.684,35.06365,111.53769,34.71464,111.36937Z"/><path id="path4286" class="class-1" d="M80.31658,109.88823a14.92528,14.92528,0,0,1-.82917-2.07165c0-.13362.31726-.38751.705-.56419.6815-.31051.73326-.259,1.55118,1.54493a17.73062,17.73062,0,0,1,.84615,2.06391c0,.10877-.3249.34579-.722.52673-.70271.32018-.74418.28007-1.55118-1.49972Z"/><path id="path4284" class="class-1" d="M29.2855,108.52188c-.85315-.51313-1.5243-1.052-1.49145-1.1974.1061-.46973,6.63616-11.69558,6.89713-11.85687a13.784,13.784,0,0,1,3.55771,1.71787c.13972.11987-6.90132,12.10161-7.16173,12.18712A5.94428,5.94428,0,0,1,29.2855,108.52188Z"/><path id="path4282" class="class-1" d="M84.32453,107.5536c-4.24237-7.27293-5.97144-10.31-5.903-10.36866a13.78856,13.78856,0,0,1,3.55717-1.71733c.261.16128,6.791,11.38713,6.89713,11.85687a10.6309,10.6309,0,0,1-3.24172,2.13168,8.50224,8.50224,0,0,1-1.30954-1.90255Z"/><path id="path4280" class="class-1" d="M24.23294,105.245l-.66528-.50182,1.21136-1.66188c.66625-.914,1.25077-1.7108,1.29893-1.77059s.413.1045.81067.36508l.7231.4738-1.18888,1.69486A18.95667,18.95667,0,0,1,25.0661,105.643c-.09234.05706-.46726-.12206-.83316-.39806Z"/><path id="path4278" class="class-1" d="M90.36788,104.02523,89.092,102.26548l.58757-.49356a2.35073,2.35073,0,0,1,.76785-.49022,24.056,24.056,0,0,1,2.51747,3.40057c.04451.10119-.23455.3907-.62012.64334-.69734.45691-.7078.45-1.97691-1.30039Z"/><path id="path4274" class="class-1" d="M94.85184,100.2692l-1.344-1.57322.60047-.60047.60047-.60047,1.4016,1.53912a7.78744,7.78744,0,0,1,1.4144,1.88173c.01091.29186-.81351.92653-1.20355.92653a13.1491,13.1491,0,0,1-1.46935-1.57322Z"/><path id="path4272" class="class-1" d="M15.19376,97.0664a2.99628,2.99628,0,0,1-.292-.67082A13.14894,13.14894,0,0,1,16.475,94.92624l1.57322-1.344.60047.60047.60047.60047-1.53911,1.4016C16.00694,97.73568,15.6238,97.86993,15.19376,97.0664Z"/><path id="path4270" class="class-1" d="M98.95977,96.18472l-1.53912-1.4016.60047-.60047.60047-.60047,1.57322,1.344a13.14831,13.14831,0,0,1,1.57322,1.46935c0,.39-.63466,1.21445-.92653,1.20355a7.78769,7.78769,0,0,1-1.88173-1.4144Z"/><path id="path4268" class="class-1" d="M11.41862,92.41918c-.45691-.69734-.45-.7078,1.30039-1.97691l1.75974-1.27586.49356.58757a2.35059,2.35059,0,0,1,.49022.76785A24.056,24.056,0,0,1,12.062,93.03931C11.96076,93.08381,11.67126,92.80476,11.41862,92.41918Z"/><path id="path4266" class="class-1" d="M102.83313,91.88026a8.8463,8.8463,0,0,1-1.62169-1.35842,2.27245,2.27245,0,0,1,.48608-.76785l.49356-.58757,1.75975,1.27586c1.7421,1.26307,1.7552,1.28278,1.30722,1.96649-.24889.37985-.53312.68141-.63161.67014a15.00956,15.00956,0,0,1-1.79331-1.19864Z"/><path id="path4264" class="class-1" d="M8.6175,88.11461c-1.13888-1.81338-1.393-2.39882-1.14519-2.63831.3543-.3424,12.00754-7.073,12.08657-6.98084.03737.04358.4819.81863.98783,1.72234.77784,1.38939.85942,1.69908.52833,2.00558-.21535.19935-2.676,1.66964-5.46815,3.2673s-5.35451,3.08439-5.69418,3.30385C9.33411,89.16836,9.25235,89.12543,8.6175,88.11461Z"/><path id="path4262" class="class-1" d="M101.52294,85.75449c-3.1596-1.82966-5.87345-3.45537-6.03077-3.61269-.19336-.19336.01156-.81758.6324-1.92657.50513-.90229.949-1.67619.98638-1.71976.08018-.09348,11.73527,6.64122,12.09414,6.9884.223.21579-1.27792,3.21671-1.74318,3.48519a60.93088,60.93088,0,0,1-5.939-3.21457Z"/><path id="path4260" class="class-1" d="M5.35628,81.94216C5.03611,81.23945,5.07621,81.198,6.856,80.391a14.92517,14.92517,0,0,1,2.07165-.82917c.13363,0,.38751.31726.56418.705.31052.6815.259.73326-1.54492,1.55118a17.73054,17.73054,0,0,1-2.0639.84615C5.77424,82.66417,5.53722,82.33927,5.35628,81.94216Z"/><path id="path4258" class="class-1" d="M108.61271,81.7953c-1.69308-.79036-1.74556-.84619-1.4354-1.52693.17706-.38861.43126-.70656.56488-.70656a14.92528,14.92528,0,0,1,2.07165.82917c1.77979.807,1.81989.84848,1.49972,1.55118C110.91121,82.82522,110.80678,82.81955,108.61271,81.7953Z"/><path id="path4256" class="class-1" d="M3.21428,76.28514a1.93088,1.93088,0,0,1-.10108-.80784c.04633-.03821.95571-.35579,2.02085-.70574,1.60312-.5267,1.97877-.56971,2.18144-.24979.57789.91226.25955,1.31976-1.4935,1.91177-2.22592.75171-2.38405.7427-2.60771-.14841Z"/><path id="path4254" class="class-1" d="M110.72259,76.41367c-1.62543-.56661-1.93586-.99584-1.36822-1.8919.20267-.31993.57831-.27691,2.18144.24979,1.06514.35,1.97452.66753,2.02085.70574a1.9308,1.9308,0,0,1-.10108.80784c-.21957.87484-.54774.89028-2.733.12853Z"/><path id="path4252" class="class-1" d="M1.79316,71.15371a1.96828,1.96828,0,0,1-.14691-.90083c0-.713.10894-.7734,2.00848-1.11286,1.67705-.2997,2.04866-.29552,2.25195.02533.602.95022.27445,1.24909-1.85726,1.69451a8.29269,8.29269,0,0,1-2.25627.29385Z"/><path id="path4250" class="class-1" d="M112.5558,70.85785c-2.06757-.43434-2.39431-.74283-1.79264-1.6925.20329-.32087.57489-.325,2.25194-.02533,1.9224.34356,2.00848.39255,2.00848,1.14322,0,.43136-.09518.83376-.21152.89422a10.06593,10.06593,0,0,1-2.25627-.3196Z"/><path id="path4248" class="class-1" d="M.80015,64.36846c0-.79694.03145-.81276,2.00147-1.00688a11.8919,11.8919,0,0,1,2.07558-.107,4.59282,4.59282,0,0,1,.25068.82809c.16716.69843.10694.74737-1.12782.91661a20.544,20.544,0,0,1-2.25216.17879C.89234,65.17812.80015,65.09935.80015,64.36846Z"/><path id="path4246" class="class-1" d="M112.27289,64.974c-.83593-.1037-.90134-.18116-.73592-.87147a4.79069,4.79069,0,0,1,.25566-.84793,11.90418,11.90418,0,0,1,2.07557.107c1.97.19412,2.00147.20995,2.00147,1.00688,0,.78422-.04209.80824-1.33966.76452-.73681-.02482-1.75253-.09636-2.25713-.159Z"/><path id="path4244" class="class-1" d="M.51812,58.40932V56.43509H14.61978v3.94846H.51812Z"/><path id="path4242" class="class-1" d="M102.05007,58.40932V56.43509h14.10166v3.94846H102.05007Z"/><path id="path4240" class="class-1" d="M1.99879,53.40825C.87059,53.30663.80015,53.24908.80015,52.429v-.87127l2.16266.18281a21.04878,21.04878,0,0,1,2.23136.25291,2.57453,2.57453,0,0,1-.08029.84569c-.16.83266-.16943.83439-3.11509.56908Z"/><path id="path4238" class="class-1" d="M111.56257,52.87377a2.777,2.777,0,0,1-.08691-.8803,21.049,21.049,0,0,1,2.23137-.25291l2.16266-.18281v.88748c0,.73161-.11146.88792-.63457.88993-.349.00141-1.2831.08038-2.07576.17563-1.41487.17-1.444.15838-1.59678-.637Z"/><path id="path4236" class="class-1" d="M3.12692,47.61534c-1.34914-.25936-1.48067-.35211-1.48067-1.04408a1.96263,1.96263,0,0,1,.15239-.91182,20.61793,20.61793,0,0,1,4.3235.797,1.57819,1.57819,0,0,1-.07588.79946C5.846,48.054,5.57931,48.08679,3.12692,47.61534Z"/><path id="path4234" class="class-1" d="M110.62358,47.25587a1.57842,1.57842,0,0,1-.07589-.79946,20.618,20.618,0,0,1,4.3235-.797,1.93136,1.93136,0,0,1,.15239.90273c0,.6992-.12235.77289-1.79522,1.08113C110.8394,48.08349,110.831,48.08224,110.62358,47.25587Z"/><path id="path4232" class="class-1" d="M4.80344,41.96614c-1.66568-.55959-1.767-.64281-1.59877-1.31314a3.02875,3.02875,0,0,1,.30416-.84022,8.05124,8.05124,0,0,1,2.09232.50924c1.92739.62076,2.17112.87137,1.79661,1.84733-.212.55237-.38578.53876-2.59432-.20321Z"/><path id="path4230" class="class-1" d="M109.27209,42.16934c-.37452-.976-.13078-1.22657,1.7966-1.84733a8.05082,8.05082,0,0,1,2.09233-.50924,3.02208,3.02208,0,0,1,.30387.83907c.16934.67472.07127.74935-1.75979,1.33908-2.3119.7446-2.21838.73774-2.433.17842Z"/><path id="path4228" class="class-1" d="M13.36377,34.87541c-3.25025-1.90432-5.94664-3.57534-5.992-3.71337a9.49912,9.49912,0,0,1,1.98257-3.29293c.33549.005,11.73645,6.59582,11.91817,6.88986a10.865,10.865,0,0,1-1.8528,3.60242C19.33921,38.34842,16.614,36.77974,13.36377,34.87541Z"/><path id="path4226" class="class-1" d="M96.16014,36.66869c-.62626-1.13917-.8491-1.8107-.66273-1.99708.5225-.5225,11.76875-6.935,11.96451-6.822.46527.26848,1.96623,3.2694,1.74318,3.48519-.21328.20634-11.90945,7.0502-12.0488,7.0502-.02895,0-.47721-.77232-.99616-1.71628Z"/><path id="path4224" class="class-1" d="M6.7918,36.41447c-1.71261-.79257-1.75464-.8376-1.43541-1.53824.18087-.397.41785-.72177.52662-.72177a17.72952,17.72952,0,0,1,2.0639.84615c1.80389.81792,1.85544.86968,1.54492,1.55118-.39882.87532-.52583.86886-2.7-.13732Z"/><path id="path4222" class="class-1" d="M107.178,36.5518c-.31051-.6815-.259-.73326,1.54493-1.55118a17.72977,17.72977,0,0,1,2.06391-.84615c.10877,0,.34579.32491.52673.722.32018.70271.28007.74419-1.49972,1.55118a14.92589,14.92589,0,0,1-2.07165.82917c-.13362,0-.38751-.31726-.56419-.705Z"/><path id="path4220" class="class-1" d="M12.719,26.37636c-1.75043-1.26911-1.75731-1.27957-1.30039-1.97691.25264-.38558.54214-.66463.64334-.62013a24.05664,24.05664,0,0,1,3.40057,2.51747,2.34805,2.34805,0,0,1-.49022.76785l-.49356.58757Z"/><path id="path4218" class="class-1" d="M101.60135,26.963c-.26058-.39771-.42487-.76251-.36508-.81067s.85656-.63269,1.77059-1.29894l1.66188-1.21136.50182.66528c.276.3659.45513.74082.39806.83316A18.95624,18.95624,0,0,1,103.77,26.49725l-1.69486,1.18888Z"/><path id="path4216" class="class-1" d="M16.34415,21.7891c-1.37387-1.2193-1.48745-1.40707-1.18872-1.96526.47038-.87891.82127-.76846,2.54439.80088,1.49954,1.36571,1.519,1.40333,1.01391,1.96143a1.92883,1.92883,0,0,1-.68276.56A12.60984,12.60984,0,0,1,16.34415,21.7891Z"/><path id="path4214" class="class-1" d="M97.95611,22.58616c-.50507-.5581-.48562-.59572,1.01391-1.96143,1.72312-1.56933,2.074-1.67978,2.54438-.80088.29873.55818.18515.746-1.18872,1.96526a12.60922,12.60922,0,0,1-1.68682,1.35709,1.92884,1.92884,0,0,1-.68277-.56Z"/><path id="path4212" class="class-1" d="M80.05148,20.57705c-.85315-.48417-1.58683-.90988-1.63041-.946-.09393-.07791,6.64326-11.73513,6.9884-12.09189.21561-.22287,3.21477,1.27681,3.48612,1.74318.14881.25576-6.64523,11.966-7.01091,12.084a5.60084,5.60084,0,0,1-1.83322-.78928Z"/><path id="path4210" class="class-1" d="M20.472,17.672c-1.49081-1.7-1.58373-1.98123-.79413-2.40381.75283-.40291.64783-.46553,2.132,1.27168,1.29254,1.51293,1.31967,1.58152.83665,2.11525a1.91846,1.91846,0,0,1-.667.54806A10.37822,10.37822,0,0,1,20.472,17.672Z"/><path id="path4208" class="class-1" d="M94.02339,18.65509c-.483-.53373-.45589-.60232.83665-2.11525a13.001,13.001,0,0,1,1.46115-1.56363c.35291,0,1.21635.62186,1.21635.876a15.76031,15.76031,0,0,1-2.84713,3.35091A1.91821,1.91821,0,0,1,94.02339,18.65509Z"/><path id="path4206" class="class-1" d="M24.81158,13.79534,23.581,12.06541l.65859-.49677c.36222-.27323.73414-.45008.82647-.393a18.83,18.83,0,0,1,1.3521,1.792l1.18422,1.68822L26.971,15.098a2.81219,2.81219,0,0,1-.78015.43473A11.47849,11.47849,0,0,1,24.81158,13.79534Z"/><path id="path4204" class="class-1" d="M89.6988,15.098l-.63137-.44223,1.18422-1.68822a18.828,18.828,0,0,1,1.3521-1.792c.09234-.05707.46424.11979.82647.393l.65859.49677-1.23054,1.72993A11.47832,11.47832,0,0,1,90.479,15.53277,2.81241,2.81241,0,0,1,89.6988,15.098Z"/><path id="path4202" class="class-1" d="M56.36069,7.64335V.59252h3.94847V14.69418H56.36069Z"/><path id="path4200" class="class-1" d="M34.92622,8.02131a17.72949,17.72949,0,0,1-.84615-2.06391c0-.10877.32491-.34579.722-.52673.70271-.32017.74419-.28008,1.55118,1.49972A14.92611,14.92611,0,0,1,37.18243,9.002c0,.13363-.31726.38751-.705.56419C35.7959,9.87675,35.74414,9.8252,34.92622,8.02131Z"/><path id="path4198" class="class-1" d="M80.122,9.55539c-.80369-.3876-.80053-.4303.19459-2.625.807-1.77979.84848-1.81989,1.55118-1.49972.39711.18093.722.418.722.52673a31.34277,31.34277,0,0,1-1.76551,3.92311C80.787,9.87,80.471,9.72371,80.122,9.55539Z"/><path id="path4196" class="class-1" d="M40.24762,5.67555a8.05081,8.05081,0,0,1-.50924-2.09232,3.02189,3.02189,0,0,1,.83907-.30387c.67678-.16986.749-.07227,1.36711,1.84683.53453,1.65965.58373,2.06979.272,2.26734-.94572.59932-1.33081.2633-1.96893-1.718Z"/></g><path id="minute_hand" class="class-2" d="M59.87059,3.5273c.55754.054.65478,2.44178.99733,24.48907l.37956,24.42925.24469,14.031c.05819,3.22705.06768,5.93972.02107,6.02815a15.55185,15.55185,0,0,1-3.07368.129l-2.989-.03181.01517-4.59138c.00834-2.52526-.02848-4.64088-.08184-4.70139l.26051-33.95726C55.75428,3.88677,55.764,3.605,56.53295,3.473Z"/><path id="hour_hand" class="class-2" d="M62.0334,56.62932l.20342,6.84891.07015,4.2855c.03858,2.357.02362,4.38049-.03323,4.4966-.1491.30445-7.23807.36921-7.48957.06842a21.8182,21.8182,0,0,1-.17633-4.054l.03446-3.80187.08736-3.58347-.13129-7.10927c.07677-.0248.20881-7.64919.2935-16.94283.13175-14.456.22766-16.8992.66383-16.90908,4.44758-.10079,5.4714-.00769,5.55149.50482.04595.294.24916,7.64927.4516,16.34505Z"/><path id="second_hand" class="class-3" d="M59.29294,78.56217l-.83246.11168a3.41914,3.41914,0,0,1-.96715.04139c-.07408-.03866-.14-3.57438-.16261-16.00257s-.03437-17.89715-.037-24.00352L57.289,27.60667l-1.07254-.38105a6.15946,6.15946,0,0,1-1.29934-10.9528,5.90964,5.90964,0,0,1,2.18609-.84616c2.33393-.23584,2.49446-.05677,3.91317.59559,4.70762,2.207,4.37109,9.15689-.55083,11.12069l-1.24756.49777.03983,28.88056Z"/></g></svg>
